<svg xmlns="http://www.w3.org/2000/svg" xmlns:xlink="http://www.w3.org/1999/xlink" width="1080" zoomAndPan="magnify" viewBox="0 0 810 809.999993" height="1080" preserveAspectRatio="xMidYMid meet" version="1.0"><defs><g/><clipPath id="655fa0203d"><path d="M 182.167969 194 L 380 194 L 380 604 L 182.167969 604 Z M 182.167969 194 " clip-rule="nonzero"/></clipPath><clipPath id="fa738d5cc5"><path d="M 431 329 L 627.667969 329 L 627.667969 616.78125 L 431 616.78125 Z M 431 329 " clip-rule="nonzero"/></clipPath><clipPath id="4c8219fbd1"><path d="M 364 193.03125 L 470 193.03125 L 470 303 L 364 303 Z M 364 193.03125 " clip-rule="nonzero"/></clipPath><clipPath id="bcca676f89"><path d="M 322 638.035156 L 383 638.035156 L 383 691 L 322 691 Z M 322 638.035156 " clip-rule="nonzero"/></clipPath><clipPath id="5a420ec0f9"><path d="M 308 643 L 372 643 L 372 728.785156 L 308 728.785156 Z M 308 643 " clip-rule="nonzero"/></clipPath></defs><path fill="#ffffff" d="M 405.082031 810 C 296.953125 810 195.117188 767.878906 118.621094 691.378906 C 42.121094 614.882812 0 513.210938 0 405.082031 C 0 296.953125 42.121094 195.117188 118.621094 118.621094 C 195.117188 42.121094 296.789062 0 405.082031 0 C 513.371094 0 614.882812 42.121094 691.378906 118.621094 C 767.878906 195.117188 810 296.789062 810 405.082031 C 810 513.371094 767.878906 614.882812 691.378906 691.378906 C 614.882812 767.878906 513.210938 810 405.082031 810 Z M 405.082031 24.207031 C 303.40625 24.207031 207.703125 63.746094 135.726562 135.726562 C 63.746094 207.703125 24.207031 303.246094 24.207031 405.082031 C 24.207031 506.914062 63.746094 602.457031 135.726562 674.433594 C 207.703125 746.414062 303.246094 785.953125 405.082031 785.953125 C 506.914062 785.953125 602.457031 746.414062 674.433594 674.433594 C 746.414062 602.457031 785.953125 506.914062 785.953125 405.082031 C 785.953125 303.246094 746.414062 207.703125 674.433594 135.726562 C 602.296875 63.746094 506.753906 24.207031 405.082031 24.207031 Z M 405.082031 24.207031 " fill-opacity="1" fill-rule="nonzero"/><path fill="#ffffff" d="M 397.011719 759.484375 L 396.042969 759.484375 C 392.492188 759.324219 389.75 756.417969 389.910156 753.03125 C 390.070312 749.640625 392.816406 746.898438 396.203125 746.898438 C 396.203125 746.898438 396.367188 746.898438 396.367188 746.898438 L 397.171875 746.898438 C 400.722656 747.058594 403.464844 749.964844 403.304688 753.351562 C 403.304688 756.742188 400.5625 759.484375 397.011719 759.484375 Z M 428.964844 758.679688 C 425.578125 758.679688 422.832031 756.097656 422.671875 752.707031 C 422.511719 749.15625 425.09375 746.253906 428.644531 745.929688 L 429.289062 745.929688 C 432.839844 745.605469 435.90625 748.351562 436.066406 751.738281 C 436.390625 755.289062 433.644531 758.355469 430.257812 758.519531 L 429.449219 758.519531 C 429.128906 758.679688 428.964844 758.679688 428.964844 758.679688 Z M 364.574219 757.226562 C 364.410156 757.226562 364.089844 757.226562 363.765625 757.226562 L 362.957031 757.066406 C 359.410156 756.582031 356.988281 753.515625 357.472656 749.964844 C 357.957031 746.414062 361.023438 743.992188 364.574219 744.476562 L 365.378906 744.636719 C 368.929688 744.960938 371.351562 748.1875 371.027344 751.738281 C 370.382812 754.804688 367.640625 757.226562 364.574219 757.226562 Z M 461.242188 754.96875 C 458.175781 754.96875 455.433594 752.707031 454.949219 749.640625 C 454.304688 746.253906 456.722656 742.863281 460.273438 742.378906 L 461.082031 742.21875 C 464.472656 741.734375 467.859375 743.992188 468.34375 747.542969 C 468.828125 751.09375 466.570312 754.320312 463.019531 754.804688 L 462.210938 754.96875 C 462.050781 754.96875 461.726562 754.96875 461.242188 754.96875 Z M 332.296875 751.902344 C 331.8125 751.902344 331.488281 751.902344 331.003906 751.738281 L 330.195312 751.578125 C 326.808594 750.769531 324.546875 747.382812 325.355469 743.992188 C 326.164062 740.605469 329.550781 738.34375 332.941406 739.152344 L 333.746094 739.3125 C 337.136719 740.121094 339.394531 743.347656 338.589844 746.898438 C 337.945312 749.964844 335.199219 751.902344 332.296875 751.902344 Z M 493.199219 748.351562 C 490.292969 748.351562 487.710938 746.414062 487.066406 743.507812 C 486.257812 740.121094 488.195312 736.570312 491.746094 735.761719 L 492.390625 735.601562 C 495.78125 734.632812 499.332031 736.730469 500.136719 740.121094 C 501.105469 743.507812 499.007812 747.058594 495.617188 747.867188 L 494.8125 748.027344 C 494.328125 748.1875 493.683594 748.351562 493.199219 748.351562 Z M 300.824219 743.671875 C 300.179688 743.671875 299.535156 743.507812 298.886719 743.347656 L 298.242188 743.1875 C 294.855469 742.054688 292.917969 738.503906 294.046875 735.117188 C 295.175781 731.726562 298.566406 729.953125 301.953125 730.921875 L 302.761719 731.082031 C 306.152344 732.050781 307.925781 735.761719 306.957031 738.988281 C 305.988281 741.894531 303.40625 743.671875 300.824219 743.671875 Z M 524.34375 738.503906 C 521.761719 738.503906 519.34375 736.890625 518.375 734.308594 C 517.246094 731.082031 518.859375 727.371094 522.246094 726.242188 L 522.894531 725.917969 C 526.121094 724.789062 529.832031 726.402344 531.125 729.628906 C 532.253906 732.855469 530.640625 736.570312 527.410156 737.859375 L 526.605469 738.183594 C 525.796875 738.503906 525.152344 738.503906 524.34375 738.503906 Z M 270.160156 732.535156 C 269.355469 732.535156 268.546875 732.371094 267.742188 732.050781 L 266.933594 731.726562 C 263.707031 730.273438 262.253906 726.5625 263.542969 723.335938 C 264.996094 720.109375 268.707031 718.65625 271.9375 719.945312 L 272.582031 720.269531 C 275.808594 721.558594 277.421875 725.273438 275.972656 728.660156 C 275.003906 730.921875 272.582031 732.535156 270.160156 732.535156 Z M 554.523438 725.917969 C 552.105469 725.917969 549.84375 724.625 548.875 722.367188 C 547.421875 719.140625 548.714844 715.425781 551.78125 713.8125 L 552.589844 713.492188 C 555.816406 712.039062 559.527344 713.328125 561.140625 716.558594 C 562.59375 719.785156 561.304688 723.496094 558.074219 724.949219 L 557.429688 725.273438 C 556.300781 725.757812 555.332031 725.917969 554.523438 725.917969 Z M 240.628906 718.332031 C 239.660156 718.332031 238.53125 718.007812 237.5625 717.527344 L 236.914062 717.203125 C 233.847656 715.589844 232.71875 711.714844 234.332031 708.648438 C 235.949219 705.582031 239.820312 704.453125 242.886719 706.066406 L 243.53125 706.390625 C 246.597656 708.003906 247.730469 711.875 246.113281 714.941406 C 245.144531 717.203125 242.886719 718.332031 240.628906 718.332031 Z M 583.25 710.585938 C 581.152344 710.585938 579.054688 709.457031 577.765625 707.519531 C 575.988281 704.453125 576.957031 700.578125 579.863281 698.804688 L 580.507812 698.320312 C 583.574219 696.546875 587.449219 697.511719 589.222656 700.578125 C 591 703.644531 590.03125 707.519531 586.964844 709.292969 L 586.316406 709.617188 C 585.511719 710.261719 584.382812 710.585938 583.25 710.585938 Z M 212.546875 701.546875 C 211.417969 701.546875 210.125 701.226562 208.996094 700.417969 L 208.351562 699.933594 C 205.445312 697.996094 204.636719 694.125 206.574219 691.058594 C 208.511719 688.152344 212.386719 687.347656 215.453125 689.28125 L 216.097656 689.765625 C 219 691.703125 219.808594 695.578125 217.871094 698.644531 C 216.742188 700.578125 214.644531 701.546875 212.546875 701.546875 Z M 610.527344 692.511719 C 608.589844 692.511719 606.652344 691.542969 605.363281 689.929688 C 603.261719 687.183594 603.910156 683.148438 606.652344 681.050781 L 607.296875 680.566406 C 610.203125 678.46875 614.078125 679.117188 616.175781 681.859375 C 618.273438 684.765625 617.625 688.636719 614.882812 690.734375 L 614.238281 691.21875 C 613.109375 692.1875 611.816406 692.511719 610.527344 692.511719 Z M 186.242188 682.34375 C 184.789062 682.34375 183.335938 681.859375 182.207031 680.890625 L 181.558594 680.40625 C 178.816406 678.148438 178.332031 674.273438 180.589844 671.53125 C 182.851562 668.785156 186.722656 668.300781 189.46875 670.5625 L 190.113281 671.046875 C 192.855469 673.304688 193.179688 677.339844 191.082031 679.921875 C 189.953125 681.535156 188.175781 682.34375 186.242188 682.34375 Z M 635.863281 672.015625 C 634.089844 672.015625 632.3125 671.367188 631.183594 669.917969 C 628.925781 667.335938 629.085938 663.300781 631.667969 661.039062 L 632.3125 660.554688 C 634.894531 658.136719 638.929688 658.457031 641.351562 661.039062 C 643.773438 663.621094 643.449219 667.65625 640.867188 670.078125 L 640.382812 670.5625 C 638.929688 671.53125 637.316406 672.015625 635.863281 672.015625 Z M 161.871094 660.554688 C 160.257812 660.554688 158.644531 659.910156 157.511719 658.78125 L 156.867188 658.136719 C 154.285156 655.714844 154.285156 651.679688 156.867188 649.097656 C 159.289062 646.515625 163.324219 646.515625 165.90625 649.097656 L 166.390625 649.582031 C 168.972656 652.003906 168.972656 656.035156 166.550781 658.621094 C 165.261719 660.070312 163.484375 660.554688 161.871094 660.554688 Z M 659.265625 649.257812 C 657.652344 649.257812 656.199219 648.773438 654.90625 647.484375 C 652.324219 645.0625 652.164062 641.027344 654.585938 638.445312 L 655.070312 637.800781 C 657.488281 635.21875 661.523438 635.058594 664.105469 637.476562 C 666.6875 639.898438 666.851562 643.933594 664.429688 646.515625 L 663.945312 647 C 662.652344 648.613281 660.878906 649.257812 659.265625 649.257812 Z M 139.597656 636.832031 C 137.824219 636.832031 136.050781 636.023438 134.757812 634.574219 L 134.273438 633.925781 C 132.015625 631.183594 132.335938 627.308594 135.082031 624.890625 C 137.824219 622.628906 141.699219 622.953125 144.117188 625.695312 L 144.601562 626.34375 C 146.863281 629.085938 146.539062 632.957031 143.796875 635.378906 C 142.503906 636.347656 141.050781 636.832031 139.597656 636.832031 Z M 680.40625 624.40625 C 679.117188 624.40625 677.664062 623.921875 676.53125 623.113281 C 673.789062 621.015625 673.144531 616.980469 675.402344 614.238281 L 675.886719 613.59375 C 677.984375 610.847656 682.019531 610.363281 684.765625 612.460938 C 687.507812 614.5625 687.992188 618.59375 685.894531 621.339844 L 685.410156 621.984375 C 684.28125 623.597656 682.34375 624.40625 680.40625 624.40625 Z M 119.75 611.011719 C 117.8125 611.011719 115.714844 610.042969 114.585938 608.265625 L 114.101562 607.621094 C 112.164062 604.714844 112.808594 600.84375 115.714844 598.746094 C 118.621094 596.808594 122.492188 597.453125 124.589844 600.359375 L 125.074219 601.003906 C 127.011719 603.910156 126.367188 607.78125 123.460938 609.878906 C 122.167969 610.527344 120.878906 611.011719 119.75 611.011719 Z M 699.128906 597.777344 C 697.996094 597.777344 696.867188 597.453125 695.738281 596.808594 C 692.832031 594.871094 691.863281 591 693.800781 588.09375 L 694.285156 587.449219 C 696.222656 584.542969 700.09375 583.574219 703 585.511719 C 705.90625 587.449219 706.875 591.320312 704.9375 594.226562 L 704.453125 594.871094 C 703.324219 596.648438 701.226562 597.777344 699.128906 597.777344 Z M 102.15625 583.414062 C 99.898438 583.414062 97.800781 582.285156 96.671875 580.183594 L 96.347656 579.539062 C 94.574219 576.472656 95.703125 572.601562 98.769531 570.824219 C 101.835938 569.050781 105.707031 570.179688 107.484375 573.246094 L 107.804688 573.890625 C 109.582031 576.957031 108.453125 580.832031 105.386719 582.605469 C 104.417969 583.089844 103.289062 583.414062 102.15625 583.414062 Z M 715.425781 569.371094 C 714.460938 569.371094 713.492188 569.210938 712.523438 568.726562 C 709.457031 567.113281 708.164062 563.238281 709.777344 560.171875 L 710.101562 559.527344 C 711.714844 556.460938 715.589844 555.171875 718.65625 556.785156 C 721.722656 558.398438 723.011719 562.269531 721.398438 565.335938 L 721.074219 565.984375 C 719.945312 568.082031 717.6875 569.371094 715.425781 569.371094 Z M 87.472656 554.363281 C 85.050781 554.363281 82.792969 552.910156 81.660156 550.652344 L 81.339844 550.007812 C 79.886719 546.777344 81.339844 543.066406 84.566406 541.613281 C 87.792969 540.160156 91.507812 541.613281 92.957031 544.839844 L 93.28125 545.488281 C 94.734375 548.714844 93.28125 552.425781 90.054688 553.878906 C 89.246094 554.203125 88.277344 554.363281 87.472656 554.363281 Z M 728.824219 539.675781 C 728.015625 539.675781 727.207031 539.515625 726.5625 539.191406 C 723.335938 537.902344 721.722656 534.191406 723.011719 530.960938 L 723.335938 530.15625 C 724.625 526.925781 728.339844 525.3125 731.566406 526.605469 C 734.792969 527.894531 736.40625 531.609375 735.117188 534.835938 L 734.792969 535.640625 C 733.664062 538.0625 731.40625 539.675781 728.824219 539.675781 Z M 75.367188 524.023438 C 72.785156 524.023438 70.203125 522.410156 69.394531 519.664062 L 69.074219 518.859375 C 67.945312 515.46875 69.71875 511.917969 73.109375 510.789062 C 76.496094 509.660156 80.046875 511.433594 81.175781 514.824219 L 81.5 515.628906 C 82.628906 519.019531 80.855469 522.570312 77.628906 523.699219 C 76.820312 523.863281 76.175781 524.023438 75.367188 524.023438 Z M 739.472656 508.851562 C 738.828125 508.851562 738.34375 508.691406 737.699219 508.53125 C 734.308594 507.5625 732.371094 504.011719 733.339844 500.621094 L 733.503906 499.816406 C 734.472656 496.425781 738.023438 494.488281 741.410156 495.457031 C 744.800781 496.425781 746.738281 499.976562 745.769531 503.363281 L 745.605469 504.171875 C 744.636719 506.914062 742.21875 508.851562 739.472656 508.851562 Z M 66.328125 492.550781 C 63.425781 492.550781 60.84375 490.617188 60.195312 487.710938 L 60.035156 486.902344 C 59.230469 483.515625 61.328125 480.125 64.714844 479.320312 C 68.105469 478.511719 71.496094 480.609375 72.300781 484 L 72.460938 484.804688 C 73.269531 488.195312 71.171875 491.585938 67.78125 492.390625 C 67.296875 492.550781 66.8125 492.550781 66.328125 492.550781 Z M 747.058594 477.058594 C 746.738281 477.058594 746.253906 477.058594 745.769531 476.898438 C 742.378906 476.253906 740.121094 472.863281 740.765625 469.472656 L 740.925781 468.667969 C 741.570312 465.277344 744.960938 463.019531 748.351562 463.664062 C 751.738281 464.308594 754 467.699219 753.351562 471.085938 L 753.191406 471.894531 C 752.707031 474.960938 749.964844 477.058594 747.058594 477.058594 Z M 60.195312 460.597656 C 57.132812 460.597656 54.386719 458.339844 53.902344 455.109375 L 53.742188 454.304688 C 53.257812 450.753906 55.679688 447.6875 59.230469 447.203125 C 62.78125 446.71875 65.847656 449.140625 66.328125 452.691406 L 66.492188 453.496094 C 66.976562 457.046875 64.554688 460.113281 61.164062 460.757812 C 60.84375 460.597656 60.519531 460.597656 60.195312 460.597656 Z M 751.578125 444.78125 C 751.417969 444.78125 751.09375 444.78125 750.933594 444.78125 C 747.382812 444.460938 744.800781 441.394531 745.285156 437.84375 L 745.285156 437.035156 C 745.605469 433.484375 748.671875 430.902344 752.222656 431.386719 C 755.773438 431.710938 758.355469 434.777344 757.871094 438.328125 L 757.871094 439.132812 C 757.710938 442.359375 754.804688 444.78125 751.578125 444.78125 Z M 57.292969 428.160156 C 53.902344 428.160156 51.160156 425.578125 51 422.027344 L 51 421.21875 C 50.835938 417.667969 53.582031 414.765625 56.96875 414.601562 C 60.519531 414.441406 63.425781 417.183594 63.585938 420.574219 L 63.585938 421.378906 C 63.746094 424.929688 61.003906 427.835938 57.613281 427.996094 C 57.453125 428.160156 57.292969 428.160156 57.292969 428.160156 Z M 753.191406 411.375 C 749.640625 411.375 746.574219 409.277344 746.574219 405.726562 L 746.574219 405.082031 C 746.574219 405.082031 746.574219 404.917969 746.574219 404.917969 L 746.574219 404.113281 C 746.574219 400.5625 749.480469 397.816406 753.03125 397.816406 C 756.582031 397.816406 759.484375 400.722656 759.484375 404.113281 L 759.484375 404.757812 C 759.484375 404.757812 759.484375 404.917969 759.484375 404.917969 L 759.484375 405.726562 C 759.484375 409.277344 756.742188 411.375 753.191406 411.375 Z M 57.132812 395.398438 C 56.96875 395.398438 56.96875 395.398438 56.808594 395.398438 C 53.257812 395.234375 50.515625 392.332031 50.675781 388.78125 L 50.675781 387.972656 C 50.835938 384.421875 53.902344 381.839844 57.292969 382.003906 C 60.84375 382.164062 63.585938 385.070312 63.261719 388.621094 L 63.261719 389.425781 C 63.425781 392.816406 60.519531 395.398438 57.132812 395.398438 Z M 751.738281 378.773438 C 748.511719 378.773438 745.769531 376.355469 745.445312 372.964844 L 745.445312 372.15625 C 745.121094 368.605469 747.703125 365.539062 751.09375 365.21875 C 754.644531 364.894531 757.710938 367.476562 758.035156 370.867188 L 758.035156 371.671875 C 758.355469 375.222656 755.773438 378.289062 752.222656 378.613281 C 752.0625 378.773438 751.902344 378.773438 751.738281 378.773438 Z M 60.195312 362.957031 C 59.875 362.957031 59.550781 362.957031 59.390625 362.957031 C 55.839844 362.472656 53.417969 359.246094 53.902344 355.859375 L 54.066406 355.050781 C 54.546875 351.5 57.777344 349.078125 61.328125 349.726562 C 64.878906 350.210938 67.296875 353.4375 66.652344 356.988281 L 66.492188 357.792969 C 66.007812 360.699219 63.261719 362.957031 60.195312 362.957031 Z M 747.21875 346.496094 C 744.152344 346.496094 741.570312 344.398438 740.925781 341.332031 L 740.765625 340.527344 C 740.121094 337.136719 742.378906 333.746094 745.769531 333.101562 C 749.15625 332.457031 752.546875 334.714844 753.191406 338.105469 L 753.351562 338.914062 C 754 342.300781 751.738281 345.691406 748.351562 346.335938 C 747.867188 346.496094 747.542969 346.496094 747.21875 346.496094 Z M 66.167969 330.84375 C 65.683594 330.84375 65.199219 330.84375 64.714844 330.679688 C 61.328125 329.875 59.230469 326.484375 60.035156 323.097656 L 60.195312 322.289062 C 61.003906 318.898438 64.394531 316.800781 67.78125 317.609375 C 71.171875 318.417969 73.269531 321.804688 72.460938 325.195312 L 72.300781 326 C 71.65625 328.90625 69.074219 330.84375 66.167969 330.84375 Z M 739.636719 314.703125 C 736.890625 314.703125 734.308594 312.929688 733.503906 310.023438 L 733.339844 309.21875 C 732.371094 305.828125 734.308594 302.277344 737.699219 301.308594 C 741.085938 300.339844 744.636719 302.277344 745.605469 305.667969 L 745.769531 306.472656 C 746.738281 309.863281 744.800781 313.414062 741.410156 314.382812 C 740.765625 314.703125 740.121094 314.703125 739.636719 314.703125 Z M 75.207031 299.535156 C 74.5625 299.535156 73.914062 299.371094 73.109375 299.210938 C 69.71875 298.082031 67.945312 294.53125 69.074219 291.140625 L 69.394531 290.496094 C 70.527344 287.105469 74.238281 285.332031 77.464844 286.460938 C 80.855469 287.589844 82.628906 291.140625 81.5 294.53125 L 81.175781 295.335938 C 80.371094 297.921875 77.789062 299.535156 75.207031 299.535156 Z M 729.144531 283.878906 C 726.5625 283.878906 724.140625 282.265625 723.175781 279.84375 L 722.851562 279.199219 C 721.558594 275.972656 723.175781 272.257812 726.402344 270.96875 C 729.628906 269.675781 733.339844 271.292969 734.632812 274.519531 L 734.957031 275.324219 C 736.246094 278.554688 734.632812 282.265625 731.40625 283.554688 C 730.597656 283.71875 729.953125 283.878906 729.144531 283.878906 Z M 87.148438 269.191406 C 86.34375 269.191406 85.375 269.03125 84.566406 268.707031 C 81.339844 267.257812 79.886719 263.542969 81.339844 260.316406 L 81.660156 259.511719 C 83.113281 256.28125 86.824219 254.828125 90.054688 256.28125 C 93.28125 257.734375 94.734375 261.445312 93.28125 264.675781 L 92.957031 265.320312 C 91.828125 267.742188 89.570312 269.191406 87.148438 269.191406 Z M 715.75 254.023438 C 713.492188 254.023438 711.230469 252.730469 710.101562 250.472656 L 709.777344 249.828125 C 708.164062 246.761719 709.457031 242.886719 712.523438 241.273438 C 715.589844 239.660156 719.460938 240.949219 721.074219 244.015625 L 721.398438 244.664062 C 723.011719 247.730469 721.722656 251.601562 718.65625 253.214844 C 717.6875 253.863281 716.71875 254.023438 715.75 254.023438 Z M 101.835938 239.980469 C 100.707031 239.980469 99.738281 239.660156 98.769531 239.175781 C 95.703125 237.398438 94.574219 233.527344 96.347656 230.460938 L 96.671875 229.816406 C 98.445312 226.75 102.320312 225.78125 105.386719 227.394531 C 108.453125 229.167969 109.421875 233.042969 107.804688 236.109375 L 107.484375 236.753906 C 106.191406 238.851562 104.09375 239.980469 101.835938 239.980469 Z M 699.613281 225.617188 C 697.511719 225.617188 695.414062 224.488281 694.285156 222.714844 L 693.964844 222.066406 C 692.027344 219.164062 692.996094 215.128906 695.898438 213.351562 C 698.804688 211.417969 702.839844 212.386719 704.613281 215.289062 L 705.097656 215.933594 C 707.035156 218.839844 706.066406 222.875 703.160156 224.648438 C 701.871094 225.457031 700.742188 225.617188 699.613281 225.617188 Z M 119.265625 212.386719 C 117.972656 212.386719 116.683594 212.0625 115.714844 211.253906 C 112.808594 209.320312 112.164062 205.285156 114.101562 202.378906 L 114.585938 201.734375 C 116.519531 198.828125 120.554688 198.183594 123.460938 200.121094 C 126.367188 202.21875 127.011719 206.089844 125.074219 208.996094 L 124.589844 209.640625 C 123.300781 211.417969 121.203125 212.386719 119.265625 212.386719 Z M 680.890625 198.988281 C 678.953125 198.988281 677.015625 198.183594 675.886719 196.570312 L 675.402344 195.921875 C 673.304688 193.179688 673.789062 189.144531 676.53125 187.046875 C 679.277344 184.949219 683.3125 185.433594 685.410156 188.175781 L 685.894531 188.824219 C 687.992188 191.566406 687.507812 195.601562 684.765625 197.699219 C 683.632812 198.503906 682.34375 198.988281 680.890625 198.988281 Z M 139.117188 186.5625 C 137.664062 186.5625 136.210938 186.078125 135.082031 185.109375 C 132.335938 182.851562 132.015625 178.816406 134.273438 176.234375 L 134.757812 175.589844 C 137.015625 172.84375 141.050781 172.683594 143.796875 174.941406 C 146.539062 177.203125 146.699219 181.238281 144.441406 183.980469 L 143.957031 184.625 C 142.828125 185.757812 140.890625 186.5625 139.117188 186.5625 Z M 659.75 174.136719 C 657.972656 174.136719 656.359375 173.492188 655.070312 172.039062 L 654.585938 171.554688 C 652.164062 168.972656 652.324219 164.9375 654.90625 162.515625 C 657.488281 160.09375 661.523438 160.257812 663.945312 162.839844 L 664.589844 163.484375 C 667.011719 166.066406 666.851562 170.101562 664.269531 172.523438 C 662.976562 173.492188 661.363281 174.136719 659.75 174.136719 Z M 161.386719 162.679688 C 159.773438 162.679688 158.160156 162.03125 156.867188 160.742188 C 154.445312 158.160156 154.445312 154.285156 157.027344 151.703125 L 157.675781 151.058594 C 160.257812 148.636719 164.292969 148.636719 166.710938 151.21875 C 169.132812 153.800781 169.132812 157.835938 166.550781 160.257812 L 166.066406 160.742188 C 164.613281 162.03125 163 162.679688 161.386719 162.679688 Z M 636.507812 151.21875 C 635.058594 151.21875 633.441406 150.734375 632.3125 149.605469 L 631.828125 149.121094 C 629.246094 146.863281 628.925781 142.828125 631.34375 140.082031 C 633.605469 137.5 637.640625 137.179688 640.382812 139.597656 L 641.027344 140.082031 C 643.609375 142.503906 643.933594 146.378906 641.511719 149.121094 C 639.898438 150.574219 638.285156 151.21875 636.507812 151.21875 Z M 185.757812 140.890625 C 183.980469 140.890625 182.042969 140.082031 180.753906 138.46875 C 178.492188 135.726562 178.976562 131.691406 181.722656 129.59375 L 182.367188 129.109375 C 185.109375 126.851562 189.144531 127.335938 191.242188 130.078125 C 193.503906 132.820312 193.019531 136.855469 190.273438 138.953125 L 189.628906 139.4375 C 188.5 140.40625 187.207031 140.890625 185.757812 140.890625 Z M 611.171875 130.722656 C 609.878906 130.722656 608.589844 130.402344 607.460938 129.433594 L 606.8125 128.949219 C 603.910156 126.851562 603.425781 122.976562 605.363281 120.070312 C 607.460938 117.167969 611.496094 116.683594 614.238281 118.621094 L 614.882812 119.101562 C 617.789062 121.203125 618.273438 125.234375 616.175781 127.980469 C 615.042969 129.753906 613.109375 130.722656 611.171875 130.722656 Z M 212.0625 121.523438 C 209.964844 121.523438 208.027344 120.554688 206.738281 118.621094 C 204.800781 115.714844 205.605469 111.679688 208.511719 109.742188 L 209.15625 109.257812 C 212.0625 107.320312 216.097656 108.128906 218.035156 111.035156 C 219.96875 113.9375 219.164062 117.972656 216.257812 119.910156 L 215.613281 120.394531 C 214.484375 121.203125 213.191406 121.523438 212.0625 121.523438 Z M 583.898438 112.648438 C 582.765625 112.648438 581.636719 112.324219 580.667969 111.679688 L 580.023438 111.195312 C 576.957031 109.421875 575.988281 105.546875 577.765625 102.480469 C 579.539062 99.414062 583.414062 98.445312 586.480469 100.222656 L 587.125 100.707031 C 590.191406 102.480469 591.160156 106.355469 589.382812 109.421875 C 588.253906 111.519531 586.15625 112.648438 583.898438 112.648438 Z M 239.980469 104.738281 C 237.722656 104.738281 235.464844 103.449219 234.332031 101.351562 C 232.71875 98.285156 233.847656 94.410156 236.914062 92.796875 L 237.5625 92.476562 C 240.628906 90.859375 244.5 91.992188 246.113281 95.058594 C 247.730469 98.125 246.597656 101.996094 243.53125 103.609375 L 242.886719 103.933594 C 242.082031 104.417969 240.949219 104.738281 239.980469 104.738281 Z M 555.171875 97.15625 C 554.203125 97.15625 553.394531 96.992188 552.425781 96.507812 L 551.78125 96.1875 C 548.554688 94.734375 547.261719 90.859375 548.714844 87.632812 C 550.167969 84.40625 554.039062 83.113281 557.269531 84.566406 L 557.914062 84.890625 C 561.140625 86.34375 562.433594 90.214844 560.980469 93.441406 C 559.851562 95.863281 557.589844 97.15625 555.171875 97.15625 Z M 269.355469 90.539062 C 266.933594 90.539062 264.511719 89.085938 263.542969 86.664062 C 262.253906 83.4375 263.707031 79.726562 266.933594 78.273438 L 267.742188 77.949219 C 270.96875 76.660156 274.679688 78.109375 276.132812 81.339844 C 277.421875 84.566406 275.972656 88.277344 272.742188 89.730469 L 272.097656 90.054688 C 270.96875 90.375 270.160156 90.539062 269.355469 90.539062 Z M 525.152344 84.40625 C 524.507812 84.40625 523.699219 84.242188 523.054688 84.082031 L 522.246094 83.757812 C 519.019531 82.628906 517.246094 78.917969 518.535156 75.527344 C 519.664062 72.300781 523.378906 70.527344 526.765625 71.816406 L 527.574219 72.140625 C 530.800781 73.269531 532.578125 76.980469 531.445312 80.371094 C 530.15625 82.792969 527.734375 84.40625 525.152344 84.40625 Z M 300.019531 79.242188 C 297.273438 79.242188 294.855469 77.464844 293.886719 74.722656 C 292.753906 71.332031 294.691406 67.78125 298.082031 66.8125 L 298.886719 66.652344 C 302.277344 65.523438 305.828125 67.460938 306.796875 70.847656 C 307.925781 74.238281 305.988281 77.789062 302.601562 78.757812 L 301.792969 78.917969 C 301.308594 79.242188 300.664062 79.242188 300.019531 79.242188 Z M 494.003906 74.722656 C 493.519531 74.722656 492.875 74.722656 492.390625 74.5625 L 491.585938 74.398438 C 488.195312 73.59375 486.097656 70.042969 487.066406 66.652344 C 487.871094 63.261719 491.421875 61.164062 494.8125 62.132812 L 495.617188 62.296875 C 499.007812 63.261719 501.105469 66.652344 500.136719 70.042969 C 499.332031 72.785156 496.75 74.722656 494.003906 74.722656 Z M 331.488281 71.011719 C 328.582031 71.011719 326 68.914062 325.355469 66.007812 C 324.546875 62.617188 326.808594 59.230469 330.195312 58.421875 L 330.84375 58.261719 C 334.230469 57.453125 337.78125 59.714844 338.429688 63.101562 C 339.234375 66.492188 336.976562 69.878906 333.585938 70.6875 L 332.78125 70.847656 C 332.457031 70.847656 331.972656 71.011719 331.488281 71.011719 Z M 462.050781 67.78125 C 461.726562 67.78125 461.40625 67.78125 461.082031 67.621094 L 460.273438 67.460938 C 456.886719 66.976562 454.464844 63.585938 454.949219 60.199219 C 455.59375 56.808594 458.824219 54.386719 462.210938 54.871094 L 463.019531 55.03125 C 466.40625 55.679688 468.828125 58.90625 468.183594 62.296875 C 467.859375 65.683594 465.117188 67.78125 462.050781 67.78125 Z M 363.765625 65.683594 C 360.539062 65.683594 357.792969 63.261719 357.472656 60.035156 C 356.988281 56.484375 359.570312 53.417969 363.121094 52.933594 L 363.925781 52.773438 C 367.476562 52.289062 370.542969 54.871094 371.027344 58.421875 C 371.511719 61.972656 368.929688 65.039062 365.378906 65.523438 L 364.574219 65.683594 C 364.25 65.523438 363.925781 65.683594 363.765625 65.683594 Z M 429.613281 64.070312 C 429.449219 64.070312 429.289062 64.070312 429.128906 64.070312 L 428.320312 64.070312 C 424.769531 63.910156 422.1875 60.84375 422.347656 57.292969 C 422.511719 53.742188 425.578125 51.160156 429.128906 51.320312 L 429.933594 51.320312 C 433.484375 51.480469 436.066406 54.546875 435.90625 58.097656 C 435.746094 61.488281 433 64.070312 429.613281 64.070312 Z M 396.203125 63.425781 C 392.816406 63.425781 389.910156 60.679688 389.910156 57.132812 C 389.75 53.582031 392.652344 50.675781 396.042969 50.515625 L 396.851562 50.515625 C 400.238281 50.351562 403.304688 53.257812 403.304688 56.648438 C 403.46875 60.199219 400.5625 63.101562 397.171875 63.261719 L 396.203125 63.425781 C 396.367188 63.425781 396.367188 63.425781 396.203125 63.425781 Z M 396.203125 63.425781 " fill-opacity="1" fill-rule="nonzero"/><path fill="#ffffff" d="M 507.871094 288.335938 C 499.519531 291.023438 493.472656 298.855469 493.472656 308.097656 C 493.472656 319.558594 502.765625 328.851562 514.226562 328.851562 C 514.777344 328.851562 515.316406 328.828125 515.855469 328.789062 C 499.210938 309.070312 503.613281 295.066406 507.871094 288.335938 Z M 507.871094 288.335938 " fill-opacity="1" fill-rule="evenodd"/><path fill="#ffffff" d="M 592.589844 304.851562 C 591.546875 302.484375 590.128906 300.019531 588.222656 298.34375 C 584.457031 295.027344 580.4375 291.882812 576.144531 289.304688 C 571.414062 286.46875 566.316406 284.230469 561.273438 281.949219 C 551.917969 277.71875 552.761719 278.574219 548.632812 270.316406 C 543.429688 259.917969 534.304688 255.019531 522.738281 255.027344 C 512.175781 255.042969 504.449219 261.246094 501.765625 271.429688 C 501.527344 272.34375 501.253906 273.246094 501.074219 273.871094 C 498.851562 275.890625 496.328125 275.664062 493.988281 275.976562 C 466.691406 279.652344 440.097656 286.078125 414.464844 296.257812 C 406.417969 299.453125 398.433594 302.800781 390.4375 306.125 C 371.742188 313.898438 353.78125 323.140625 336.535156 333.714844 C 319.089844 344.40625 302.339844 356.097656 286.523438 369.148438 C 277.78125 376.359375 269.34375 383.84375 261.492188 391.996094 C 254.300781 399.460938 247.609375 407.34375 242.046875 416.117188 C 238.042969 422.429688 234.441406 428.925781 232.777344 436.351562 C 230.058594 448.484375 232.882812 456.132812 243.046875 463.183594 C 245.019531 464.546875 247.078125 465.863281 249.253906 466.84375 C 253.632812 468.824219 258.015625 470.882812 262.574219 472.34375 C 284.132812 479.242188 306.328125 481.480469 328.84375 480.53125 C 340.359375 480.046875 351.9375 479.609375 363.042969 475.882812 C 363.929688 475.582031 364.941406 475.609375 365.894531 475.601562 C 366.339844 475.597656 366.863281 475.785156 367.207031 476.0625 C 367.539062 476.328125 367.84375 476.816406 367.867188 477.226562 C 367.886719 477.632812 367.628906 478.335938 367.34375 478.425781 C 365.992188 478.84375 364.601562 479.191406 363.203125 479.40625 C 354.175781 480.800781 345.035156 481.65625 336.144531 483.636719 C 321.125 486.980469 306.230469 490.902344 291.351562 494.828125 C 283.921875 496.789062 276.441406 498.796875 269.640625 502.539062 C 267.347656 503.796875 265 505.210938 263.1875 507.054688 C 258.394531 511.929688 259.21875 518.734375 264.855469 522.5625 C 266.039062 523.367188 267.359375 524.039062 268.710938 524.496094 C 273.03125 525.960938 277.351562 527.453125 281.753906 528.640625 C 291.039062 531.132812 300.429688 533.246094 309.675781 535.882812 C 317.34375 538.066406 324.574219 541.492188 331.160156 545.972656 C 346.957031 556.722656 354.972656 571.355469 352.710938 590.851562 C 352.488281 592.765625 352.234375 594.675781 352.160156 596.597656 C 352.039062 599.53125 352.648438 602.335938 354.035156 604.953125 C 357.023438 610.617188 363.847656 613.800781 369.871094 612.335938 C 376.363281 610.761719 380.609375 605.527344 380.875 598.839844 C 381.023438 595.105469 380.273438 591.636719 377.863281 588.703125 C 375.722656 586.101562 373.488281 583.585938 371.285156 581.039062 C 368.09375 577.359375 365.464844 573.34375 364.355469 568.546875 C 363.988281 566.960938 363.847656 565.175781 364.183594 563.609375 C 364.9375 560.082031 368.015625 558.4375 371.355469 559.742188 C 373.113281 560.429688 374.742188 561.546875 376.304688 562.648438 C 385.84375 569.367188 393.890625 577.5625 400.488281 587.195312 C 401.707031 588.976562 402.917969 590.8125 404.421875 592.339844 C 408.605469 596.597656 415.019531 597.710938 420.429688 595.324219 C 426.101562 592.820312 429.1875 587.8125 428.871094 581.503906 C 428.550781 575.046875 425.273438 570.601562 419.292969 568.367188 C 415.25 566.851562 411.007812 565.871094 406.890625 564.535156 C 396.910156 561.292969 388.144531 555.882812 380.152344 549.191406 C 378.109375 547.484375 376.261719 545.285156 377.160156 542.320312 C 378.199219 538.878906 381.265625 538.679688 384.21875 538.558594 C 389.820312 538.332031 395.21875 539.425781 400.554688 541.023438 C 403.3125 541.847656 406.089844 542.832031 408.925781 543.125 C 415.878906 543.839844 422.101562 539.480469 423.769531 533.113281 C 425.648438 525.941406 422.183594 518.644531 415.605469 515.707031 C 410.535156 513.4375 405.765625 514.445312 401.027344 516.722656 C 396.695312 518.808594 392.414062 521.039062 387.957031 522.816406 C 370.628906 529.726562 353.589844 528.136719 336.839844 520.664062 C 336.507812 520.519531 336.394531 519.882812 335.980469 519.101562 C 337.269531 518.582031 338.5 517.898438 339.8125 517.589844 C 344.492188 516.480469 349.234375 515.628906 353.894531 514.445312 C 373.050781 509.597656 391.960938 504.011719 409.503906 494.652344 C 412.242188 493.191406 414.984375 491.566406 417.308594 489.539062 C 424.328125 483.429688 425.40625 475.339844 420.097656 467.601562 C 417.945312 464.464844 415.242188 461.582031 412.339844 459.117188 C 394.070312 443.617188 373.3125 432.832031 350.082031 426.882812 C 343.917969 425.304688 337.714844 423.902344 331.527344 422.421875 C 334.476562 421.648438 337.339844 421.601562 340.199219 421.65625 C 347.945312 421.792969 355.503906 423.375 363.007812 425.066406 C 375.726562 427.933594 388.144531 431.792969 399.191406 438.96875 C 402.738281 441.28125 405.683594 441.109375 409.164062 438.984375 C 416.5 434.511719 422.371094 428.535156 427.261719 421.621094 C 432.984375 413.539062 437.628906 404.851562 440.699219 395.375 C 441.261719 393.648438 442.183594 392.035156 443.625 388.851562 C 444.21875 392.050781 444.847656 393.632812 444.738281 395.160156 C 444.214844 402.589844 443.441406 410.007812 442.871094 417.433594 C 442.503906 422.222656 441.972656 427.039062 442.148438 431.820312 C 442.429688 439.433594 446.65625 443.675781 454.253906 444.570312 C 456.394531 444.820312 458.578125 444.777344 460.742188 444.761719 C 468.6875 444.707031 476.589844 445.023438 484.449219 446.425781 C 495.878906 448.46875 507.003906 451.472656 517.449219 456.582031 C 525.324219 460.4375 532.40625 465.328125 536.628906 473.445312 C 537.394531 474.917969 538.527344 476.234375 539.648438 477.480469 C 543.640625 481.910156 548.617188 482.886719 554.125 481.109375 C 557.808594 479.917969 560.21875 477.292969 561.03125 473.445312 C 562.515625 466.433594 558.617188 459.71875 551.695312 457.648438 C 548.945312 456.824219 546.042969 456.503906 543.207031 455.984375 C 539.160156 455.230469 535.15625 454.242188 531.78125 451.800781 C 530.28125 450.710938 528.855469 449.234375 528 447.617188 C 526.507812 444.78125 527.851562 441.691406 530.824219 440.53125 C 532.144531 440.015625 533.605469 439.613281 535.011719 439.597656 C 539.089844 439.550781 543.191406 439.511719 547.25 439.851562 C 553.015625 440.328125 558.636719 441.671875 564.148438 443.457031 C 567.148438 444.429688 570.210938 445.050781 573.375 444.21875 C 577.398438 443.164062 580.347656 440.871094 581.253906 436.671875 C 582.28125 431.917969 581.398438 427.554688 577.761719 424.058594 C 573.972656 420.417969 569.492188 419.292969 564.453125 420.78125 C 562.847656 421.257812 561.324219 422.027344 559.800781 422.742188 C 550.886719 426.925781 541.308594 427.789062 531.683594 428.402344 C 530.496094 428.476562 529.253906 428.410156 528.097656 428.140625 C 523.25 427.019531 521.777344 422.335938 525.421875 418.882812 C 527.644531 416.777344 530.417969 415.167969 533.132812 413.679688 C 535.863281 412.175781 538.847656 411.144531 541.675781 409.808594 C 543.902344 408.757812 545.691406 407.148438 546.824219 404.929688 C 549.796875 399.101562 546.628906 390.59375 540.449219 387.757812 C 533.972656 384.78125 527.210938 387.347656 524.34375 393.96875 C 523.003906 397.054688 521.886719 400.238281 520.636719 403.363281 C 517.921875 410.144531 513.046875 414.988281 506.800781 418.523438 C 500.449219 422.113281 493.59375 424.308594 486.394531 425.386719 C 483.28125 425.855469 480.160156 425.804688 477.148438 424.605469 C 474.675781 423.628906 473.019531 421.855469 473.015625 419.234375 C 473.007812 416.136719 473.148438 412.953125 473.871094 409.964844 C 476.847656 397.652344 482.585938 386.601562 489.574219 376.097656 C 492.539062 371.636719 496.265625 368.816406 501.464844 367.492188 C 514.34375 364.214844 526.449219 358.851562 538.480469 353.3125 C 555.871094 345.296875 571.566406 334.679688 586.144531 322.347656 C 587.964844 320.808594 589.664062 319.039062 591.101562 317.136719 C 593.9375 313.390625 594.464844 309.117188 592.589844 304.851562 Z M 514.226562 328.851562 C 502.765625 328.851562 493.472656 319.558594 493.472656 308.097656 C 493.472656 298.855469 499.519531 291.023438 507.871094 288.335938 C 503.613281 295.066406 499.210938 309.070312 515.855469 328.789062 C 515.316406 328.828125 514.777344 328.851562 514.226562 328.851562 Z M 529.113281 322.558594 C 529.183594 322.179688 529.257812 321.753906 529.328125 321.289062 L 529.328125 321.285156 C 530.050781 316.40625 530.234375 306.785156 524.773438 293.257812 C 524.257812 291.980469 523.691406 290.667969 523.074219 289.320312 C 530.113281 292.640625 534.980469 299.800781 534.980469 308.097656 C 534.980469 313.71875 532.746094 318.820312 529.113281 322.558594 Z M 529.113281 322.558594 " fill-opacity="1" fill-rule="evenodd"/><g clip-path="url(#655fa0203d)"><path fill="#ffffff" d="M 182.203125 389.820312 C 182.265625 365.535156 185.265625 345.597656 191.324219 326.191406 C 198.273438 303.929688 208.867188 283.539062 223.492188 265.285156 C 239.703125 245.054688 259.417969 229.222656 282.636719 217.742188 C 307.941406 205.234375 334.789062 198.121094 362.742188 194.90625 C 365.367188 194.605469 368.046875 194.242188 370.652344 194.46875 C 372.726562 194.652344 374.894531 195.394531 376.710938 196.429688 C 378.957031 197.714844 379.839844 200.113281 379.527344 202.664062 C 379.199219 205.316406 377.390625 206.9375 374.921875 207.679688 C 373.320312 208.164062 371.632812 208.378906 369.972656 208.644531 C 362.371094 209.855469 354.730469 210.84375 347.171875 212.277344 C 325.746094 216.332031 305.300781 223.292969 286.253906 233.988281 C 247.503906 255.742188 221.890625 288.160156 208.511719 330.410156 C 196.851562 367.242188 196.957031 404.296875 206.601562 441.464844 C 214 469.960938 226.339844 496.179688 243.882812 519.84375 C 257.183594 537.789062 273.273438 552.839844 291.917969 565.1875 C 303.789062 573.050781 316.21875 579.816406 329.3125 585.386719 C 331.082031 586.140625 332.863281 586.90625 334.523438 587.871094 C 338.035156 589.910156 339.589844 594.109375 338.355469 597.820312 C 337.238281 601.183594 333.765625 603.601562 329.894531 603.265625 C 327.78125 603.078125 325.636719 602.433594 323.664062 601.617188 C 301.0625 592.210938 280.382812 579.703125 261.824219 563.65625 C 242.117188 546.617188 226.175781 526.539062 213.570312 503.863281 C 198.230469 476.265625 187.707031 446.9375 184.101562 415.414062 C 182.980469 405.628906 182.628906 395.753906 182.203125 389.820312 Z M 182.203125 389.820312 " fill-opacity="1" fill-rule="evenodd"/></g><g clip-path="url(#fa738d5cc5)"><path fill="#ffffff" d="M 627.789062 419.019531 C 626.703125 465.375 611.460938 506.339844 581.527344 541.535156 C 548.578125 580.269531 506.761719 604.34375 456.96875 614.574219 C 452.964844 615.398438 448.933594 616.117188 444.882812 616.644531 C 442.765625 616.921875 440.53125 616.957031 438.433594 616.59375 C 434.585938 615.925781 432.09375 612.859375 431.847656 609.066406 C 431.59375 605.09375 433.519531 602.121094 437.4375 600.832031 C 439.253906 600.238281 441.183594 599.949219 443.078125 599.636719 C 459.75 596.882812 475.933594 592.433594 491.582031 586.007812 C 506.5625 579.855469 520.546875 571.976562 533.695312 562.542969 C 555.285156 547.050781 573.257812 528.179688 586.585938 505.15625 C 603.328125 476.242188 612.082031 445.148438 611.328125 411.519531 C 610.824219 388.886719 606.148438 367.179688 597.957031 346.152344 C 597 343.691406 595.964844 341.230469 595.332031 338.679688 C 594.460938 335.152344 595.496094 332.414062 597.800781 331 C 600.316406 329.457031 604.136719 329.613281 606.5625 331.835938 C 608.109375 333.246094 609.457031 335.097656 610.304688 337.011719 C 618.144531 354.726562 623.3125 373.222656 625.613281 392.449219 C 626.671875 401.265625 627.082031 410.164062 627.789062 419.019531 Z M 627.789062 419.019531 " fill-opacity="1" fill-rule="evenodd"/></g><g clip-path="url(#4c8219fbd1)"><path fill="#ffffff" d="M 416.28125 287.898438 C 414.449219 289.113281 413.390625 290.074219 412.144531 290.589844 C 403.027344 294.339844 393.851562 297.949219 384.742188 301.714844 C 381.640625 302.996094 378.632812 303.117188 375.703125 301.550781 C 372.96875 300.085938 370.066406 298.71875 367.765625 296.707031 C 364.191406 293.582031 363.625 289.777344 365.921875 285.617188 C 367.417969 282.914062 369.34375 280.378906 371.429688 278.082031 C 377.425781 271.476562 382.992188 264.5625 387.734375 256.992188 C 392.101562 250.007812 395.441406 242.582031 397.570312 234.621094 C 399.484375 227.460938 399.523438 220.390625 396.835938 213.363281 C 395.894531 210.90625 395.023438 208.351562 394.660156 205.765625 C 393.78125 199.488281 397.253906 194.773438 403.425781 193.824219 C 408.613281 193.027344 412.917969 194.984375 416.164062 199.019531 C 419.386719 203.027344 419.433594 207.398438 417.023438 211.835938 C 415.878906 213.949219 414.554688 215.96875 413.445312 218.097656 C 411.871094 221.121094 410.789062 224.296875 411.066406 227.785156 C 411.484375 232.984375 416.332031 235.464844 420.339844 232.203125 C 423.472656 229.648438 426.480469 226.6875 428.730469 223.355469 C 431.945312 218.605469 434.820312 213.527344 437.113281 208.273438 C 441.03125 199.296875 452.167969 199.753906 457.136719 204.632812 C 458.777344 206.242188 460.078125 208.476562 460.808594 210.667969 C 462.21875 214.890625 460.675781 218.890625 456.980469 221.402344 C 455.414062 222.46875 453.578125 223.167969 451.824219 223.941406 C 444.242188 227.277344 437.5625 231.917969 431.769531 237.8125 C 430.441406 239.167969 429.15625 240.691406 428.3125 242.371094 C 426.703125 245.582031 428.589844 248.992188 432.140625 249.214844 C 434.25 249.34375 436.503906 249.09375 438.519531 248.457031 C 442.410156 247.230469 446.214844 245.710938 449.980469 244.128906 C 453.984375 242.453125 457.90625 242.347656 461.871094 244.113281 C 464.355469 245.222656 466.386719 246.898438 467.730469 249.265625 C 469.925781 253.125 470.144531 257.074219 467.648438 260.871094 C 465.296875 264.441406 461.691406 265.867188 457.636719 265.257812 C 454.097656 264.726562 450.636719 263.554688 447.203125 262.472656 C 442.34375 260.941406 437.441406 259.867188 432.3125 260.242188 C 421.859375 261.011719 412.8125 265.105469 404.945312 271.910156 C 403.863281 272.847656 402.949219 274 402.0625 275.136719 C 397.660156 280.769531 398.554688 283.402344 405.515625 285.015625 C 407.847656 285.558594 410.28125 285.667969 412.628906 286.164062 C 413.65625 286.382812 414.585938 287.074219 416.28125 287.898438 Z M 416.28125 287.898438 " fill-opacity="1" fill-rule="evenodd"/></g><path fill="#ffffff" d="M 283.824219 362.570312 C 283.058594 359.738281 282.359375 357.972656 282.121094 356.144531 C 280.289062 341.988281 274.035156 330.128906 263.703125 320.378906 C 260.8125 317.652344 258.71875 314.566406 258.144531 310.566406 C 257.03125 302.824219 262.214844 296.28125 269.984375 295.429688 C 282.023438 294.109375 289.617188 305.074219 287.496094 313.757812 C 286.109375 319.429688 286.535156 325.230469 287.5 330.945312 C 287.855469 333.046875 288.402344 335.230469 289.394531 337.097656 C 291.972656 341.96875 298.742188 342.554688 301.515625 337.132812 C 302.167969 335.855469 302.773438 334.535156 303.238281 333.175781 C 306.675781 323.121094 308.78125 312.804688 309.121094 302.15625 C 309.191406 300 309.234375 297.816406 309.609375 295.699219 C 310.746094 289.238281 314.820312 285.613281 321.367188 285.007812 C 327.820312 284.410156 334.007812 287.683594 337 293.273438 C 339.890625 298.671875 339.21875 304.230469 335 309.304688 C 331.929688 312.992188 328.492188 316.414062 325.777344 320.339844 C 322.109375 325.660156 318.8125 331.257812 315.675781 336.917969 C 314.003906 339.941406 311.992188 342.472656 309.246094 344.519531 C 302.511719 349.542969 295.835938 354.648438 289.082031 359.644531 C 287.78125 360.609375 286.242188 361.242188 283.824219 362.570312 Z M 283.824219 362.570312 " fill-opacity="1" fill-rule="evenodd"/><path fill="#354b43" d="M 515.855469 328.789062 C 515.316406 328.828125 514.777344 328.851562 514.226562 328.851562 C 502.765625 328.851562 493.472656 319.558594 493.472656 308.097656 C 493.472656 298.855469 499.519531 291.023438 507.871094 288.339844 C 503.613281 295.066406 499.210938 309.070312 515.855469 328.789062 Z M 515.855469 328.789062 " fill-opacity="1" fill-rule="evenodd"/><path fill="#354b43" d="M 529.328125 321.289062 C 529.328125 321.285156 529.335938 321.28125 529.339844 321.277344 C 529.335938 321.28125 529.328125 321.285156 529.328125 321.285156 C 530.050781 316.40625 530.234375 306.785156 524.773438 293.257812 C 524.257812 291.980469 523.691406 290.667969 523.074219 289.320312 C 530.113281 292.640625 534.980469 299.800781 534.980469 308.097656 C 534.980469 313.71875 532.746094 318.820312 529.113281 322.558594 C 529.183594 322.179688 529.257812 321.753906 529.328125 321.289062 Z M 529.328125 321.289062 " fill-opacity="1" fill-rule="evenodd"/><path fill="#354b43" d="M 529.339844 321.277344 C 529.335938 321.28125 529.328125 321.285156 529.328125 321.289062 L 529.328125 321.285156 C 529.328125 321.285156 529.335938 321.28125 529.339844 321.277344 Z M 529.339844 321.277344 " fill-opacity="1" fill-rule="evenodd"/><g clip-path="url(#bcca676f89)"><path fill="#ffffff" d="M 357.132812 660.097656 L 357.003906 660.261719 C 356.871094 660.4375 356.738281 660.613281 356.605469 660.785156 C 353.386719 664.96875 350.625 668.652344 348.355469 671.785156 C 342.9375 679.25 341.515625 681.933594 341.15625 682.882812 C 341.148438 682.902344 341.140625 682.925781 341.132812 682.945312 L 340.652344 684.28125 C 340.585938 684.472656 340.492188 684.65625 340.378906 684.824219 C 340.261719 684.992188 340.128906 685.144531 339.972656 685.277344 C 339.820312 685.410156 339.648438 685.523438 339.464844 685.613281 C 339.285156 685.707031 339.09375 685.769531 338.890625 685.8125 C 338.691406 685.855469 338.488281 685.871094 338.285156 685.859375 C 338.082031 685.847656 337.882812 685.8125 337.6875 685.75 C 337.492188 685.6875 337.308594 685.601562 337.136719 685.492188 C 336.960938 685.382812 336.808594 685.253906 336.667969 685.105469 C 336.628906 685.066406 336.59375 685.027344 336.5625 684.984375 L 333.058594 680.691406 C 332.445312 679.9375 330.691406 678.628906 328.480469 677.492188 C 328.179688 677.335938 327.867188 677.1875 327.550781 677.039062 C 327.269531 676.90625 326.996094 676.789062 326.738281 676.679688 C 324.269531 675.652344 322.800781 675.589844 322.433594 675.746094 L 322.316406 675.824219 C 326.925781 678.699219 334.25 684.976562 338.097656 689.714844 C 338.457031 690.15625 338.789062 690.585938 339.082031 691 C 340.046875 689.5625 341.464844 687.90625 342.992188 686.261719 C 345.699219 683.347656 349.011719 680.199219 351.757812 677.648438 C 351.84375 677.566406 351.933594 677.484375 352.023438 677.402344 L 352.125 677.308594 C 352.25 677.191406 352.375 677.074219 352.503906 676.960938 L 352.585938 676.882812 C 352.722656 676.753906 352.863281 676.628906 353 676.5 L 353.023438 676.480469 C 358.246094 671.675781 364.714844 666.011719 372.28125 659.621094 C 372.285156 659.617188 372.289062 659.613281 372.296875 659.609375 C 376.851562 655.761719 380.675781 652.605469 382.738281 650.910156 L 374.582031 638.03125 C 371.566406 641.761719 365.695312 649.070312 359.722656 656.753906 C 358.816406 657.917969 357.953125 659.035156 357.132812 660.097656 Z M 357.132812 660.097656 " fill-opacity="1" fill-rule="nonzero"/></g><path fill="#ffffff" d="M 375.824219 670.632812 C 375.808594 670.804688 375.789062 670.972656 375.773438 671.140625 C 375.75 671.390625 375.726562 671.636719 375.699219 671.882812 C 375.6875 672 375.671875 672.117188 375.660156 672.234375 C 375.453125 674.105469 375.1875 675.96875 374.867188 677.824219 L 374.863281 677.839844 C 374.800781 678.207031 374.734375 678.570312 374.664062 678.9375 C 374.660156 678.96875 374.652344 679 374.648438 679.03125 C 374.582031 679.386719 374.511719 679.742188 374.441406 680.097656 C 374.433594 680.136719 374.425781 680.171875 374.417969 680.210938 C 374.347656 680.566406 374.273438 680.921875 374.195312 681.277344 C 374.1875 681.3125 374.179688 681.34375 374.175781 681.378906 C 374.097656 681.742188 374.015625 682.101562 373.933594 682.464844 L 373.917969 682.53125 C 373.832031 682.90625 373.742188 683.28125 373.652344 683.652344 L 373.652344 683.660156 C 371.472656 692.648438 367.996094 701.105469 363.226562 709.03125 L 501.917969 709.03125 L 501.917969 670.460938 L 375.839844 670.460938 C 375.835938 670.519531 375.828125 670.574219 375.824219 670.632812 Z M 480.261719 680.953125 L 484.835938 680.953125 C 486.085938 680.929688 487.253906 681.226562 488.34375 681.835938 C 489.394531 682.433594 490.199219 683.273438 490.757812 684.347656 C 491.335938 685.433594 491.625 686.664062 491.625 688.046875 L 491.625 688.730469 C 491.625 690.113281 491.34375 691.34375 490.773438 692.417969 C 490.21875 693.488281 489.417969 694.324219 488.367188 694.917969 C 487.28125 695.53125 486.113281 695.832031 484.867188 695.816406 L 480.261719 695.816406 Z M 467.453125 680.953125 L 477.398438 680.953125 L 477.398438 683.433594 L 470.515625 683.433594 L 470.515625 686.976562 L 476.398438 686.976562 L 476.398438 689.355469 L 470.515625 689.355469 L 470.515625 693.355469 L 477.417969 693.355469 L 477.417969 695.816406 L 467.453125 695.816406 Z M 460.503906 680.953125 L 463.570312 680.953125 L 463.570312 695.816406 L 460.503906 695.816406 Z M 447.808594 680.953125 L 457.488281 680.953125 L 457.488281 683.433594 L 450.875 683.433594 L 450.875 687.273438 L 456.753906 687.273438 L 456.753906 689.742188 L 450.875 689.742188 L 450.875 695.816406 L 447.808594 695.816406 Z M 440.863281 680.953125 L 443.925781 680.953125 L 443.925781 695.816406 L 440.863281 695.816406 Z M 425.765625 680.953125 L 437.875 680.953125 L 437.875 683.433594 L 433.320312 683.433594 L 433.320312 695.816406 L 430.257812 695.816406 L 430.257812 683.433594 L 425.765625 683.433594 Z M 412.804688 680.953125 L 418.328125 680.953125 C 420.085938 680.953125 421.441406 681.34375 422.394531 682.125 C 423.347656 682.910156 423.824219 684.015625 423.824219 685.445312 C 423.824219 686.457031 423.601562 687.304688 423.164062 687.980469 C 422.726562 688.660156 422.058594 689.199219 421.167969 689.601562 L 424.382812 695.675781 L 424.382812 695.816406 L 421.097656 695.816406 L 418.308594 690.375 L 415.867188 690.375 L 415.867188 695.816406 L 412.804688 695.816406 Z M 399.996094 680.953125 L 409.941406 680.953125 L 409.941406 683.433594 L 403.058594 683.433594 L 403.058594 686.976562 L 408.941406 686.976562 L 408.941406 689.355469 L 403.058594 689.355469 L 403.058594 693.355469 L 409.960938 693.355469 L 409.960938 695.816406 L 399.996094 695.816406 Z M 384.820312 687.90625 C 384.820312 686.476562 385.070312 685.214844 385.574219 684.125 C 386.039062 683.070312 386.757812 682.234375 387.734375 681.621094 C 388.671875 681.039062 389.757812 680.746094 390.996094 680.746094 C 392.710938 680.746094 394.09375 681.207031 395.144531 682.125 C 396.191406 683.042969 396.796875 684.335938 396.960938 685.996094 L 393.898438 685.996094 C 393.820312 685.035156 393.554688 684.339844 393.09375 683.90625 C 392.636719 683.476562 391.9375 683.257812 390.996094 683.257812 C 389.976562 683.257812 389.210938 683.625 388.703125 684.355469 C 388.199219 685.089844 387.9375 686.222656 387.921875 687.761719 L 387.921875 688.886719 C 387.921875 690.492188 388.167969 691.664062 388.652344 692.40625 C 389.140625 693.148438 389.90625 693.519531 390.957031 693.519531 C 391.902344 693.519531 392.609375 693.304688 393.074219 692.871094 C 393.542969 692.441406 393.808594 691.769531 393.875 690.867188 L 396.941406 690.867188 C 396.824219 692.464844 396.234375 693.726562 395.167969 694.644531 C 394.101562 695.5625 392.699219 696.023438 390.957031 696.023438 C 389.050781 696.023438 387.550781 695.378906 386.457031 694.097656 C 385.367188 692.816406 384.820312 691.054688 384.820312 688.8125 Z M 384.820312 687.90625 " fill-opacity="1" fill-rule="nonzero"/><path fill="#ffffff" d="M 420.125 687.308594 C 420.546875 686.914062 420.757812 686.375 420.757812 685.6875 C 420.757812 684.988281 420.558594 684.4375 420.164062 684.035156 C 419.765625 683.632812 419.152344 683.433594 418.328125 683.433594 L 415.867188 683.433594 L 415.867188 687.894531 L 418.339844 687.894531 C 419.109375 687.894531 419.703125 687.699219 420.125 687.308594 Z M 420.125 687.308594 " fill-opacity="1" fill-rule="nonzero"/><path fill="#ffffff" d="M 487.550781 692.183594 C 488.183594 691.398438 488.507812 690.28125 488.523438 688.824219 L 488.523438 688.039062 C 488.523438 686.527344 488.207031 685.382812 487.582031 684.601562 C 486.957031 683.820312 486.039062 683.433594 484.835938 683.433594 L 483.324219 683.433594 L 483.324219 693.355469 L 484.804688 693.355469 C 486.003906 693.355469 486.917969 692.964844 487.550781 692.183594 Z M 487.550781 692.183594 " fill-opacity="1" fill-rule="nonzero"/><g clip-path="url(#5a420ec0f9)"><path fill="#ffffff" d="M 367.949219 686.519531 C 368.328125 685.222656 368.679688 683.914062 369 682.597656 C 369.023438 682.507812 369.042969 682.421875 369.066406 682.332031 C 369.132812 682.050781 369.199219 681.765625 369.265625 681.484375 C 369.285156 681.390625 369.308594 681.300781 369.328125 681.207031 C 369.457031 680.636719 369.578125 680.070312 369.695312 679.496094 C 369.707031 679.441406 369.71875 679.386719 369.730469 679.332031 C 369.78125 679.082031 369.828125 678.832031 369.878906 678.578125 C 369.90625 678.425781 369.9375 678.269531 369.964844 678.117188 C 370.011719 677.878906 370.054688 677.636719 370.097656 677.398438 C 370.128906 677.226562 370.160156 677.054688 370.1875 676.882812 C 370.25 676.535156 370.304688 676.183594 370.363281 675.835938 C 370.398438 675.597656 370.4375 675.359375 370.472656 675.121094 C 370.503906 674.914062 370.535156 674.707031 370.566406 674.5 C 370.59375 674.292969 370.625 674.082031 370.652344 673.871094 C 370.679688 673.667969 370.707031 673.464844 370.734375 673.265625 C 370.765625 673.027344 370.792969 672.789062 370.820312 672.554688 C 370.84375 672.378906 370.863281 672.207031 370.882812 672.03125 C 370.929688 671.644531 370.96875 671.257812 371.007812 670.871094 C 371.023438 670.714844 371.039062 670.554688 371.054688 670.398438 C 371.078125 670.128906 371.101562 669.855469 371.125 669.582031 C 371.140625 669.425781 371.152344 669.265625 371.164062 669.105469 C 371.191406 668.792969 371.214844 668.480469 371.234375 668.164062 C 371.269531 667.675781 371.300781 667.183594 371.324219 666.691406 C 369.660156 668.117188 367.945312 669.59375 366.222656 671.09375 C 360.996094 675.644531 356.90625 679.34375 353.707031 682.347656 L 353.699219 682.355469 C 353.605469 682.445312 353.511719 682.535156 353.414062 682.625 C 345.542969 690.054688 343.257812 693.132812 342.613281 694.355469 L 342.597656 694.382812 C 342.59375 694.394531 342.585938 694.402344 342.582031 694.414062 C 342.566406 694.441406 342.554688 694.46875 342.542969 694.492188 L 341.503906 696.632812 C 341.320312 697.015625 341.050781 697.324219 340.703125 697.5625 C 340.351562 697.804688 339.964844 697.9375 339.542969 697.972656 C 339.484375 697.976562 339.429688 697.976562 339.371094 697.976562 C 339.367188 697.976562 339.363281 697.976562 339.359375 697.976562 C 339.320312 697.976562 339.285156 697.976562 339.246094 697.972656 C 339.238281 697.972656 339.230469 697.972656 339.222656 697.972656 C 339.070312 697.964844 338.917969 697.941406 338.769531 697.902344 C 338.761719 697.902344 338.75 697.898438 338.742188 697.894531 C 338.703125 697.886719 338.664062 697.875 338.628906 697.863281 C 338.613281 697.859375 338.597656 697.851562 338.585938 697.847656 C 338.554688 697.835938 338.519531 697.824219 338.488281 697.8125 C 338.472656 697.804688 338.457031 697.796875 338.4375 697.792969 C 338.410156 697.78125 338.382812 697.765625 338.351562 697.753906 C 338.335938 697.746094 338.316406 697.738281 338.300781 697.726562 C 338.273438 697.714844 338.246094 697.703125 338.21875 697.6875 C 338.203125 697.675781 338.183594 697.667969 338.167969 697.65625 C 338.140625 697.640625 338.117188 697.628906 338.09375 697.613281 C 338.074219 697.601562 338.054688 697.589844 338.039062 697.578125 C 338.015625 697.5625 337.992188 697.546875 337.96875 697.53125 C 337.953125 697.515625 337.933594 697.503906 337.914062 697.488281 C 337.894531 697.472656 337.871094 697.457031 337.851562 697.4375 C 337.835938 697.425781 337.816406 697.410156 337.800781 697.394531 C 337.777344 697.378906 337.757812 697.359375 337.738281 697.339844 C 337.722656 697.324219 337.703125 697.308594 337.6875 697.292969 C 337.667969 697.273438 337.648438 697.253906 337.628906 697.234375 C 337.613281 697.21875 337.597656 697.203125 337.585938 697.1875 C 337.5625 697.164062 337.546875 697.140625 337.527344 697.117188 C 337.511719 697.101562 337.5 697.085938 337.488281 697.070312 C 337.460938 697.039062 337.4375 697.003906 337.414062 696.972656 C 337.40625 696.964844 337.402344 696.957031 337.394531 696.945312 L 335.332031 693.957031 C 334.445312 692.671875 332.988281 691.035156 331.257812 689.304688 L 331.25 689.300781 L 331.234375 689.285156 C 327.421875 685.480469 322.285156 681.246094 318.996094 679.398438 L 317.828125 678.742188 L 316.664062 678.089844 C 316.484375 677.992188 316.324219 677.871094 316.179688 677.730469 C 316.03125 677.589844 315.90625 677.433594 315.800781 677.261719 C 315.691406 677.089844 315.609375 676.90625 315.550781 676.710938 C 315.492188 676.519531 315.457031 676.320312 315.449219 676.117188 C 315.4375 675.914062 315.453125 675.714844 315.496094 675.515625 C 315.539062 675.316406 315.605469 675.128906 315.695312 674.945312 C 315.785156 674.765625 315.898438 674.597656 316.03125 674.445312 C 316.164062 674.292969 316.3125 674.15625 316.480469 674.042969 L 319.757812 671.796875 C 321.152344 670.839844 323.09375 670.660156 325.542969 671.253906 L 325.5625 671.257812 C 325.675781 671.289062 325.796875 671.316406 325.914062 671.351562 C 327.050781 671.667969 328.15625 672.070312 329.230469 672.5625 C 330.210938 673.003906 331.164062 673.496094 332.09375 674.042969 C 332.183594 674.09375 332.269531 674.144531 332.359375 674.199219 C 334.117188 675.25 335.785156 676.492188 336.753906 677.675781 L 337.789062 678.945312 C 338.554688 677.601562 339.847656 675.550781 342.109375 672.324219 C 346.554688 665.953125 352.578125 658.148438 356.230469 653.46875 L 339.761719 643.964844 L 308.089844 662.25 L 308.089844 662.339844 C 308.09375 665.347656 308.25 668.351562 308.570312 671.34375 C 308.886719 674.335938 309.359375 677.304688 309.988281 680.25 C 310.621094 683.191406 311.402344 686.09375 312.335938 688.957031 C 313.273438 691.816406 314.355469 694.621094 315.585938 697.367188 C 316.816406 700.117188 318.1875 702.792969 319.699219 705.394531 C 321.210938 707.996094 322.855469 710.511719 324.632812 712.941406 C 326.410156 715.371094 328.308594 717.703125 330.332031 719.933594 C 332.351562 722.160156 334.488281 724.28125 336.730469 726.285156 L 339.761719 728.988281 L 342.792969 726.285156 C 345.761719 723.636719 348.53125 720.792969 351.101562 717.761719 C 353.671875 714.726562 356.019531 711.53125 358.144531 708.167969 C 360.273438 704.808594 362.15625 701.316406 363.796875 697.695312 C 365.4375 694.070312 366.816406 690.351562 367.941406 686.539062 C 367.945312 686.53125 367.945312 686.527344 367.949219 686.519531 Z M 367.949219 686.519531 " fill-opacity="1" fill-rule="nonzero"/></g><g fill="#ffffff" fill-opacity="1"><g transform="translate(172.521309, 288.046454)"><g><path d="M -11.90625 -27.71875 L -10.03125 -30.484375 C -8.269531 -33.078125 -7.46875 -35.359375 -7.625 -37.328125 C -7.78125 -39.304688 -8.835938 -40.960938 -10.796875 -42.296875 C -12.765625 -43.628906 -14.585938 -44.078125 -16.265625 -43.640625 C -17.941406 -43.203125 -19.5625 -41.835938 -21.125 -39.546875 L -23.71875 -35.71875 Z M -5.3125 -51.015625 C -1.039062 -48.109375 1.316406 -44.550781 1.765625 -40.34375 C 2.222656 -36.132812 0.78125 -31.566406 -2.5625 -26.640625 L -5 -23.03125 L 9.125 -13.4375 L 3.390625 -5 L -36.34375 -31.96875 L -27.71875 -44.671875 C -24.445312 -49.484375 -20.921875 -52.441406 -17.140625 -53.546875 C -13.367188 -54.648438 -9.425781 -53.804688 -5.3125 -51.015625 Z M -5.3125 -51.015625 "/></g></g></g><g fill="#ffffff" fill-opacity="1"><g transform="translate(194.297931, 255.8287)"><g><path d="M 22.5625 -25.03125 L 4.046875 -4.484375 L -31.625 -36.640625 L -13.109375 -57.1875 L -6.921875 -51.609375 L -18.609375 -38.640625 L -10.765625 -31.578125 L 0.109375 -43.640625 L 6.296875 -38.046875 L -4.578125 -25.984375 L 4.625 -17.6875 L 16.3125 -30.65625 Z M 22.5625 -25.03125 "/></g></g></g><g fill="#ffffff" fill-opacity="1"><g transform="translate(216.335973, 230.011131)"><g><path d="M 23.421875 -49.953125 C 28.421875 -43.773438 30.734375 -37.785156 30.359375 -31.984375 C 29.984375 -26.179688 26.9375 -20.96875 21.21875 -16.34375 C 15.5 -11.707031 9.757812 -9.804688 4 -10.640625 C -1.75 -11.484375 -7.132812 -15.007812 -12.15625 -21.21875 C -17.195312 -27.4375 -19.503906 -33.425781 -19.078125 -39.1875 C -18.660156 -44.945312 -15.582031 -50.148438 -9.84375 -54.796875 C -4.113281 -59.441406 1.609375 -61.34375 7.328125 -60.5 C 13.046875 -59.65625 18.410156 -56.140625 23.421875 -49.953125 Z M -3.8125 -27.90625 C -0.4375 -23.726562 2.894531 -21.222656 6.1875 -20.390625 C 9.476562 -19.566406 12.695312 -20.429688 15.84375 -22.984375 C 22.15625 -28.085938 21.914062 -34.835938 15.125 -43.234375 C 8.3125 -51.640625 1.765625 -53.300781 -4.515625 -48.21875 C -7.660156 -45.664062 -9.171875 -42.679688 -9.046875 -39.265625 C -8.929688 -35.859375 -7.1875 -32.070312 -3.8125 -27.90625 Z M -3.8125 -27.90625 "/></g></g></g><g fill="#ffffff" fill-opacity="1"><g transform="translate(254.916154, 198.947015)"><g><path d="M 1.578125 -30.125 L 4.484375 -31.765625 C 7.210938 -33.316406 8.945312 -35.015625 9.6875 -36.859375 C 10.425781 -38.703125 10.210938 -40.648438 9.046875 -42.703125 C 7.859375 -44.785156 6.414062 -46 4.71875 -46.34375 C 3.019531 -46.695312 0.960938 -46.1875 -1.453125 -44.8125 L -5.46875 -42.53125 Z M 17.796875 -48.09375 C 20.347656 -43.601562 20.894531 -39.367188 19.4375 -35.390625 C 17.988281 -31.421875 14.671875 -27.960938 9.484375 -25.015625 L 5.703125 -22.875 L 14.125 -8.015625 L 5.265625 -2.984375 L -18.4375 -44.75 L -5.09375 -52.328125 C -0.03125 -55.203125 4.4375 -56.296875 8.3125 -55.609375 C 12.1875 -54.921875 15.347656 -52.414062 17.796875 -48.09375 Z M 17.796875 -48.09375 "/></g></g></g><g fill="#ffffff" fill-opacity="1"><g transform="translate(288.682237, 179.684786)"><g><path d="M 5.625 -2.234375 L -12.125 -46.875 L -2.65625 -50.640625 L 11.984375 -13.8125 L 30.0625 -21 L 33.171875 -13.1875 Z M 5.625 -2.234375 "/></g></g></g><g fill="#ffffff" fill-opacity="1"><g transform="translate(320.975193, 166.636317)"><g><path d="M 32.671875 -8.28125 L 5.859375 -1.484375 L -5.953125 -48.046875 L 20.859375 -54.84375 L 22.90625 -46.75 L 5.96875 -42.453125 L 8.5625 -32.234375 L 24.3125 -36.234375 L 26.375 -28.140625 L 10.625 -24.140625 L 13.671875 -12.125 L 30.609375 -16.421875 Z M 32.671875 -8.28125 "/></g></g></g><g fill="#ffffff" fill-opacity="1"><g transform="translate(355.298815, 158.308166)"><g/></g></g><g fill="#ffffff" fill-opacity="1"><g transform="translate(369.625124, 154.947586)"><g><path d="M 50.4375 -1.875 L 38.046875 -1.40625 L 34.125 -4.984375 C 30.0625 -1.921875 25.394531 -0.289062 20.125 -0.09375 C 14.78125 0.101562 10.492188 -0.960938 7.265625 -3.296875 C 4.046875 -5.628906 2.359375 -8.882812 2.203125 -13.0625 C 2.085938 -16.0625 2.65625 -18.640625 3.90625 -20.796875 C 5.15625 -22.960938 7.351562 -25.023438 10.5 -26.984375 C 8.789062 -28.804688 7.53125 -30.5625 6.71875 -32.25 C 5.914062 -33.9375 5.476562 -35.796875 5.40625 -37.828125 C 5.28125 -41.160156 6.453125 -43.890625 8.921875 -46.015625 C 11.390625 -48.148438 14.757812 -49.300781 19.03125 -49.46875 C 23.101562 -49.613281 26.394531 -48.78125 28.90625 -46.96875 C 31.414062 -45.164062 32.726562 -42.675781 32.84375 -39.5 C 32.9375 -36.894531 32.269531 -34.488281 30.84375 -32.28125 C 29.425781 -30.082031 27.066406 -27.945312 23.765625 -25.875 L 33.40625 -17.125 C 34.875 -19.738281 36.101562 -23.078125 37.09375 -27.140625 L 47.53125 -27.53125 C 46.851562 -24.550781 45.875 -21.628906 44.59375 -18.765625 C 43.320312 -15.898438 41.851562 -13.351562 40.1875 -11.125 Z M 12.703125 -14.390625 C 12.773438 -12.523438 13.539062 -11.0625 15 -10 C 16.457031 -8.9375 18.289062 -8.441406 20.5 -8.515625 C 23.257812 -8.617188 25.71875 -9.378906 27.875 -10.796875 L 16.5625 -21.21875 C 15.332031 -20.21875 14.367188 -19.175781 13.671875 -18.09375 C 12.972656 -17.007812 12.648438 -15.773438 12.703125 -14.390625 Z M 23.640625 -38.109375 C 23.585938 -39.273438 23.15625 -40.175781 22.34375 -40.8125 C 21.539062 -41.457031 20.515625 -41.753906 19.265625 -41.703125 C 17.796875 -41.648438 16.648438 -41.253906 15.828125 -40.515625 C 15.015625 -39.785156 14.628906 -38.773438 14.671875 -37.484375 C 14.742188 -35.554688 15.863281 -33.476562 18.03125 -31.25 C 19.882812 -32.363281 21.289062 -33.445312 22.25 -34.5 C 23.21875 -35.550781 23.679688 -36.753906 23.640625 -38.109375 Z M 23.640625 -38.109375 "/></g></g></g><g fill="#ffffff" fill-opacity="1"><g transform="translate(417.157629, 153.975439)"><g/></g></g><g fill="#ffffff" fill-opacity="1"><g transform="translate(431.73316, 153.794914)"><g><path d="M 47.65625 9.828125 L 34.96875 7.21875 L 21.84375 -32.578125 L 21.5625 -32.640625 C 20.664062 -26.273438 19.941406 -21.753906 19.390625 -19.078125 L 14.828125 3.0625 L 5.921875 1.21875 L 15.625 -45.828125 L 28.203125 -43.234375 L 41.375 -3.78125 L 41.59375 -3.734375 C 42.53125 -9.910156 43.257812 -14.265625 43.78125 -16.796875 L 48.375 -39.0625 L 57.359375 -37.21875 Z M 47.65625 9.828125 "/></g></g></g><g fill="#ffffff" fill-opacity="1"><g transform="translate(481.176717, 163.987567)"><g><path d="M 32.96875 13.046875 L 33.921875 1.125 L 17.640625 -5.3125 L 10.203125 4.03125 L 0 0 L 33.515625 -38.609375 L 45.09375 -34.015625 L 43.15625 17.09375 Z M 34.796875 -7.6875 C 35.628906 -18.507812 36.101562 -24.628906 36.21875 -26.046875 C 36.34375 -27.460938 36.472656 -28.566406 36.609375 -29.359375 C 34.890625 -27.015625 30.40625 -21.328125 23.15625 -12.296875 Z M 34.796875 -7.6875 "/></g></g></g><g fill="#ffffff" fill-opacity="1"><g transform="translate(520.995694, 179.765181)"><g><path d="M 21.28125 12.296875 L 12.46875 7.203125 L 32.25 -27.046875 L 20.9375 -33.578125 L 25.171875 -40.921875 L 56.578125 -22.78125 L 52.34375 -15.4375 L 41.0625 -21.953125 Z M 21.28125 12.296875 "/></g></g></g><g fill="#ffffff" fill-opacity="1"><g transform="translate(551.899955, 196.749699)"><g><path d="M 65.28125 -9.09375 L 45.78125 15.109375 C 43.5625 17.867188 40.992188 19.789062 38.078125 20.875 C 35.171875 21.957031 32.101562 22.113281 28.875 21.34375 C 25.644531 20.570312 22.4375 18.90625 19.25 16.34375 C 14.4375 12.46875 11.691406 8.222656 11.015625 3.609375 C 10.335938 -0.992188 11.71875 -5.429688 15.15625 -9.703125 L 34.578125 -33.8125 L 42.484375 -27.453125 L 24.03125 -4.5625 C 21.71875 -1.675781 20.597656 0.90625 20.671875 3.1875 C 20.742188 5.46875 22.125 7.6875 24.8125 9.84375 C 27.40625 11.925781 29.828125 12.757812 32.078125 12.34375 C 34.335938 11.925781 36.632812 10.269531 38.96875 7.375 L 57.375 -15.46875 Z M 65.28125 -9.09375 "/></g></g></g><g fill="#ffffff" fill-opacity="1"><g transform="translate(588.45306, 226.095219)"><g><path d="M 30.71875 -5.6875 L 32.90625 -3.25 C 35.050781 -0.84375 37.035156 0.570312 38.859375 1 C 40.679688 1.425781 42.445312 0.867188 44.15625 -0.671875 C 45.863281 -2.179688 46.554688 -3.84375 46.234375 -5.65625 C 45.910156 -7.46875 44.65625 -9.601562 42.46875 -12.0625 L 40.40625 -14.34375 Z M 24.5625 -0.171875 L 10.8125 12.109375 L 4.03125 4.515625 L 39.84375 -27.5 L 49.171875 -17.0625 C 53.515625 -12.207031 55.84375 -7.820312 56.15625 -3.90625 C 56.476562 0.0078125 54.832031 3.582031 51.21875 6.8125 C 49.113281 8.695312 46.722656 9.796875 44.046875 10.109375 C 41.367188 10.421875 38.613281 9.9375 35.78125 8.65625 L 29.609375 33.125 L 22.0625 24.6875 L 28.1875 3.859375 Z M 24.5625 -0.171875 "/></g></g></g><g fill="#ffffff" fill-opacity="1"><g transform="translate(615.754937, 256.632078)"><g><path d="M 18.703125 28.03125 L 3.359375 5.03125 L 43.3125 -21.625 L 58.65625 1.375 L 51.71875 6 L 42.03125 -8.53125 L 33.25 -2.671875 L 42.265625 10.84375 L 35.328125 15.46875 L 26.3125 1.953125 L 16 8.828125 L 25.6875 23.359375 Z M 18.703125 28.03125 "/></g></g></g></svg>