<svg xmlns="http://www.w3.org/2000/svg" xmlns:xlink="http://www.w3.org/1999/xlink" width="1080" zoomAndPan="magnify" viewBox="0 0 810 809.999993" height="1080" preserveAspectRatio="xMidYMid meet" version="1.0"><path fill="#1e0601" d="M 572.835938 643.886719 C 573.542969 644.066406 574.191406 644.300781 574.898438 644.476562 C 576.425781 640.472656 577.957031 636.472656 579.546875 632.46875 C 579.015625 632.292969 578.488281 632.113281 577.898438 631.878906 C 576.25 635.882812 574.542969 639.886719 572.835938 643.886719 Z M 557.589844 610.570312 C 559.296875 606.859375 563.886719 603.679688 560.003906 598.027344 C 559.121094 602.796875 558.355469 606.683594 557.589844 610.570312 Z M 457.160156 430.25 C 457.6875 429.722656 458.21875 429.132812 458.804688 428.605469 C 456.335938 426.132812 453.800781 423.601562 450.800781 420.65625 C 447.679688 429.191406 455.214844 427.25 457.160156 430.25 Z M 574.835938 625.519531 C 575.074219 630.582031 567.183594 633.527344 571.480469 639.648438 C 572.542969 634.941406 578.074219 631.347656 574.835938 625.519531 Z M 580.488281 636.175781 C 580.136719 641.355469 574.308594 644.832031 577.605469 650.363281 C 579.3125 645.949219 585.789062 642.59375 580.488281 636.175781 Z M 564.890625 606.035156 C 564.476562 605.917969 564.066406 605.742188 563.652344 605.625 C 561.355469 611.097656 559.0625 616.515625 556.648438 622.402344 C 556.941406 622.636719 557.707031 623.402344 558.707031 624.34375 C 560.945312 618.164062 565.417969 612.804688 564.890625 606.035156 Z M 395.167969 317.8125 C 395.640625 317.988281 396.050781 318.222656 396.464844 318.460938 C 401.527344 309.214844 406.53125 299.972656 411.59375 290.671875 C 411.003906 290.378906 410.414062 290.085938 409.886719 289.789062 C 404.941406 299.148438 400.054688 308.453125 395.167969 317.8125 Z M 461.457031 238.398438 C 460.925781 237.75 460.335938 237.101562 459.808594 236.453125 C 452.625 243.046875 445.441406 249.582031 438.261719 256.117188 C 438.671875 256.585938 439.144531 257.058594 439.554688 257.589844 C 446.855469 251.171875 454.15625 244.753906 461.457031 238.398438 Z M 414.65625 482.351562 C 413.183594 476.699219 419.128906 471.226562 412.476562 467.632812 C 408.179688 465.339844 403.527344 463.75 398.230469 461.511719 C 403.941406 468.753906 408.828125 474.992188 414.65625 482.351562 Z M 330.117188 317.695312 C 330.234375 318.460938 330.296875 319.222656 330.414062 319.988281 C 345.894531 313.101562 361.320312 315.808594 377.800781 319.402344 C 371.089844 313.457031 364.261719 311.6875 356.492188 312.75 C 353.960938 313.042969 351.371094 313.101562 348.898438 313.574219 C 342.597656 314.867188 336.359375 316.339844 330.117188 317.695312 Z M 451.917969 443.675781 C 455.214844 443.96875 457.863281 444.203125 461.574219 444.5 C 458.335938 442.730469 456.15625 441.4375 453.921875 440.199219 C 454.15625 439.789062 454.390625 439.375 454.566406 438.964844 C 457.570312 440.140625 460.515625 441.261719 463.515625 442.4375 C 463.691406 442.085938 463.871094 441.730469 464.105469 441.378906 C 459.867188 439.199219 455.570312 437.023438 451.332031 434.84375 C 451.566406 434.429688 451.683594 434.019531 451.859375 433.609375 C 455.039062 434.667969 458.21875 435.785156 461.398438 436.84375 C 461.632812 436.316406 461.867188 435.785156 462.101562 435.253906 C 457.980469 433.078125 453.800781 430.898438 449.683594 428.722656 C 445.03125 435.253906 449.269531 439.433594 451.917969 443.675781 Z M 184.0625 531.625 C 172.054688 531.625 161.28125 531.625 149.683594 531.625 C 155.511719 534.449219 160.632812 536.980469 165.8125 539.453125 C 166.34375 539.691406 167.285156 539.394531 167.933594 539.101562 C 172.996094 536.804688 178.058594 534.390625 184.0625 531.625 Z M 585.90625 664.492188 C 585.375 664.140625 584.785156 663.84375 584.316406 663.492188 C 586.964844 657.839844 589.613281 652.1875 592.261719 646.539062 C 591.675781 646.183594 591.027344 645.890625 590.4375 645.535156 C 587.789062 650.011719 585.082031 654.425781 582.019531 659.488281 C 580.902344 653.71875 586.964844 649.835938 584.609375 643.476562 C 582.902344 646.480469 581.609375 648.1875 580.902344 650.070312 C 580.136719 652.011719 579.195312 654.425781 579.722656 656.132812 C 581.429688 661.371094 583.785156 666.375 585.964844 671.5 C 591.734375 662.84375 596.972656 649.011719 595.972656 644.710938 C 592.5 651.421875 589.203125 657.957031 585.90625 664.492188 Z M 427.664062 177.230469 C 428.019531 176.703125 428.371094 176.171875 428.722656 175.640625 C 437.320312 163.632812 445.324219 151.210938 454.625 139.789062 C 459.691406 133.667969 463.75 128.605469 459.042969 120.777344 C 458.746094 120.246094 458.804688 119.480469 458.6875 118.832031 C 451.507812 140.203125 437.378906 157.570312 427.664062 177.230469 Z M 328.648438 160.925781 C 328.234375 160.867188 327.824219 160.808594 327.410156 160.808594 C 326.703125 164.871094 326.292969 168.988281 325.292969 172.992188 C 322.230469 185.296875 319.285156 197.601562 319.992188 210.492188 C 320.226562 214.847656 319.875 219.207031 320.109375 223.5625 C 320.226562 226.152344 320.992188 228.683594 321.464844 231.390625 C 323.878906 207.492188 326.292969 184.179688 328.648438 160.925781 Z M 169.933594 541.398438 C 173.761719 546.28125 178.472656 545.578125 183.476562 542.632812 C 185.535156 541.398438 187.65625 540.277344 189.714844 538.984375 C 194.660156 535.804688 199.605469 532.566406 204.550781 529.328125 C 199.3125 528.917969 194.308594 528.621094 190.1875 530.386719 C 183.121094 533.449219 176.527344 537.746094 169.933594 541.398438 Z M 414.183594 193.125 C 414.476562 193.183594 414.832031 193.304688 415.125 193.363281 C 416.125 190.773438 417.539062 188.242188 418.128906 185.53125 C 420.1875 176.527344 421.894531 167.402344 423.957031 158.394531 C 425.074219 153.566406 426.605469 148.914062 427.960938 144.148438 C 422.132812 148.972656 416.421875 153.035156 416.773438 162.101562 C 417.128906 172.40625 415.125 182.765625 414.183594 193.125 Z M 392.046875 324.582031 C 391.578125 322.285156 391.636719 319.636719 390.519531 317.695312 C 379.097656 297.855469 363.496094 281.3125 347.71875 265.007812 C 346.894531 264.121094 345.128906 264.121094 343.835938 263.710938 C 360.140625 284.199219 380.15625 300.976562 392.046875 324.582031 Z M 389.457031 190.710938 C 388.28125 195.539062 386.398438 199.898438 386.398438 204.3125 C 386.339844 209.316406 387.574219 214.4375 388.8125 219.382812 C 391.285156 229.035156 394.109375 238.574219 396.816406 248.40625 C 397.113281 247.34375 397.699219 246.285156 397.640625 245.34375 C 397.289062 239.691406 397.113281 234.039062 396.230469 228.507812 C 394.226562 216.261719 391.871094 204.078125 389.457031 190.710938 Z M 285.320312 256 C 286.613281 257.175781 287.910156 258.355469 289.203125 259.53125 C 298.386719 267.890625 308.101562 275.71875 316.519531 284.785156 C 321.40625 290.023438 327.46875 291.320312 334.121094 294.851562 C 327.703125 288.789062 321.347656 284.316406 316.929688 278.371094 C 308.808594 267.359375 297.445312 261.472656 285.320312 256 Z M 377.859375 225.859375 C 374.917969 232.980469 377.039062 240.339844 379.097656 247.34375 C 383.335938 261.828125 388.339844 276.074219 392.992188 290.4375 C 393.050781 285.433594 393.460938 280.195312 392.167969 275.367188 C 387.75 258.765625 382.6875 242.339844 377.859375 225.859375 Z M 383.75 207.726562 C 381.570312 213.671875 378.863281 218.558594 381.15625 224.503906 C 382.394531 227.566406 382.277344 231.15625 383.277344 234.277344 C 386.808594 245.402344 390.519531 256.410156 394.167969 267.417969 C 394.699219 267.300781 395.109375 267.183594 395.640625 267.066406 C 391.695312 247.523438 387.808594 228.035156 383.75 207.726562 Z M 213.085938 522.265625 C 213.085938 521.96875 213.144531 521.734375 213.144531 521.441406 C 203.667969 518.613281 194.25 515.730469 184.769531 512.964844 C 178.058594 510.960938 172.113281 512.316406 167.402344 516.789062 C 174.585938 518.378906 181.945312 519.910156 189.183594 521.675781 C 193.011719 522.558594 196.660156 524.679688 200.429688 524.738281 C 204.609375 524.796875 208.847656 523.148438 213.085938 522.265625 Z M 401.054688 172.523438 C 399.40625 175.289062 397.523438 177.703125 396.40625 180.410156 C 394.992188 183.824219 392.933594 187.710938 393.402344 191.066406 C 394.992188 203.3125 397.464844 215.4375 399.585938 227.566406 C 400.113281 227.507812 400.585938 227.449219 401.054688 227.449219 C 401.054688 209.316406 401.054688 191.183594 401.054688 172.523438 Z M 148.269531 271.363281 C 138.96875 263.179688 112.300781 255.292969 99.234375 256.882812 C 114.421875 266.066406 130.492188 271.421875 148.269531 271.363281 Z M 509.023438 515.4375 C 506.253906 509.960938 503.371094 504.074219 500.605469 498.480469 C 500.605469 502.074219 500.605469 506.546875 500.605469 511.019531 C 500.25 511.019531 499.898438 511.078125 499.601562 511.136719 C 499.132812 508.136719 498.660156 505.074219 498.132812 502.011719 C 497.660156 502.074219 497.128906 502.132812 496.660156 502.132812 C 496.660156 506.488281 496.660156 510.902344 496.660156 515.257812 C 496.246094 515.257812 495.894531 515.257812 495.539062 515.316406 C 494.894531 512.140625 494.1875 508.960938 493.304688 504.839844 C 491.007812 516.4375 495.011719 525.089844 500.605469 532.917969 C 503.3125 527.210938 506.019531 521.675781 509.023438 515.4375 Z M 140.914062 526.914062 C 147.386719 529.917969 177.351562 529.386719 192.894531 525.503906 C 185.769531 523.675781 179.53125 521.675781 173.113281 520.617188 C 168.523438 519.851562 163.519531 519.617188 158.984375 520.617188 C 152.6875 522.027344 146.683594 524.855469 140.914062 526.914062 Z M 246.9375 19.699219 C 252.882812 39.949219 258.886719 60.375 264.773438 80.332031 C 264.773438 79.980469 264.832031 78.980469 264.773438 78.039062 C 263.773438 66.5 262.832031 54.960938 261.652344 43.480469 C 261.242188 39.359375 261.066406 34.652344 258.945312 31.472656 C 255.707031 26.878906 250.820312 23.40625 246.9375 19.699219 Z M 618.753906 779.40625 C 615.457031 782.289062 612.925781 784.527344 610.453125 786.765625 C 610.101562 786.46875 609.863281 786.175781 609.570312 785.882812 C 611.632812 783.46875 613.925781 781.289062 615.753906 778.757812 C 617.398438 776.460938 618.519531 773.8125 619.871094 771.28125 C 619.167969 770.8125 618.402344 770.28125 617.695312 769.75 C 614.808594 773.046875 611.867188 776.34375 608.453125 780.171875 C 610.453125 772.164062 620.578125 769.28125 619.34375 762.039062 C 615.574219 765.101562 611.277344 768.515625 607.039062 772.046875 C 606.214844 772.753906 605.390625 773.8125 605.332031 774.8125 C 604.859375 783.527344 604.507812 792.238281 604.15625 801.128906 C 616.222656 793.886719 617.046875 793.121094 616.929688 789 C 613.691406 791.828125 610.570312 794.59375 607.390625 797.300781 C 609.804688 790.648438 617.519531 787.824219 618.753906 779.40625 Z M 331.648438 253.289062 C 332.003906 253.054688 332.414062 252.761719 332.765625 252.464844 C 321.699219 241.222656 317.109375 224.796875 303.804688 215.613281 C 290.910156 206.667969 277.195312 198.894531 263.773438 190.59375 C 263.359375 191.242188 262.949219 191.949219 262.476562 192.597656 C 267.363281 195.953125 271.957031 199.835938 277.195312 202.429688 C 288.96875 208.316406 298.503906 216.851562 307.335938 226.328125 C 315.578125 235.160156 323.523438 244.285156 331.648438 253.289062 Z M 463.457031 134.023438 C 450.09375 146.5625 440.910156 161.984375 431.550781 177.410156 C 441.558594 168.578125 451.390625 159.511719 461.21875 150.503906 C 468.226562 144.089844 468.226562 144.148438 464.398438 135.316406 C 464.164062 134.90625 463.808594 134.550781 463.457031 134.023438 Z M 415.417969 157.273438 C 410.652344 160.570312 405.117188 163.984375 404.824219 170.460938 C 404.292969 184 404.292969 197.484375 404.175781 211.023438 C 404.175781 211.90625 404.589844 212.730469 404.824219 213.613281 C 405.351562 213.671875 405.882812 213.671875 406.414062 213.730469 C 409.414062 194.894531 412.417969 176.113281 415.417969 157.273438 Z M 103.707031 262.355469 C 106.886719 268.242188 109.476562 273.1875 112.242188 278.074219 C 113.007812 279.371094 114.066406 280.902344 115.363281 281.371094 C 124.253906 284.84375 141.148438 281.902344 149.152344 275.542969 C 133.140625 274.660156 118.011719 271.480469 103.707031 262.355469 Z M 372.738281 452.796875 C 380.980469 461.804688 389.753906 471.167969 398.289062 480.761719 C 402.117188 485.058594 405.882812 485.941406 411.0625 483 C 401.527344 465.75 385.75 453.683594 372.738281 452.796875 Z M 212.554688 269.480469 C 196.367188 259.117188 180.945312 248.523438 163.402344 241.636719 C 157.691406 239.398438 153.863281 241.753906 149.390625 244.871094 C 152.449219 245.875 155.101562 246.460938 157.574219 247.582031 C 171.582031 253.703125 185.769531 259.53125 199.429688 266.417969 C 203.726562 268.539062 207.257812 270.597656 212.554688 269.480469 Z M 206.433594 236.691406 C 209.789062 238.339844 213.203125 239.988281 216.5 241.753906 C 229.6875 248.640625 241.578125 257.351562 252.175781 267.773438 C 254.824219 270.363281 256.886719 273.246094 260.945312 273.601562 C 264.242188 273.953125 267.480469 274.601562 270.25 275.074219 C 256.707031 264.183594 242.636719 253.230469 229.039062 241.753906 C 222.269531 236.101562 214.675781 235.6875 206.433594 236.691406 Z M 392.046875 312.453125 C 389.753906 300.679688 387.988281 288.789062 385.042969 277.191406 C 382.101562 265.476562 377.980469 254.054688 374.742188 243.636719 C 372.152344 267.773438 378.683594 290.910156 392.046875 312.453125 Z M 307.277344 212.554688 C 307.511719 212.496094 307.6875 212.4375 307.867188 212.4375 C 302.980469 208.019531 298.445312 203.132812 293.089844 199.425781 C 280.960938 190.949219 268.363281 183.175781 256.0625 174.996094 C 251.527344 171.933594 247.347656 168.34375 242.992188 165.046875 C 245.757812 170.34375 248.878906 175.230469 252.46875 179.644531 C 254.765625 182.414062 257.53125 185.003906 260.59375 186.769531 C 276.078125 195.539062 291.734375 203.957031 307.277344 212.554688 Z M 313.398438 285.140625 C 299.566406 273.128906 286.023438 260.765625 271.777344 249.347656 C 267.539062 245.933594 261.183594 245.109375 255.824219 243.046875 C 268.421875 254.820312 281.433594 265.535156 294.503906 276.191406 C 299.976562 280.605469 305.097656 285.609375 313.398438 285.140625 Z M 122.957031 256.292969 C 123.191406 256.410156 123.78125 256.882812 124.488281 257.175781 C 132.789062 260.765625 141.558594 263.652344 149.390625 268.183594 C 155.925781 271.953125 162.339844 271.953125 169.230469 271.539062 C 171.582031 271.363281 173.9375 270.894531 177.058594 270.480469 C 166.226562 265.652344 156.042969 260.828125 145.621094 256.585938 C 138.203125 253.585938 130.550781 249.464844 122.957031 256.292969 Z M 255.53125 510.3125 C 255.589844 509.84375 255.707031 509.3125 255.765625 508.785156 C 242.285156 503.074219 228.863281 497.246094 215.265625 491.769531 C 208.671875 489.179688 206.847656 490.0625 202.019531 496.246094 C 202.84375 496.539062 203.550781 496.832031 204.257812 497.128906 C 216.089844 501.367188 228.511719 504.425781 239.519531 510.253906 C 245.640625 513.550781 249.878906 512.609375 255.117188 510.550781 C 255.238281 510.492188 255.355469 510.371094 255.53125 510.3125 Z M 136.96875 250.113281 C 148.742188 255.058594 160.398438 260.296875 172.230469 264.828125 C 180.472656 268.007812 188.773438 272.011719 198.664062 269.539062 C 197.484375 268.832031 196.78125 268.242188 195.957031 267.832031 C 182.121094 261.648438 168.226562 255.585938 154.394531 249.289062 C 148.269531 246.460938 142.503906 246.050781 136.96875 250.113281 Z M 280.195312 167.988281 C 280.492188 167.636719 280.84375 167.34375 281.140625 166.988281 C 258.769531 146.03125 238.28125 123.484375 222.503906 96.699219 C 220.679688 104 220.796875 110.0625 225.800781 116.066406 C 237.871094 130.726562 252.058594 143.207031 266.128906 155.746094 C 270.777344 159.867188 275.546875 163.925781 280.195312 167.988281 Z M 455.15625 115.359375 C 451.210938 119.480469 447.679688 124.191406 443.148438 127.605469 C 435.082031 133.667969 431.136719 141.792969 429.019531 151.269531 C 427.371094 158.335938 425.488281 165.339844 423.660156 172.40625 C 436.023438 154.332031 449.5625 137.199219 455.15625 115.359375 Z M 575.957031 551.875 C 587.496094 538.160156 579.722656 505.367188 564.183594 502.074219 C 562.535156 507.253906 557.234375 511.667969 559.296875 517.671875 C 559.828125 517.789062 560.296875 517.910156 560.828125 518.027344 C 561.652344 514.90625 562.476562 511.785156 563.300781 508.664062 C 566.125 513.257812 561.179688 517.96875 564.949219 523.207031 C 565.832031 519.261719 566.476562 516.4375 567.066406 513.609375 C 567.65625 513.726562 568.246094 513.847656 568.773438 513.964844 C 568.246094 517.910156 567.597656 521.910156 567.066406 525.914062 C 567.363281 525.972656 567.714844 526.03125 568.066406 526.089844 C 568.890625 523.558594 569.65625 521.027344 570.480469 518.496094 C 570.894531 518.613281 571.304688 518.671875 571.71875 518.792969 C 571.128906 523.148438 570.480469 527.445312 569.894531 531.800781 C 570.363281 531.859375 570.835938 531.917969 571.304688 531.976562 C 571.953125 529.152344 572.542969 526.386719 573.128906 523.617188 C 573.835938 523.617188 574.542969 523.617188 575.25 523.617188 C 571.480469 533.214844 574.660156 542.28125 575.957031 551.875 Z M 227.507812 139.4375 C 230.746094 147.503906 234.277344 155.332031 241.933594 160.453125 C 259.59375 172.226562 277.136719 184.179688 294.796875 196.011719 C 296.210938 197.011719 297.800781 197.777344 299.386719 198.660156 C 298.445312 192.539062 293.972656 190.183594 289.675781 187.355469 C 267.894531 172.816406 246.347656 158.039062 227.507812 139.4375 Z M 242.285156 275.308594 C 232.984375 273.128906 226.804688 277.484375 220.445312 281.605469 C 198.78125 295.734375 177.589844 310.6875 152.039062 317.398438 C 151.625 317.515625 151.332031 317.871094 150.980469 318.105469 C 151.039062 318.695312 151.15625 319.285156 151.214844 319.871094 C 154.097656 319.988281 157.21875 320.871094 159.808594 320.046875 C 166.34375 317.929688 172.9375 315.632812 178.882812 312.277344 C 199.839844 300.386719 220.5625 288.023438 242.285156 275.308594 Z M 468.578125 218.027344 C 440.261719 241.222656 414.242188 266.183594 398.820312 299.972656 C 400.878906 297.972656 402.234375 295.382812 404 293.144531 C 413.773438 281.019531 423.191406 268.480469 433.726562 256.941406 C 440.910156 249.050781 449.035156 241.636719 457.921875 235.746094 C 463.28125 232.214844 465.929688 228.210938 467.519531 222.621094 C 467.929688 221.089844 468.226562 219.558594 468.578125 218.027344 Z M 362.730469 487.886719 C 362.085938 486.824219 361.613281 486 361.023438 485.292969 C 350.429688 472.285156 338.949219 460.15625 324.46875 451.269531 C 320.699219 448.914062 315.164062 448.617188 311.988281 450.445312 C 323.644531 460.921875 336.0625 471.226562 347.25 482.644531 C 351.898438 487.355469 356.019531 489.535156 362.730469 487.886719 Z M 263.597656 35.828125 C 264.832031 46.894531 266.1875 57.199219 267.128906 67.617188 C 267.894531 76.390625 269.011719 85.335938 268.304688 94.050781 C 267.777344 101.113281 270.484375 106.824219 272.25 113.125 C 272.722656 107.707031 272.484375 102.410156 272.78125 97.109375 C 273.546875 84.101562 274.488281 71.148438 275.488281 58.140625 C 276.195312 48.542969 271.957031 41.597656 263.597656 35.828125 Z M 236.164062 43.953125 C 235.042969 48.25 233.691406 52.546875 232.984375 56.960938 C 232.632812 59.199219 232.75 62.023438 233.808594 64.027344 C 238.871094 73.679688 243.992188 83.277344 249.703125 92.519531 C 255.765625 102.410156 262.535156 111.828125 269.011719 121.484375 C 269.484375 121.246094 269.953125 121.011719 270.425781 120.777344 C 256.589844 96.226562 245.523438 70.5 236.164062 43.953125 Z M 235.808594 270.070312 C 217.324219 259.53125 199.015625 249.40625 181.003906 238.691406 C 174.644531 234.984375 168.933594 234.863281 162.695312 238.339844 C 163.105469 238.632812 163.402344 239.042969 163.8125 239.222656 C 176.351562 245.636719 189.066406 251.640625 201.3125 258.53125 C 212.027344 264.535156 221.738281 272.71875 235.808594 270.070312 Z M 225.09375 81.332031 C 221.738281 88.222656 222.742188 93.695312 227.039062 98.996094 C 230.921875 103.820312 234.160156 109.296875 238.28125 114.007812 C 253 131.195312 267.953125 148.210938 282.847656 165.28125 C 283.554688 164.808594 284.257812 164.28125 284.90625 163.75 C 282.257812 159.628906 280.195312 154.863281 276.722656 151.507812 C 262.535156 137.496094 249.644531 122.601562 239.164062 105.648438 C 234.339844 97.757812 229.921875 89.691406 225.09375 81.332031 Z M 293.679688 280.015625 C 278.609375 267.539062 263.890625 255.292969 249.054688 243.105469 C 245.289062 239.988281 234.339844 237.515625 228.863281 238.398438 C 242.933594 249.109375 256.765625 259.589844 270.542969 270.1875 C 277.3125 275.367188 284.316406 280.136719 293.679688 280.015625 Z M 239.402344 520.910156 C 239.105469 520.441406 238.8125 519.910156 238.578125 519.4375 C 230.6875 521.558594 222.859375 523.675781 215.027344 525.855469 C 213.261719 526.328125 211.144531 526.738281 209.847656 527.914062 C 200.546875 536.039062 190.1875 542.515625 178.53125 547.046875 C 185.242188 553.40625 185.59375 553.523438 193.128906 549.757812 C 197.722656 547.519531 202.371094 545.339844 206.667969 542.574219 C 217.679688 535.511719 228.511719 528.152344 239.402344 520.910156 Z M 189.304688 553.9375 C 196.660156 559.292969 198.191406 559.46875 205.199219 554.820312 C 217.441406 546.636719 229.804688 538.453125 241.816406 529.917969 C 249.171875 524.738281 256.0625 518.792969 263.183594 513.199219 C 262.890625 512.84375 262.652344 512.433594 262.359375 512.019531 C 256.472656 514.257812 249.351562 515.140625 244.816406 519.027344 C 227.921875 533.273438 209.613281 545.046875 189.304688 553.9375 Z M 667.792969 355.074219 C 673.265625 336.355469 678.269531 319.164062 683.453125 301.976562 C 686.453125 291.96875 689.160156 281.960938 687.808594 271.304688 C 685.984375 282.726562 680.742188 292.617188 674.03125 301.679688 C 669.558594 307.746094 666.496094 313.457031 667.5 321.695312 C 668.734375 332.234375 667.792969 343.007812 667.792969 355.074219 Z M 344.777344 447.972656 C 344.484375 448.5 344.1875 449.03125 343.894531 449.5625 C 344.484375 449.796875 345.1875 449.914062 345.601562 450.265625 C 358.90625 461.039062 372.386719 471.460938 385.277344 482.703125 C 389.636719 486.472656 393.34375 487.472656 398.113281 485.058594 C 389.929688 471.167969 376.332031 462.453125 365.5 451.089844 C 365.144531 450.738281 364.617188 450.621094 364.203125 450.5625 C 357.726562 449.679688 351.253906 448.855469 344.777344 447.972656 Z M 221.269531 114.652344 C 222.503906 122.1875 221.445312 130.605469 227.980469 136.199219 C 238.28125 144.972656 248.644531 153.742188 259.476562 161.867188 C 270.128906 169.933594 281.375 177.171875 292.382812 184.824219 C 291.914062 182 291.148438 179.234375 289.320312 177.820312 C 283.964844 173.816406 277.785156 170.816406 272.722656 166.519531 C 254.292969 150.621094 235.867188 134.667969 221.269531 114.652344 Z M 261.300781 97.640625 C 261.769531 97.464844 262.300781 97.289062 262.832031 97.109375 C 257.355469 69.617188 251.46875 42.246094 240.636719 15.578125 C 240.402344 17.992188 240.34375 19.757812 240.046875 21.464844 C 238.105469 31.414062 237.632812 40.890625 242.167969 50.722656 C 249.289062 66.027344 255 81.980469 261.300781 97.640625 Z M 231.925781 473.109375 C 234.632812 473.875 236.222656 474.34375 237.871094 474.757812 C 256.589844 479.761719 274.898438 485.882812 292.382812 494.359375 C 297.328125 496.773438 297.269531 496.832031 301.214844 495.359375 C 300.625 494.714844 300.152344 494.066406 299.566406 493.59375 C 285.789062 482.410156 271.308594 472.875 253.53125 468.632812 C 245.171875 466.632812 239.460938 469.8125 231.925781 473.109375 Z M 250.351562 272.070312 C 250.46875 271.71875 250.585938 271.421875 250.703125 271.070312 C 249.644531 269.949219 248.644531 268.714844 247.464844 267.714844 C 234.691406 256.585938 220.914062 247.109375 205.964844 239.042969 C 198.25 234.921875 190.597656 234.160156 182.414062 234.097656 C 181.472656 234.097656 180.589844 234.570312 179.882812 234.746094 C 201.078125 246.816406 222.09375 258.765625 243.226562 270.597656 C 245.230469 271.71875 247.9375 271.597656 250.351562 272.070312 Z M 659.609375 402.523438 C 660.082031 402.523438 660.550781 402.464844 661.023438 402.464844 C 667.144531 373.972656 663.964844 345.125 664.554688 316.28125 C 660.90625 320.8125 657.726562 325.347656 654.839844 330.117188 C 654.132812 331.117188 654.429688 332.882812 654.605469 334.234375 C 655.371094 341.59375 656.546875 348.894531 657.019531 356.253906 C 658.078125 371.675781 658.785156 387.101562 659.609375 402.523438 Z M 325.230469 575.953125 C 325.46875 576.484375 325.703125 577.011719 325.9375 577.542969 C 331.648438 575.542969 338.125 574.71875 342.894531 571.421875 C 362.96875 557.644531 380.15625 540.691406 394.640625 521.085938 C 399.878906 513.90625 404.882812 506.546875 409.945312 499.304688 C 409.472656 498.894531 409.003906 498.539062 408.53125 498.1875 C 384.691406 528.269531 356.84375 554.113281 325.230469 575.953125 Z M 325.171875 449.03125 C 342.597656 458.746094 354.488281 472.460938 365.792969 486.765625 C 366.265625 487.414062 367.03125 488.179688 367.617188 488.179688 C 373.503906 488.296875 379.332031 488.238281 385.160156 488.238281 C 385.398438 487.589844 385.574219 486.882812 385.75 486.175781 C 372.859375 475.464844 359.789062 465.042969 347.25 453.917969 C 341.007812 448.382812 334.296875 447.855469 325.171875 449.03125 Z M 241.519531 514.613281 C 241.578125 513.964844 241.636719 513.375 241.753906 512.726562 C 227.921875 507.960938 214.085938 503.132812 200.195312 498.363281 C 199.546875 498.128906 198.488281 498.070312 197.898438 498.480469 C 192.070312 501.953125 186.300781 505.546875 180.765625 508.902344 C 191.480469 512.140625 202.019531 515.316406 212.554688 518.496094 C 214.558594 519.144531 216.675781 521.027344 218.324219 520.617188 C 226.15625 518.96875 233.808594 516.671875 241.519531 514.613281 Z M 256.355469 465.808594 C 264.539062 469.519531 273.957031 472.992188 282.667969 477.878906 C 290.027344 481.996094 296.5625 487.648438 303.566406 492.535156 C 304.746094 493.417969 306.394531 494.242188 307.746094 494.125 C 311.75 493.773438 315.695312 492.890625 320.699219 492.003906 C 306.804688 479.40625 292.558594 469.28125 277.546875 460.15625 C 276.960938 459.804688 275.957031 459.6875 275.3125 459.921875 C 268.480469 461.984375 261.652344 464.101562 256.355469 465.808594 Z M 247.347656 352.722656 C 255.824219 356.429688 264.066406 355.898438 271.660156 351.601562 C 282.433594 345.480469 292.914062 338.945312 303.566406 332.527344 C 313.105469 326.820312 322.640625 320.933594 332.355469 315.398438 C 334.886719 313.925781 337.949219 313.160156 340.890625 312.632812 C 347.074219 311.570312 353.253906 310.925781 359.375 310.039062 C 353.429688 305.273438 346.777344 307.097656 340.421875 308.273438 C 325.351562 311.042969 311.988281 317.871094 299.625 326.757812 C 283.671875 338.238281 266.832031 347.835938 247.347656 352.722656 Z M 652.78125 334.707031 C 652.308594 334.648438 651.898438 334.648438 651.425781 334.648438 C 649.070312 337.652344 646.363281 340.476562 644.421875 343.773438 C 643.183594 345.773438 642.480469 348.484375 642.714844 350.777344 C 644.773438 369.441406 647.1875 388.042969 649.308594 406.644531 C 650.25 414.710938 650.71875 422.777344 651.425781 430.839844 C 651.957031 430.898438 652.425781 430.898438 652.957031 430.957031 C 654.015625 424.601562 656.019531 418.242188 656.019531 411.882812 C 655.902344 396.050781 654.898438 380.273438 654.195312 364.496094 C 653.78125 354.546875 653.25 344.597656 652.78125 334.707031 Z M 221.5625 562.882812 C 228.980469 566.769531 236.222656 564.238281 243.285156 559.410156 C 248.054688 556.113281 253.351562 553.582031 257.828125 549.992188 C 271.542969 538.984375 285.140625 527.914062 298.269531 516.320312 C 304.15625 511.078125 308.925781 504.484375 314.164062 498.539062 C 298.503906 509.429688 283.90625 521.558594 268.421875 532.507812 C 253.058594 543.339844 236.871094 553.054688 221.5625 562.882812 Z M 469.34375 147.914062 C 468.636719 147.386719 467.871094 146.855469 467.164062 146.324219 C 462.75 151.445312 458.511719 156.746094 453.742188 161.574219 C 439.144531 176.289062 421.894531 188.652344 412.476562 207.960938 C 410.121094 212.90625 408.121094 218.027344 405.589844 223.796875 C 416.421875 211.730469 425.957031 199.835938 436.789062 189.300781 C 447.679688 178.703125 459.867188 169.34375 472.230469 158.863281 C 471.523438 156.214844 470.460938 152.09375 469.34375 147.914062 Z M 230.984375 63.730469 C 229.15625 68.265625 227.566406 72.269531 226.15625 76.269531 C 225.859375 76.976562 226.332031 78.097656 226.742188 78.859375 C 234.277344 90.8125 241.226562 103.175781 249.527344 114.535156 C 257.945312 126.015625 267.71875 136.496094 276.902344 147.445312 C 277.371094 147.148438 277.785156 146.855469 278.253906 146.5625 C 276.605469 142.085938 275.78125 137.082031 273.191406 133.316406 C 257.710938 111.238281 242.109375 89.28125 230.984375 63.730469 Z M 320.226562 114.417969 C 319.582031 114.476562 318.875 114.59375 318.167969 114.710938 C 318.167969 117.65625 318.285156 120.660156 318.109375 123.660156 C 317.816406 131.078125 317.933594 138.554688 316.929688 145.855469 C 314.753906 161.574219 311.988281 177.230469 309.457031 192.890625 C 308.867188 196.539062 306.804688 200.601562 307.808594 203.664062 C 309.75 209.785156 313.398438 215.320312 316.34375 221.148438 C 316.753906 219.558594 316.285156 218.324219 316.285156 217.085938 C 316.109375 204.488281 316.992188 192.007812 320.347656 179.820312 C 324.644531 164.339844 328.351562 148.796875 324.878906 132.550781 C 323.582031 126.488281 321.816406 120.480469 320.226562 114.417969 Z M 493.480469 597.96875 C 493.128906 597.675781 492.832031 597.324219 492.480469 596.96875 C 483.414062 599.675781 472.816406 613.984375 477.46875 627.640625 C 480.824219 637.296875 491.183594 642.179688 501.957031 638.707031 C 507.195312 637 511.730469 634.117188 515.085938 629.347656 C 513.90625 628.347656 512.90625 627.523438 512.082031 626.875 C 509.667969 628.464844 507.433594 629.878906 505.253906 631.347656 C 504.902344 630.878906 504.488281 630.40625 504.136719 629.878906 C 505.902344 628.40625 507.667969 626.875 509.964844 624.875 C 508.964844 623.992188 508.140625 623.167969 507.609375 622.753906 C 505.253906 624.167969 503.371094 625.285156 501.546875 626.464844 C 501.367188 626.109375 501.132812 625.757812 500.957031 625.460938 C 502.191406 623.519531 503.371094 621.578125 504.605469 619.632812 C 504.195312 619.457031 503.78125 619.28125 503.371094 619.105469 C 501.898438 620.164062 500.367188 621.164062 498.898438 622.164062 C 498.601562 621.871094 498.308594 621.519531 498.011719 621.222656 C 499.308594 619.515625 500.542969 617.867188 501.78125 616.21875 C 501.546875 616.042969 501.308594 615.867188 501.015625 615.75 C 499.191406 616.691406 497.308594 617.574219 495.421875 618.515625 C 495.246094 618.222656 495.070312 617.925781 494.953125 617.632812 C 496.363281 615.75 497.835938 613.863281 499.308594 611.980469 C 498.898438 611.746094 498.542969 611.511719 498.191406 611.273438 C 496.128906 612.039062 494.070312 612.863281 491.421875 613.863281 C 492.246094 609.980469 498.308594 610.449219 495.480469 605.742188 C 492.949219 607.449219 490.714844 609.039062 488.417969 610.570312 C 488.125 610.097656 487.828125 609.625 487.476562 609.15625 C 489.832031 606.917969 492.125 604.621094 494.363281 602.328125 C 494.070312 602.089844 493.832031 601.855469 493.480469 601.5625 C 490.714844 603.738281 487.886719 605.917969 485.0625 608.035156 C 484.710938 607.683594 484.414062 607.273438 484.003906 606.859375 C 487.179688 603.917969 490.300781 600.972656 493.480469 597.96875 Z M 617.460938 402.582031 C 616.988281 402.464844 616.457031 402.40625 615.929688 402.289062 C 614.808594 405.996094 612.457031 409.765625 612.75 413.296875 C 613.691406 422.304688 615.8125 431.195312 617.398438 440.199219 C 622.226562 466.75 627.054688 493.300781 631.824219 519.851562 C 633.589844 513.667969 635.648438 507.136719 635.53125 500.601562 C 635.355469 492.359375 633.765625 484.058594 632.234375 475.875 C 628.703125 457.625 624.816406 439.496094 621.167969 421.304688 C 619.871094 415.0625 618.695312 408.824219 617.460938 402.582031 Z M 346.070312 303.386719 C 343.953125 302.917969 341.949219 302.152344 339.832031 301.917969 C 331.941406 301.035156 324.289062 302.800781 317.402344 306.214844 C 305.039062 312.277344 292.558594 318.339844 280.960938 325.640625 C 264.832031 335.824219 248.113281 344.539062 230.277344 351.601562 C 236.988281 351.367188 243.757812 351.191406 250.113281 349.484375 C 268.011719 344.597656 283.492188 334.882812 298.445312 324.167969 C 312.632812 313.984375 328.058594 306.390625 346.070312 303.386719 Z M 643.832031 458.449219 C 649.894531 443.554688 647.421875 428.839844 646.894531 414.355469 C 646.539062 402.820312 644.714844 391.339844 643.539062 379.859375 C 642.597656 370.265625 641.714844 360.609375 640.769531 351.015625 C 640.183594 350.894531 639.59375 350.835938 639.003906 350.71875 C 636.53125 356.664062 633.824219 362.609375 631.707031 368.734375 C 630.882812 371.148438 630.46875 374.148438 631.175781 376.503906 C 639.0625 402.996094 640.769531 430.371094 643.832031 458.449219 Z M 286.085938 154.742188 C 286.085938 147.972656 285.90625 141.261719 286.144531 134.550781 C 286.730469 113.535156 287.027344 92.578125 288.261719 71.621094 C 288.734375 62.964844 283.554688 58.316406 278.550781 51.78125 C 278.550781 54.605469 278.488281 56.3125 278.550781 58.023438 C 278.726562 63.96875 279.550781 69.972656 279.019531 75.859375 C 277.726562 91.28125 275.3125 106.472656 277.136719 122.070312 C 278.550781 133.492188 281.609375 144.207031 286.085938 154.742188 Z M 332.707031 297.914062 C 331.179688 297.621094 329.589844 296.914062 328.117188 297.089844 C 322.878906 297.738281 317.519531 298.03125 312.515625 299.621094 C 293.558594 305.625 276.902344 316.339844 259.535156 325.640625 C 242.578125 334.765625 226.15625 345.007812 206.90625 349.484375 C 209.671875 350.484375 212.617188 351.777344 215.148438 351.25 C 223.035156 349.601562 231.101562 347.894531 238.636719 345.007812 C 258.238281 337.414062 275.488281 325.40625 293.324219 314.574219 C 305.570312 307.097656 318.519531 301.386719 332.707031 297.914062 Z M 369.621094 492.242188 C 364.4375 492.242188 359.613281 492.066406 354.84375 492.359375 C 353.488281 492.476562 351.722656 493.714844 350.957031 494.949219 C 343.597656 506.839844 335.535156 518.027344 325.171875 527.738281 C 309.457031 542.515625 292.441406 555.171875 273.605469 565.652344 C 269.835938 567.769531 266.007812 569.949219 262.007812 572.1875 C 267.304688 575.421875 271.191406 572.480469 274.957031 570.300781 C 295.855469 557.820312 315.753906 544.046875 334.296875 528.152344 C 347.074219 517.261719 359.375 505.957031 369.621094 492.242188 Z M 401.585938 245.875 C 421.71875 220.914062 443.324219 198.777344 468.460938 180.292969 C 474.230469 175.996094 475.289062 170.933594 471.992188 164.164062 C 471.34375 164.515625 470.582031 164.871094 469.933594 165.339844 C 450.800781 178.820312 434.257812 195.1875 419.421875 213.140625 C 411.710938 222.503906 403.644531 231.980469 401.585938 245.875 Z M 305.097656 199.132812 C 305.804688 194.65625 306.511719 190.890625 307.101562 187.0625 C 309.160156 173.464844 311.515625 159.867188 313.222656 146.148438 C 314.398438 137.082031 314.519531 127.839844 315.519531 118.714844 C 316.578125 108.648438 313.8125 101.410156 306.277344 95.816406 C 306.277344 99.582031 306.570312 103.761719 306.21875 107.941406 C 304.273438 132.667969 302.332031 157.394531 299.976562 182.117188 C 299.328125 188.59375 301.566406 193.597656 305.097656 199.132812 Z M 415.597656 492.949219 C 399.171875 523.558594 376.742188 549.460938 348.839844 570.832031 C 351.839844 570.125 354.667969 569.066406 357.492188 568.007812 C 372.796875 562.414062 385.691406 553.757812 395.40625 540.21875 C 403.882812 528.386719 413.125 517.085938 422.25 505.367188 C 420.304688 501.777344 417.890625 497.246094 415.597656 492.949219 Z M 472.757812 199.777344 C 471.285156 200.542969 470.402344 200.898438 469.699219 201.484375 C 454.566406 214.613281 439.085938 227.328125 424.664062 241.164062 C 417.066406 248.40625 410.769531 257.292969 405.175781 266.242188 C 400.410156 273.777344 396.230469 282.136719 396.992188 291.496094 C 401.820312 284.550781 406.414062 277.484375 411.417969 270.714844 C 426.605469 250.171875 444.207031 231.921875 464.8125 216.910156 C 471.34375 212.199219 471.464844 206.609375 472.757812 199.777344 Z M 398.878906 268.480469 C 404.648438 260.648438 410.0625 252.464844 416.363281 245.109375 C 432.140625 226.800781 450.859375 211.730469 470.402344 197.660156 C 471.699219 196.71875 473.230469 195.1875 473.347656 193.773438 C 473.699219 189.535156 473.464844 185.238281 473.464844 180.351562 C 472.40625 180.941406 471.699219 181.234375 471.109375 181.765625 C 460.160156 191.300781 448.917969 200.484375 438.496094 210.550781 C 428.488281 220.148438 419.011719 230.390625 410.003906 240.929688 C 403.292969 248.699219 398.054688 257.589844 398.878906 268.480469 Z M 638.476562 487.886719 C 638.652344 487.238281 639.0625 485.53125 639.359375 483.765625 C 640.066406 478.523438 641.476562 473.285156 641.300781 468.046875 C 640.949219 459.390625 639.710938 450.796875 638.710938 442.144531 C 636.769531 426.25 634.945312 410.296875 632.707031 394.402344 C 632.058594 389.21875 630.351562 384.214844 629.054688 378.800781 C 627.113281 383.273438 626.113281 387.628906 623.699219 390.808594 C 619.871094 395.753906 619.636719 400.347656 621.050781 406.292969 C 627.230469 433.726562 632.824219 461.277344 638.476562 487.886719 Z M 115.714844 283.902344 C 119.601562 289.554688 122.839844 293.734375 125.546875 298.324219 C 127.785156 302.152344 131.023438 302.503906 134.613281 301.679688 C 138.203125 300.855469 141.738281 299.738281 145.152344 298.445312 C 156.335938 294.085938 167.582031 289.789062 178.589844 285.019531 C 184.769531 282.371094 190.597656 278.78125 196.542969 275.601562 C 189.597656 274.835938 183.121094 274.25 176.703125 274.953125 C 168.050781 275.898438 159.222656 274.894531 150.800781 279.253906 C 140.324219 284.667969 129.019531 288.023438 115.714844 283.902344 Z M 321.640625 293.792969 C 316.109375 290.554688 310.515625 290.4375 305.039062 291.734375 C 291.914062 294.910156 279.492188 299.855469 267.835938 306.863281 C 249.46875 317.988281 230.804688 328.703125 212.085938 339.238281 C 206.90625 342.183594 201.019531 343.773438 195.25 346.128906 C 201.722656 349.367188 207.847656 347.246094 213.203125 344.832031 C 228.804688 337.769531 244.167969 330.117188 259.359375 322.285156 C 279.550781 311.867188 298.503906 298.855469 321.640625 293.792969 Z M 290.792969 69.617188 C 291.027344 72.855469 291.265625 75.09375 291.324219 77.390625 C 291.5 85.925781 292.089844 94.519531 291.675781 103.054688 C 290.792969 122.1875 288.496094 141.261719 290.144531 160.511719 C 290.792969 167.578125 292.089844 174.347656 296.269531 180.410156 C 297.09375 171.226562 297.917969 162.339844 298.742188 153.390625 C 300.09375 139.613281 300.800781 125.722656 303.039062 112.121094 C 305.628906 96.167969 301.097656 82.804688 290.792969 69.617188 Z M 349.367188 493.242188 C 345.953125 493.242188 344.011719 493.183594 342.070312 493.242188 C 335.710938 493.242188 331.058594 494.417969 327.585938 501.425781 C 316.992188 522.5 299.386719 537.570312 280.902344 551.464844 C 271.835938 558.292969 261.828125 563.707031 252.234375 569.714844 C 255.238281 570.417969 258.828125 571.125 261.125 569.714844 C 276.015625 560.589844 290.792969 551.285156 305.214844 541.398438 C 311.28125 537.277344 315.871094 531.152344 321.816406 526.914062 C 333.828125 518.261719 340.480469 505.605469 349.367188 493.242188 Z M 327.527344 496.066406 C 327.117188 495.597656 326.644531 495.066406 326.234375 494.597656 C 323.347656 495.832031 319.34375 496.246094 317.753906 498.421875 C 305.570312 514.847656 290.441406 528.152344 274.546875 540.574219 C 262.714844 549.816406 249.996094 557.820312 238.046875 566.179688 C 242.992188 568.242188 248.230469 568.949219 254.355469 565.59375 C 279.253906 551.933594 300.859375 534.449219 318.167969 511.902344 C 321.875 507.078125 324.46875 501.367188 327.527344 496.066406 Z M 169.347656 333.472656 C 175.820312 340.183594 176.117188 340.710938 183.710938 336.828125 C 199.488281 328.644531 215.265625 320.460938 230.453125 311.21875 C 247.820312 300.738281 264.539062 289.023438 284.257812 282.3125 C 279.785156 281.371094 275.132812 280.371094 270.835938 281.195312 C 257.589844 283.84375 245.875 290.378906 234.691406 297.5625 C 213.851562 310.984375 193.542969 325.464844 169.347656 333.472656 Z M 691.398438 505.015625 C 687.867188 508.902344 684.394531 512.90625 680.683594 516.671875 C 668.792969 528.800781 656.3125 540.335938 644.890625 552.875 C 636.003906 562.765625 627.46875 573.246094 620.285156 584.429688 C 613.691406 594.734375 609.101562 606.328125 603.859375 617.457031 C 602.976562 619.28125 603.035156 621.519531 602.683594 623.578125 C 603.976562 622.695312 604.507812 621.519531 605.15625 620.457031 C 614.339844 606.09375 622.582031 591.082031 634.414062 578.484375 C 647.246094 564.828125 660.140625 551.285156 672.621094 537.335938 C 680.980469 527.914062 687.101562 517.023438 691.398438 505.015625 Z M 599.976562 710.527344 C 600.679688 702.34375 611.101562 698.871094 607.039062 689.628906 C 604.742188 693.632812 602.683594 697.164062 600.679688 700.695312 C 600.035156 693.925781 606.570312 689.335938 605.332031 681.269531 C 602.386719 686.15625 600.09375 689.984375 597.796875 693.808594 C 597.386719 693.632812 596.972656 693.398438 596.5625 693.160156 C 598.089844 689.984375 599.621094 686.6875 601.269531 683.507812 C 604.097656 677.914062 604.15625 677.914062 601.976562 673.734375 C 598.914062 678.445312 598.914062 684.863281 593.851562 688.335938 C 594.914062 684.273438 596.5 680.503906 597.972656 676.679688 C 600.917969 669.144531 600.917969 669.144531 598.972656 664.964844 C 596.621094 669.496094 594.207031 673.910156 591.910156 678.386719 C 591.496094 678.148438 591.085938 677.972656 590.734375 677.796875 C 591.496094 670.261719 599.503906 664.492188 596.855469 655.308594 C 593.851562 661.429688 591.027344 666.847656 588.496094 672.324219 C 587.847656 673.734375 587.378906 675.617188 587.847656 676.972656 C 590.734375 685.449219 594.972656 693.691406 596.679688 702.40625 C 600.09375 719.066406 602.210938 735.960938 604.625 752.796875 C 605.449219 758.566406 605.566406 764.394531 606.097656 770.75 C 609.101562 767.101562 611.691406 763.980469 614.28125 760.921875 C 616.8125 757.976562 621.226562 755.738281 617.636719 749.617188 C 614.574219 753.03125 611.808594 756.035156 608.277344 759.859375 C 610.277344 751.972656 620.109375 749.148438 617.636719 739.019531 C 613.574219 743.257812 610.277344 746.734375 606.980469 750.148438 C 608.804688 746.734375 611.101562 743.671875 613.574219 740.789062 C 616.046875 737.902344 618.753906 735.136719 616.695312 730.484375 C 613.28125 734.488281 609.984375 738.316406 606.746094 742.082031 C 606.390625 741.789062 606.039062 741.492188 605.683594 741.140625 C 607.746094 738.136719 609.984375 735.253906 611.925781 732.191406 C 613.691406 729.308594 618.164062 727.1875 615.28125 722.242188 C 612.574219 725.480469 610.101562 728.425781 607.628906 731.367188 C 608.570312 725.539062 614.691406 722.242188 614.042969 714.414062 C 610.628906 718.0625 608.039062 720.773438 604.625 724.421875 C 605.980469 717.0625 614.808594 714.648438 611.867188 706.585938 C 608.980469 709.820312 606.390625 712.707031 603.859375 715.648438 C 603.507812 715.355469 603.152344 715.0625 602.859375 714.824219 C 604.449219 712.351562 605.980469 709.820312 607.746094 707.46875 C 609.570312 704.9375 611.984375 702.640625 609.335938 698.8125 C 606.273438 702.640625 603.449219 706.171875 599.976562 710.527344 Z M 132.496094 304.859375 C 140.855469 315.457031 151.15625 317.929688 163.222656 310.628906 C 164.34375 309.980469 165.519531 309.453125 166.757812 309.039062 C 182.121094 303.269531 194.953125 293.085938 208.789062 284.726562 C 213.96875 281.546875 218.855469 277.898438 224.566406 274.070312 C 213.320312 273.246094 204.375 274.367188 194.894531 280.253906 C 175.761719 292.144531 154.277344 299.386719 132.496094 304.859375 Z M 480.175781 584.3125 C 474.289062 582.605469 469.050781 589.082031 462.925781 585.902344 C 466.636719 584.726562 470.402344 583.605469 474.113281 582.429688 C 469.699219 576.304688 465.398438 583.3125 459.628906 581.898438 C 462.691406 580.25 464.632812 579.132812 466.578125 578.074219 C 466.34375 577.601562 466.164062 577.070312 465.929688 576.542969 C 463.105469 577.601562 460.277344 578.601562 457.453125 579.660156 C 457.277344 579.308594 457.039062 578.898438 456.863281 578.542969 C 458.6875 577.191406 460.515625 575.894531 462.398438 574.597656 C 462.222656 574.128906 462.101562 573.65625 461.984375 573.1875 C 459.453125 573.714844 456.921875 574.1875 454.332031 574.65625 C 454.273438 574.421875 454.15625 574.128906 454.097656 573.894531 C 455.390625 572.832031 456.628906 571.773438 457.980469 570.65625 C 457.804688 570.183594 457.6875 569.714844 457.511719 569.242188 C 454.921875 569.773438 452.273438 570.300781 449.683594 570.890625 C 450.210938 569.242188 451.210938 568.769531 451.917969 568.007812 C 452.683594 567.242188 453.15625 566.238281 453.742188 565.355469 C 452.625 565.414062 451.449219 565.121094 450.507812 565.535156 C 448.917969 566.238281 447.445312 567.300781 445.972656 568.183594 C 444.5 563.589844 452.976562 564.886719 449.742188 559.585938 C 447.03125 561.292969 444.5 562.941406 441.96875 564.53125 C 441.617188 564.179688 441.382812 563.765625 441.085938 563.414062 C 443.5 561.117188 445.972656 558.882812 448.445312 556.585938 C 448.09375 556.171875 447.738281 555.703125 447.386719 555.230469 C 444.148438 557.351562 440.910156 559.46875 437.671875 561.589844 C 437.4375 561.175781 437.144531 560.765625 436.847656 560.351562 C 438.730469 558.824219 440.675781 557.46875 442.382812 555.820312 C 443.914062 554.40625 445.207031 552.757812 446.621094 551.226562 C 446.148438 550.816406 445.679688 550.402344 445.207031 549.992188 C 436.496094 555.46875 430.195312 562.472656 429.667969 573.597656 C 429.195312 583.839844 433.964844 590.90625 442.910156 595.203125 C 452.742188 600.03125 462.222656 598.5 472.640625 592.378906 C 468.875 592.378906 466.519531 592.4375 464.105469 592.378906 C 462.042969 592.320312 459.984375 592.140625 457.863281 592.023438 C 457.863281 591.496094 457.863281 590.90625 457.863281 590.375 C 465.8125 590.554688 473.640625 590.199219 480.175781 584.3125 Z M 265.890625 279.132812 C 265.890625 278.664062 265.890625 278.25 265.832031 277.78125 C 260.003906 277.308594 254 275.898438 248.289062 276.542969 C 243.875 277.074219 239.636719 279.839844 235.632812 282.195312 C 210.613281 296.972656 187.007812 314.339844 158.042969 323.402344 C 159.808594 324.933594 161.339844 325.875 162.398438 327.230469 C 165.578125 331.292969 169.40625 331.941406 173.820312 329.527344 C 187.007812 322.402344 200.546875 315.691406 213.378906 307.863281 C 230.511719 297.5625 246.289062 284.902344 265.890625 279.132812 Z M 305.039062 288.257812 C 298.445312 285.082031 292.5 284.375 286.203125 286.082031 C 268.777344 290.847656 253.765625 300.386719 238.695312 309.980469 C 220.914062 321.226562 203.253906 332.648438 183.238281 339.652344 C 182.355469 340.003906 181.53125 340.476562 180.589844 340.945312 C 187.066406 344.597656 193.1875 345.363281 199.605469 341.949219 C 215.675781 333.234375 231.925781 324.933594 247.9375 316.222656 C 261.59375 308.804688 274.898438 300.855469 288.675781 293.675781 C 293.5 291.144531 299.152344 290.144531 305.039062 288.257812 Z M 280.136719 457.800781 C 292.324219 466.691406 304.332031 474.460938 315.222656 483.644531 C 321.171875 488.648438 326.054688 492.949219 334.476562 490.417969 C 338.890625 489.121094 343.777344 489.296875 348.78125 488.769531 C 348.132812 487.707031 347.957031 487.0625 347.542969 486.589844 C 336.0625 473.34375 322.464844 462.511719 308.21875 452.5625 C 307.160156 451.796875 305.453125 451.269531 304.214844 451.5625 C 296.210938 453.503906 288.203125 455.683594 280.136719 457.800781 Z M 306.160156 500.011719 C 306.101562 499.660156 306.039062 499.304688 305.921875 498.894531 C 304.570312 499.128906 303.15625 499.304688 301.859375 499.71875 C 294.503906 502.011719 287.203125 504.605469 279.84375 506.605469 C 273.25 508.429688 268.128906 511.492188 262.890625 516.4375 C 246.230469 532.097656 227.039062 544.695312 207.375 556.410156 C 205.964844 557.234375 204.726562 558.175781 202.726562 559.527344 C 209.554688 561.117188 214.96875 563.179688 220.796875 559.46875 C 233.867188 551.050781 247.703125 543.691406 260.417969 534.746094 C 276.078125 523.796875 290.96875 511.667969 306.160156 500.011719 Z M 610.75 415.179688 C 610.21875 415.179688 609.746094 415.179688 609.277344 415.179688 C 606.921875 422.421875 604.449219 429.722656 602.152344 437.082031 C 601.800781 438.257812 601.683594 439.613281 601.917969 440.847656 C 603.273438 449.207031 604.332031 457.683594 606.390625 465.867188 C 609.6875 478.761719 614.164062 491.300781 617.164062 504.191406 C 620.167969 517.144531 621.992188 530.386719 624.582031 544.988281 C 626.230469 537.921875 629.175781 531.800781 628.644531 526.03125 C 627.113281 510.253906 624.171875 494.597656 621.640625 478.9375 C 619.34375 464.925781 616.8125 450.914062 614.398438 436.902344 C 613.160156 429.664062 611.925781 422.421875 610.75 415.179688 Z M 293.265625 498.1875 C 272.425781 487.414062 251.351562 481.46875 230.394531 475.167969 C 229.628906 474.933594 228.449219 475.347656 227.804688 475.816406 C 222.625 479.703125 217.5 483.707031 213.203125 487 C 228.15625 494.125 242.992188 501.1875 257.828125 508.136719 C 258.652344 508.488281 259.710938 508.84375 260.535156 508.605469 C 271.011719 505.308594 281.492188 501.953125 293.265625 498.1875 Z M 413.710938 487.824219 C 406 487.121094 404.351562 488.003906 401.054688 493.476562 C 399.761719 495.714844 398.347656 497.894531 396.582031 499.71875 C 366.382812 530.917969 331.824219 556.230469 293.972656 577.191406 C 293.03125 577.71875 292.207031 578.425781 290.441406 579.660156 C 296.328125 579.660156 301.097656 580.132812 305.6875 579.542969 C 311.28125 578.777344 317.050781 579.074219 322.230469 575.363281 C 351.78125 554.289062 378.746094 530.386719 401.644531 502.074219 C 405.472656 497.363281 409.472656 492.828125 413.710938 487.824219 Z M 488.710938 460.804688 C 491.480469 461.394531 494.1875 461.984375 497.070312 462.511719 C 495.835938 455.742188 487.769531 459.6875 484.710938 454.386719 C 487.769531 454.742188 490.007812 455.035156 493.070312 455.390625 C 486.535156 447.324219 479.292969 442.378906 469.34375 443.910156 C 462.042969 445.027344 456.273438 451.445312 455.214844 458.507812 C 473.699219 468.871094 483.707031 483.527344 478.761719 506.605469 C 483.238281 505.546875 487.179688 504.664062 491.949219 503.542969 C 489.183594 500.601562 487.417969 498.71875 485.59375 496.832031 C 485.828125 496.539062 486.121094 496.246094 486.355469 495.949219 C 488.890625 497.65625 491.480469 499.304688 494.070312 500.953125 C 494.246094 500.542969 494.480469 500.070312 494.714844 499.660156 C 492.304688 496.890625 489.949219 494.183594 487.535156 491.417969 C 488.300781 490.769531 489.007812 490.121094 489.714844 489.472656 C 491.832031 492.300781 493.953125 495.183594 496.070312 498.070312 C 497.953125 492.125 490.773438 491.300781 490.007812 485.472656 C 493.597656 488.238281 496.246094 490.355469 499.367188 492.769531 C 501.25 485.292969 492.183594 485.882812 490.949219 479.761719 C 494.777344 482.234375 497.660156 484.117188 500.839844 486.238281 C 500.78125 479.527344 494.128906 479.113281 491.007812 475.640625 C 491.300781 475.167969 491.597656 474.699219 491.890625 474.226562 C 495.070312 476.050781 498.308594 477.878906 501.367188 479.703125 C 503.015625 471.226562 492.597656 472.933594 489.535156 466.574219 C 493.539062 468.28125 496.484375 469.519531 499.898438 470.988281 C 499.25 463.21875 491.773438 465.339844 488.710938 460.804688 Z M 666.96875 389.808594 C 667.144531 389.984375 667.320312 390.101562 667.4375 390.222656 C 668.144531 388.984375 669.027344 387.808594 669.5 386.511719 C 681.980469 353.546875 694.34375 320.519531 706.644531 287.554688 C 707.117188 286.316406 707.410156 284.550781 706.824219 283.492188 C 701.640625 273.894531 696.226562 264.417969 690.929688 254.9375 C 692.929688 269.246094 692.398438 283.078125 688.574219 296.796875 C 683.097656 316.398438 677.269531 335.882812 672.5 355.664062 C 669.792969 366.851562 668.734375 378.445312 666.96875 389.808594 Z M 595.738281 637 C 595.914062 635.707031 595.914062 634.410156 596.265625 633.175781 C 602.507812 611.511719 608.6875 589.789062 615.105469 568.183594 C 617.578125 559.765625 621.578125 551.640625 620.109375 542.457031 C 618.046875 529.683594 616.574219 516.730469 613.75 504.074219 C 610.570312 489.886719 605.980469 476.050781 602.269531 461.984375 C 601.09375 457.625 600.742188 453.035156 600.035156 448.558594 C 598.445312 453.503906 597.445312 458.214844 597.386719 463.042969 C 597.207031 472.519531 596.207031 482.292969 597.972656 491.476562 C 600.445312 504.191406 605.273438 516.378906 608.863281 528.859375 C 610.6875 535.15625 613.160156 541.574219 613.339844 547.929688 C 613.632812 561.941406 610.277344 575.304688 603.800781 587.84375 C 600.5625 594.085938 597.679688 600.5625 595.441406 607.210938 C 592.203125 617.042969 592.910156 627.109375 595.738281 637 Z M 398.996094 390.75 C 400.996094 389.042969 402.761719 387.511719 404.648438 385.863281 C 391.988281 376.503906 386.984375 363.730469 386.691406 348.71875 C 377.449219 347.71875 370.855469 351.660156 366.382812 358.726562 C 359.199219 370.144531 359.671875 382.097656 365.203125 394.753906 C 366.085938 391.867188 366.792969 389.632812 367.441406 387.394531 C 367.792969 387.511719 368.148438 387.570312 368.5 387.628906 C 368.207031 391.398438 367.914062 395.226562 367.617188 398.992188 C 367.914062 399.050781 368.207031 399.109375 368.5 399.167969 C 369.089844 396.871094 369.679688 394.578125 370.265625 392.28125 C 370.5625 392.339844 370.914062 392.339844 371.210938 392.398438 C 371.503906 396.460938 371.796875 400.464844 372.09375 404.527344 C 372.445312 404.46875 372.738281 404.410156 373.09375 404.347656 C 373.503906 400.875 373.976562 397.402344 374.386719 393.988281 C 374.800781 394.046875 375.269531 394.105469 375.683594 394.222656 C 376.390625 398.816406 373.386719 404.054688 378.097656 408.824219 C 378.390625 404.347656 378.566406 400.757812 378.804688 397.167969 C 382.101562 410.238281 382.101562 410.238281 384.453125 410.175781 C 383.867188 405.820312 383.335938 401.40625 382.746094 396.992188 C 387.164062 401.171875 383.6875 409.292969 391.105469 412.0625 C 389.753906 405.527344 388.515625 399.699219 387.339844 393.871094 C 387.808594 393.753906 388.28125 393.636719 388.753906 393.515625 C 389.871094 397.757812 390.988281 401.996094 392.046875 405.9375 C 398.523438 399.757812 389.988281 395.460938 390.402344 389.691406 C 392.109375 391.929688 393.757812 394.105469 395.464844 396.285156 C 398.289062 394.28125 397.816406 392.632812 395.875 390.632812 C 394.285156 389.042969 393.050781 387.101562 391.695312 385.335938 C 392.167969 384.921875 392.636719 384.570312 393.167969 384.214844 C 395.167969 386.453125 397.113281 388.691406 398.996094 390.75 Z M 630.351562 538.628906 C 631.527344 537.511719 632.472656 536.746094 633.355469 535.804688 C 653.898438 512.375 674.5625 489.121094 694.753906 465.457031 C 699.699219 459.6875 703.9375 452.976562 706.824219 446.027344 C 709.238281 440.199219 709.175781 433.371094 710.355469 426.425781 C 706.058594 432.253906 702.523438 437.789062 698.285156 442.730469 C 682.214844 461.039062 665.851562 479.113281 649.777344 497.421875 C 645.421875 502.367188 640.59375 507.253906 638.003906 513.140625 C 634.414062 521.027344 632.824219 529.859375 630.351562 538.628906 Z M 549.347656 511.84375 C 549.996094 511.550781 550.703125 511.257812 551.40625 511.019531 C 550.464844 505.839844 549.523438 500.601562 548.523438 495.421875 C 552.878906 500.425781 553.644531 506.191406 553.351562 512.199219 C 558.414062 505.015625 552.46875 498.363281 551.527344 491.476562 C 551.996094 491.300781 552.46875 491.179688 552.996094 491.003906 C 554.882812 495.65625 556.765625 500.304688 558.941406 505.722656 C 561.886719 496.773438 555 491.003906 552.9375 484.058594 C 553.46875 483.824219 554 483.585938 554.527344 483.351562 C 557 487.945312 559.472656 492.476562 562.476562 498.011719 C 563.0625 489.296875 557 484.648438 553.46875 478.878906 C 553.9375 478.523438 554.351562 478.171875 554.824219 477.816406 C 557.765625 481.234375 560.769531 484.707031 563.828125 488.296875 C 564.890625 479.527344 555.941406 476.523438 553.113281 470.164062 C 553.46875 469.871094 553.820312 469.578125 554.175781 469.339844 C 556.648438 471.636719 559.0625 473.992188 561.710938 476.464844 C 559.648438 460.980469 541.8125 453.210938 529.332031 462.277344 C 517.734375 470.636719 514.4375 484.648438 516.910156 498.070312 C 517.617188 501.835938 519.617188 505.367188 521.03125 509.019531 C 521.503906 508.84375 521.972656 508.664062 522.445312 508.429688 C 520.679688 501.660156 518.910156 494.890625 517.144531 488.121094 C 517.792969 487.886719 518.441406 487.707031 519.089844 487.472656 C 519.441406 488.472656 519.855469 489.414062 520.148438 490.417969 C 521.914062 495.539062 523.5625 500.660156 525.386719 505.722656 C 525.683594 506.429688 526.976562 506.839844 528.917969 508.078125 C 526.742188 501.070312 523.03125 495.890625 525.210938 489.652344 C 526.566406 492.710938 527.210938 495.949219 528.273438 499.070312 C 529.273438 501.835938 530.746094 504.425781 531.921875 507.136719 C 532.335938 506.898438 532.746094 506.664062 533.160156 506.429688 C 530.097656 495.65625 530.039062 494.476562 532.6875 492.417969 C 534.511719 505.308594 535.632812 507.488281 540.339844 507.195312 C 539.398438 502.957031 538.457031 498.71875 537.574219 494.476562 C 538.101562 494.359375 538.691406 494.183594 539.222656 494.066406 C 540.871094 499.070312 542.460938 504.015625 544.050781 508.960938 C 544.578125 508.785156 545.109375 508.605469 545.640625 508.429688 C 545.050781 504.074219 544.460938 499.71875 543.871094 495.359375 C 544.460938 495.242188 545.050781 495.125 545.640625 495.007812 C 546.875 500.601562 548.109375 506.191406 549.347656 511.84375 Z M 658.609375 423.660156 C 658.960938 423.835938 659.375 424.011719 659.726562 424.1875 C 662.257812 420.363281 664.789062 416.476562 667.320312 412.648438 C 685.160156 385.335938 702.585938 357.726562 714.769531 327.289062 C 715.949219 324.464844 717.65625 321.285156 717.125 318.636719 C 715.125 308.921875 712.296875 299.386719 709.765625 289.730469 C 705.058594 300.328125 701.699219 310.804688 697.875 321.167969 C 687.453125 349.246094 678.566406 377.917969 664.671875 404.703125 C 661.671875 410.53125 660.609375 417.300781 658.609375 423.660156 Z M 610.21875 592.554688 C 610.511719 592.671875 610.75 592.789062 610.984375 592.847656 C 611.394531 592.378906 611.867188 591.90625 612.160156 591.378906 C 624.523438 566.417969 644.65625 547.753906 663.730469 528.269531 C 673.5625 518.261719 683.746094 508.488281 693.753906 498.65625 C 694.636719 497.714844 695.636719 496.714844 695.992188 495.539062 C 699.523438 482.585938 702.9375 469.578125 706.410156 456.566406 C 705.941406 456.449219 705.527344 456.390625 705.058594 456.273438 C 701.347656 461.335938 697.992188 466.574219 693.988281 471.402344 C 683.15625 484.410156 672.148438 497.363281 661.023438 510.136719 C 653.429688 518.910156 646.304688 528.445312 637.355469 535.628906 C 630 541.632812 625.40625 548.34375 622.640625 556.9375 C 622.109375 558.46875 621.578125 559.941406 621.050781 561.414062 C 617.460938 571.832031 613.808594 582.195312 610.21875 592.554688 Z M 471.933594 568.242188 C 472.289062 568.242188 472.640625 568.183594 473.054688 568.183594 C 473.464844 570.417969 474.289062 572.714844 474.347656 575.011719 C 474.40625 577.484375 475.585938 578.367188 477.703125 579.425781 C 488.535156 584.664062 502.253906 576.660156 506.195312 566.710938 C 506.609375 565.59375 505.84375 563.238281 504.785156 562.472656 C 501.367188 559.882812 497.601562 557.703125 493.953125 555.347656 C 494.1875 554.878906 494.421875 554.40625 494.65625 553.9375 C 498.367188 555.878906 502.074219 557.820312 505.960938 559.824219 C 504.3125 551.464844 495.421875 554.40625 491.421875 549.285156 C 495.070312 550.167969 498.777344 551.050781 502.546875 551.933594 C 502.546875 548.636719 501.191406 547.460938 497.894531 547.519531 C 494.539062 547.519531 491.183594 546.753906 487.769531 546.34375 C 487.769531 545.8125 487.828125 545.339844 487.828125 544.8125 C 492.125 545.046875 496.363281 545.222656 500.664062 545.460938 C 501.191406 539.867188 497.484375 540.574219 494.304688 540.984375 C 491.066406 541.398438 487.828125 542.222656 484.589844 542.867188 C 484.472656 542.339844 484.355469 541.808594 484.179688 541.21875 C 487.945312 540.21875 491.65625 539.277344 495.660156 538.21875 C 492.480469 534.921875 489.652344 533.507812 485.472656 536.15625 C 483.121094 537.628906 480 537.984375 477.234375 538.867188 C 477.054688 538.335938 476.9375 537.863281 476.761719 537.335938 C 479.941406 535.980469 483.179688 534.566406 486.59375 533.15625 C 481.234375 528.152344 476.703125 535.214844 470.992188 533.390625 C 473.464844 532.035156 475.171875 531.152344 477.171875 530.09375 C 466.460938 527.210938 454.804688 531.035156 450.445312 538.453125 C 447.03125 544.222656 447.621094 551.167969 451.917969 555.40625 C 452.214844 553.820312 452.449219 552.230469 452.742188 550.640625 C 453.15625 550.640625 453.625 550.699219 454.039062 550.699219 C 454.214844 553.878906 454.332031 557.054688 454.449219 560.234375 C 454.804688 560.234375 455.15625 560.175781 455.511719 560.175781 C 455.980469 558.585938 456.394531 556.996094 457.097656 554.644531 C 459.335938 559.351562 455.804688 564.355469 460.632812 567.769531 C 460.925781 564.652344 461.160156 562 461.398438 559.410156 C 464.929688 571.480469 464.929688 571.480469 466.578125 572.125 C 466.753906 569.832031 466.988281 567.476562 467.226562 565.179688 C 468.636719 567.300781 468.695312 569.359375 469.109375 571.363281 C 469.460938 573.128906 470.109375 574.777344 470.582031 576.542969 C 471.050781 576.425781 471.464844 576.304688 471.933594 576.1875 C 471.933594 573.539062 471.933594 570.890625 471.933594 568.242188 Z M 639.710938 503.367188 C 640.007812 503.601562 640.359375 503.839844 640.652344 504.074219 C 641.007812 503.367188 641.300781 502.542969 641.832031 501.894531 C 648.835938 493.300781 655.605469 484.46875 663.023438 476.167969 C 674.738281 463.042969 687.277344 450.621094 698.699219 437.316406 C 704.761719 430.25 711.238281 423.246094 713.0625 413.355469 C 715.476562 399.875 718.65625 386.511719 721.539062 373.089844 C 719.890625 373.796875 719.125 374.796875 718.421875 375.855469 C 706.703125 393.339844 695.519531 411.179688 683.097656 428.191406 C 671.324219 444.261719 658.253906 459.390625 645.773438 474.992188 C 645.070312 475.933594 644.597656 477.171875 644.363281 478.347656 C 642.773438 486.707031 641.242188 495.007812 639.710938 503.367188 Z M 400.289062 489.59375 C 391.105469 490.296875 382.804688 490.886719 374.503906 491.535156 C 373.859375 491.59375 373.152344 492.125 372.679688 492.652344 C 362.96875 502.957031 353.785156 513.789062 343.539062 523.5 C 324.289062 541.75 302.746094 556.9375 279.84375 570.242188 C 277.136719 571.832031 274.488281 573.421875 271.835938 574.953125 C 280.195312 579.25 287.671875 578.425781 295.503906 573.714844 C 331 552.582031 364.144531 528.5625 393.226562 499.070312 C 395.875 496.421875 397.757812 493.066406 400.289062 489.59375 Z M 524.917969 616.335938 C 525.386719 616.042969 525.917969 615.75 526.386719 615.394531 C 528.683594 620.988281 530.980469 626.582031 533.335938 632.171875 C 533.921875 631.878906 534.511719 631.585938 535.160156 631.289062 C 532.394531 623.933594 529.566406 616.515625 526.269531 607.859375 C 533.335938 615.160156 535.570312 623.167969 537.160156 631.644531 C 538.75 631.347656 540.105469 631.054688 541.636719 630.761719 C 539.871094 620.339844 533.097656 612.804688 528.507812 604.152344 C 536.75 610.628906 541.105469 619.457031 545.109375 628.757812 C 544.816406 618.105469 538.457031 609.863281 533.160156 601.207031 C 541.222656 607.566406 545.875 616.101562 549.347656 625.699219 C 550.113281 624.109375 550.703125 622.402344 550.289062 621.046875 C 547.816406 612.804688 544.34375 605.152344 538.101562 598.972656 C 537.515625 598.382812 537.21875 597.441406 536.808594 596.617188 C 545.460938 601.796875 549.640625 609.921875 553.234375 618.808594 C 553.585938 616.277344 554.058594 613.394531 552.878906 611.511719 C 549.230469 605.683594 544.992188 600.265625 540.988281 594.671875 C 540.105469 593.4375 539.398438 592.140625 538.632812 590.90625 C 539.164062 590.554688 539.691406 590.199219 540.222656 589.847656 C 545.109375 595.734375 550.054688 601.679688 555 607.566406 C 551.527344 599.265625 546.050781 592.378906 539.871094 585.84375 C 545.578125 587.019531 548.171875 592.082031 552.230469 595.617188 C 550.523438 591.4375 549.171875 586.726562 546.050781 584.019531 C 543.578125 581.957031 538.925781 582.488281 535.277344 581.839844 C 534.746094 584.429688 534.394531 586.785156 533.804688 589.730469 C 531.570312 586.375 535.042969 581.25 529.15625 580.308594 C 528.917969 584.136719 528.742188 587.433594 528.507812 590.789062 C 525.800781 586.726562 528.917969 581.664062 524.328125 577.367188 C 524.09375 581.722656 523.855469 584.960938 523.679688 588.140625 C 520.855469 584.078125 524.152344 578.601562 519.558594 574.777344 C 519.207031 577.953125 518.910156 580.605469 518.675781 583.195312 C 516.441406 578.839844 518.910156 573.480469 513.847656 570.300781 C 513.203125 573.480469 512.671875 576.484375 512.082031 579.484375 C 511.730469 579.484375 511.316406 579.484375 510.964844 579.425781 C 510.964844 575.128906 510.964844 570.832031 510.964844 567.59375 C 506.726562 571.890625 502.664062 576.835938 497.777344 580.664062 C 494.894531 582.898438 493.597656 584.960938 494.070312 588.257812 C 494.421875 590.671875 494.777344 593.027344 495.304688 595.378906 C 498.367188 608.507812 505.726562 618.515625 517.324219 626.640625 C 516.085938 622.929688 515.144531 619.929688 514.144531 616.984375 C 514.613281 616.808594 515.027344 616.632812 515.496094 616.457031 C 516.675781 618.988281 517.734375 621.519531 519.089844 623.933594 C 520.265625 625.992188 521.738281 627.933594 523.089844 629.878906 C 523.445312 629.640625 523.796875 629.40625 524.09375 629.230469 C 518.617188 619.046875 518.617188 619.046875 520.148438 616.398438 C 522.679688 621.28125 525.445312 626.464844 528.15625 631.644531 C 528.859375 631.347656 529.507812 631.054688 530.15625 630.761719 C 528.390625 625.933594 526.683594 621.164062 524.917969 616.335938 Z M 461.574219 466.339844 C 456.453125 464.042969 452.742188 461.804688 448.738281 460.6875 C 431.726562 455.976562 416.65625 466.574219 418.421875 484.765625 C 420.128906 502.074219 433.726562 514.90625 451.566406 517.144531 C 449.742188 515.375 447.855469 513.550781 446.03125 511.785156 C 446.328125 511.433594 446.621094 511.136719 446.914062 510.84375 C 450.507812 512.90625 454.097656 514.964844 457.6875 517.023438 C 455.980469 513.199219 450.445312 513.199219 450.269531 507.371094 C 453.390625 509.429688 455.863281 511.136719 458.394531 512.726562 C 463.164062 515.671875 463.164062 515.613281 465.578125 513.082031 C 462.398438 509.667969 456.746094 508.664062 455.449219 503.191406 C 459.335938 505.191406 462.75 507.839844 466.402344 510.136719 C 467.402344 510.785156 468.992188 510.371094 470.34375 510.492188 C 470.460938 509.960938 470.523438 509.488281 470.582031 508.960938 C 466.636719 505.367188 462.691406 501.777344 458.6875 498.1875 C 459.160156 497.714844 459.628906 497.1875 460.101562 496.65625 C 464.164062 499.953125 468.285156 503.25 472.40625 506.546875 C 470.757812 499.1875 464.8125 495.125 459.101562 490.886719 C 466.34375 491.359375 469.992188 496.773438 474.523438 501.660156 C 474.996094 500.070312 475.703125 498.953125 475.347656 498.304688 C 471.582031 490.476562 463.871094 486.882812 457.097656 482.234375 C 464.929688 482.117188 469.699219 487.648438 475.9375 492.535156 C 473.289062 480.585938 463.457031 479.527344 455.449219 475.992188 C 461.632812 473.757812 466.105469 477.9375 471.40625 480.113281 C 468.753906 470.164062 460.042969 470.519531 452.390625 469.164062 C 452.507812 468.753906 452.625 468.28125 452.683594 467.871094 C 455.097656 467.457031 457.511719 467.046875 461.574219 466.339844 Z M 645.304688 469.988281 C 645.714844 470.164062 646.070312 470.402344 646.539062 470.578125 C 651.132812 464.632812 655.605469 458.507812 660.316406 452.679688 C 681.746094 426.070312 700.9375 397.875 719.421875 369.203125 C 720.539062 367.496094 721.953125 365.4375 721.894531 363.613281 C 721.421875 351.367188 720.597656 339.179688 719.890625 326.996094 C 718.125 327.347656 717.65625 327.644531 717.535156 328.054688 C 703.230469 366.554688 680.214844 400.109375 657.253906 433.667969 C 656.136719 435.316406 654.488281 436.785156 653.957031 438.613281 C 650.957031 449.03125 648.1875 459.511719 645.304688 469.988281 Z M 443.089844 401.582031 C 440.4375 398.109375 437.789062 394.636719 435.140625 391.164062 C 433.375 388.925781 431.316406 388.335938 428.371094 389.457031 C 422.601562 391.632812 416.539062 391.398438 410.945312 388.925781 C 407.882812 387.570312 406.355469 388.335938 404.410156 390.515625 C 391.871094 404.761719 393.050781 428.25 407.121094 441.847656 C 416.363281 450.796875 427.78125 450.855469 437.789062 441.613281 C 435.316406 438.257812 432.785156 434.785156 429.902344 430.78125 C 435.082031 431.898438 436.671875 436.257812 439.261719 439.375 C 439.613281 439.140625 439.96875 438.964844 440.320312 438.671875 C 437.90625 434.667969 435.433594 430.605469 432.964844 426.542969 C 433.375 426.25 433.726562 426.011719 434.140625 425.71875 C 436.847656 428.898438 439.496094 432.078125 442.382812 435.550781 C 442.910156 428.605469 437.496094 425.246094 433.257812 420.007812 C 439.554688 421.363281 441.558594 425.777344 444.679688 430.664062 C 445.441406 421.714844 438.378906 419.007812 434.671875 414.238281 C 435.082031 413.886719 435.433594 413.472656 435.847656 413.0625 C 439.320312 416.003906 442.734375 418.949219 446.207031 421.953125 C 447.738281 412.589844 437.90625 412.121094 434.023438 407.058594 C 434.257812 406.703125 434.492188 406.351562 434.730469 405.996094 C 438.203125 407.882812 441.617188 409.765625 445.03125 411.707031 C 442.441406 402.820312 434.140625 401.640625 427.488281 398.109375 C 433.316406 396.226562 437.4375 400.347656 443.089844 401.582031 Z M 457.453125 373.03125 C 457.21875 373.441406 456.980469 373.796875 456.6875 374.207031 C 454.507812 373.089844 452.332031 371.914062 450.035156 370.96875 C 449.210938 370.617188 448.09375 370.910156 447.152344 370.910156 C 447.679688 371.792969 448.035156 372.914062 448.796875 373.5625 C 450.976562 375.503906 453.332031 377.269531 455.570312 379.09375 C 455.332031 379.449219 455.039062 379.742188 454.6875 380.09375 C 451.800781 378.210938 448.917969 376.328125 446.207031 374.5625 C 442.5 378.917969 439.261719 382.863281 435.90625 386.746094 C 445.148438 397.578125 445.148438 397.578125 449.328125 411.121094 C 449.503906 411.882812 449.800781 412.648438 450.328125 413.179688 C 457.039062 420.714844 474.054688 422.1875 482.058594 416.003906 C 490.183594 409.707031 490.125 402.640625 482 396.519531 C 481.058594 395.8125 480.234375 394.988281 479.351562 394.222656 C 479.765625 393.8125 480.117188 393.339844 480.53125 392.871094 C 483.589844 395.402344 486.652344 397.933594 490.242188 400.875 C 489.183594 393.8125 483.0625 390.808594 479.941406 385.921875 C 480.292969 385.570312 480.648438 385.21875 480.941406 384.863281 C 483.886719 387.511719 486.828125 390.101562 489.949219 392.871094 C 490.300781 385.6875 483.355469 383.804688 480.175781 379.390625 C 480.46875 378.976562 480.765625 378.625 481.058594 378.210938 C 483.238281 379.683594 485.414062 381.039062 487.535156 382.507812 C 487.828125 382.15625 488.183594 381.800781 488.476562 381.449219 C 485.179688 378.445312 481.941406 375.503906 478.703125 372.558594 C 478.761719 372.324219 478.820312 372.089844 478.882812 371.855469 C 480.53125 372.441406 482.175781 372.972656 483.824219 373.5 C 484.179688 373.265625 484.472656 372.972656 484.769531 372.679688 C 480.175781 367.027344 475.644531 361.375 471.050781 355.78125 C 470.640625 356.078125 470.226562 356.429688 469.816406 356.722656 C 470.992188 358.902344 472.230469 361.082031 473.40625 363.257812 C 457.511719 348.542969 454.566406 346.714844 448.621094 349.128906 C 455.214844 353.546875 463.105469 356.078125 466.753906 364.082031 C 460.925781 359.902344 455.570312 356.136719 450.269531 352.367188 C 449.742188 353.015625 449.152344 353.605469 448.621094 354.25 C 450.09375 355.898438 451.269531 357.960938 453.039062 359.078125 C 456.511719 361.199219 460.867188 362.140625 463.164062 366.910156 C 458.277344 364.378906 454.097656 362.257812 449.917969 360.136719 C 449.5625 360.609375 449.210938 361.082031 448.859375 361.550781 C 452.683594 364.199219 456.570312 366.851562 460.394531 369.5 C 460.160156 369.792969 459.867188 370.085938 459.628906 370.441406 C 456.039062 368.734375 452.449219 367.027344 448.796875 365.320312 C 448.5625 365.730469 448.269531 366.203125 447.972656 366.671875 C 451.09375 368.792969 454.273438 370.910156 457.453125 373.03125 Z M 441.441406 371.617188 C 436.90625 368.734375 432.726562 366.085938 428.546875 363.496094 C 428.902344 362.964844 429.253906 362.433594 429.605469 361.90625 C 433.785156 364.140625 437.90625 366.378906 442.207031 368.675781 C 444.617188 365.90625 443.558594 363.789062 440.675781 362.199219 C 438.144531 360.84375 435.496094 359.667969 433.023438 358.3125 C 432.140625 357.785156 431.492188 356.902344 430.726562 356.195312 C 431.019531 355.722656 431.375 355.3125 431.726562 354.839844 C 435.847656 357.019531 440.027344 359.136719 444.324219 361.316406 C 446.621094 351.425781 435.082031 353.367188 431.84375 348.1875 C 432.078125 347.777344 432.316406 347.363281 432.550781 346.953125 C 436.554688 348.835938 440.617188 350.660156 445.265625 352.78125 C 443.382812 345.421875 435.257812 346.894531 431.902344 342.417969 C 432.078125 341.949219 432.257812 341.417969 432.433594 340.945312 C 436.023438 342.300781 439.554688 343.597656 443.382812 345.007812 C 443.441406 336.53125 433.90625 339.238281 430.019531 333.53125 C 434.082031 334.414062 436.964844 335.058594 439.910156 335.707031 C 438.261719 328.347656 431.84375 329.996094 427.136719 327.644531 C 429.136719 327.347656 431.136719 327.054688 433.316406 326.699219 C 418.011719 311.570312 401.292969 319.578125 394.109375 333.707031 C 389.871094 342.007812 389.8125 351.25 392.226562 360.136719 C 395.167969 370.851562 401.113281 379.449219 412.59375 384.746094 C 405.882812 375.738281 405.292969 374.386719 406.414062 369.675781 C 411.0625 375.855469 412.0625 385.15625 422.425781 386.570312 C 410.121094 373.089844 410.121094 373.089844 411.0625 369.320312 C 414.832031 373.621094 418.777344 378.152344 422.71875 382.683594 C 425.132812 385.453125 427.664062 385.628906 430.429688 383.039062 C 421.128906 377.5625 415.597656 370.265625 417.953125 367.496094 C 421.484375 371.324219 425.191406 374.972656 428.664062 378.917969 C 431.726562 382.507812 434.140625 382.15625 436.496094 378.386719 C 432.199219 374.5625 425.722656 373.089844 423.839844 366.027344 C 429.078125 369.734375 433.667969 373.03125 438.496094 376.445312 C 439.734375 374.445312 440.4375 373.265625 441.441406 371.617188 Z M 550.761719 578.425781 C 561.179688 575.835938 567.714844 569.300781 570.71875 559.234375 C 576.074219 540.925781 563.769531 519.261719 544.285156 512.609375 C 530.6875 507.902344 518.734375 510.902344 509.726562 521.265625 C 504.371094 527.445312 502.488281 542.101562 506.019531 547.402344 C 506.960938 542.988281 508.019531 538.160156 509.082031 533.332031 C 509.492188 533.449219 509.964844 533.507812 510.433594 533.625 C 510.316406 541.691406 506.3125 549.816406 509.726562 558 C 510.964844 551.699219 510.375 545.164062 513.730469 539.453125 C 513.671875 545.460938 513.261719 551.347656 512.554688 557.234375 C 512.023438 561.414062 512.847656 564.652344 516.910156 566.59375 C 518.324219 560.058594 515.675781 553.289062 518.851562 547.34375 C 519.207031 553.523438 519.382812 559.648438 519.148438 565.710938 C 518.972656 569.359375 520.265625 571.539062 523.855469 572.363281 C 523.855469 566.359375 523.855469 560.351562 523.855469 554.347656 C 527.800781 561.058594 523.210938 569.535156 529.566406 575.542969 C 529.566406 570.183594 529.566406 564.828125 529.566406 559.46875 C 530.980469 563.828125 531.570312 568.242188 531.804688 572.65625 C 532.039062 577.308594 531.863281 577.308594 536.632812 577.777344 C 536.277344 573.011719 535.867188 568.242188 535.511719 563.414062 C 536.101562 563.414062 536.632812 563.355469 537.21875 563.296875 C 537.691406 566.296875 538.28125 569.242188 538.574219 572.246094 C 539.164062 578.191406 539.046875 578.191406 542.402344 578.25 C 541.636719 574.246094 540.871094 570.300781 540.105469 566.359375 C 545.109375 569.359375 541.636719 576.601562 548.40625 579.542969 C 546.816406 574.71875 545.640625 571.066406 544.519531 567.417969 C 544.992188 567.242188 545.460938 567.0625 545.933594 566.886719 C 547.523438 570.714844 549.171875 574.539062 550.761719 578.425781 Z M 563.828125 630.171875 C 564.949219 631.761719 566.066406 633.351562 568.007812 636.175781 C 568.832031 629.289062 575.367188 625.285156 571.304688 618.042969 C 569.65625 621.695312 568.480469 624.757812 566.890625 627.582031 C 566.300781 628.757812 564.769531 629.40625 563.710938 630.289062 C 565.125 626.582031 566.183594 622.695312 568.007812 619.164062 C 569.597656 616.160156 569.539062 613.863281 567.183594 611.570312 C 564.832031 616.632812 562.59375 621.636719 560.121094 626.933594 C 561.238281 627.875 562.535156 629.054688 563.828125 630.171875 Z M 588.671875 643.710938 C 592.792969 638.355469 590.554688 632.820312 589.96875 627.464844 C 588.613281 615.042969 590.851562 603.210938 596.914062 592.554688 C 603.859375 580.367188 607.6875 567.476562 609.160156 553.820312 C 609.6875 549.285156 608.921875 544.398438 607.628906 540.042969 C 603.683594 527.152344 599.210938 514.433594 594.914062 501.601562 C 591.203125 490.652344 591.617188 479.289062 592.144531 468.046875 C 593.144531 449.03125 597.089844 430.371094 605.863281 413.652344 C 615.988281 394.402344 625.230469 375.03125 632.648438 354.605469 C 635.589844 346.539062 642.417969 339.886719 647.363281 332.527344 C 658.078125 316.457031 669.675781 300.917969 679.214844 284.136719 C 686.335938 271.480469 686.394531 256.644531 685.160156 242.222656 C 684.921875 239.632812 683.394531 237.160156 682.390625 234.394531 C 686.628906 233.097656 686.6875 236.925781 687.691406 238.867188 C 692.339844 247.640625 695.753906 257.175781 701.289062 265.300781 C 713.59375 283.375 718.832031 303.742188 723.128906 324.582031 C 726.25 339.652344 728.191406 354.957031 725.957031 370.324219 C 724.011719 383.980469 720.832031 397.460938 718.359375 411.058594 C 715.003906 429.898438 711.828125 448.796875 708.589844 467.632812 C 702.9375 500.660156 689.101562 529.503906 665.4375 553.523438 C 654.3125 564.828125 642.714844 575.835938 632.941406 588.199219 C 619.519531 605.269531 606.628906 623.046875 600.269531 644.300781 C 599.269531 647.65625 599.5625 651.777344 600.503906 655.25 C 604.980469 671.617188 609.804688 687.863281 614.574219 704.113281 C 621.933594 729.070312 622.816406 754.621094 621.992188 780.289062 C 621.699219 789 620.519531 797.832031 616.398438 805.898438 C 614.75 809.132812 613.398438 812.488281 608.746094 811.726562 C 604.332031 811.019531 600.859375 807.25 600.800781 802.660156 C 600.742188 795.417969 600.621094 788.117188 601.269531 780.878906 C 602.625 765.277344 600.859375 749.910156 598.386719 734.605469 C 596.679688 724.007812 596.089844 713 592.851562 702.875 C 587.082031 685.039062 580.3125 667.4375 572.542969 650.421875 C 568.304688 641.003906 561.179688 632.996094 555.175781 624.109375 C 547.933594 634.292969 537.277344 639.53125 518.382812 631.230469 C 512.4375 638 505.3125 642.59375 495.777344 643.003906 C 482.238281 643.535156 469.933594 632.230469 473.996094 614.511719 C 475.585938 607.449219 479.292969 601.089844 485.710938 598.027344 C 492.597656 594.734375 492.65625 589.90625 491.714844 584.136719 C 486.828125 583.722656 483.765625 586.078125 480.648438 589.789062 C 467.402344 605.386719 441.027344 604.800781 430.492188 589.023438 C 422.132812 576.425781 426.3125 558.941406 440.027344 550.523438 C 443.914062 548.167969 445.972656 545.636719 446.621094 540.925781 C 447.679688 533.214844 456.863281 526.621094 465.929688 526.269531 C 475.9375 525.914062 481.117188 525.265625 498.25 535.390625 C 496.894531 532.449219 496.070312 530.035156 494.835938 528.035156 C 491.066406 522.207031 487.179688 516.496094 483.296875 510.785156 C 481.234375 507.78125 477.996094 507.3125 476.171875 510.136719 C 467.519531 523.855469 447.855469 524.621094 435.082031 516.496094 C 431.726562 514.316406 428.605469 511.726562 424.664062 508.84375 C 419.71875 514.847656 414.359375 521.027344 409.296875 527.503906 C 404.410156 533.804688 400.46875 541.101562 394.875 546.753906 C 387.929688 553.820312 380.394531 560.941406 371.796875 565.59375 C 355.078125 574.65625 336.59375 578.777344 317.695312 581.839844 C 297.976562 585.019531 279.550781 581.308594 260.828125 576.011719 C 243.582031 571.125 225.917969 567.710938 208.375 564.414062 C 195.484375 561.941406 184.476562 556.289062 174.054688 548.753906 C 159.867188 538.394531 143.679688 532.273438 126.667969 528.328125 C 125.136719 527.976562 123.429688 528.621094 121.839844 528.269531 C 120.542969 528.035156 119.425781 527.152344 118.011719 526.445312 C 127.136719 525.03125 135.910156 524.679688 143.972656 522.148438 C 153.570312 519.085938 163.105469 515.140625 171.523438 509.84375 C 187.125 500.128906 202.195312 489.59375 216.855469 478.582031 C 227.566406 470.519531 238.695312 464.453125 252 461.6875 C 264.066406 459.15625 275.78125 455.035156 287.554688 451.269531 C 309.21875 444.320312 331.414062 442.378906 353.960938 444.734375 C 367.148438 446.148438 379.628906 450.445312 391.8125 455.449219 C 397.582031 457.863281 403.585938 459.6875 409.355469 462.160156 C 412.359375 463.453125 415.066406 465.515625 418.246094 467.398438 C 426.191406 455.917969 437.730469 453.386719 451.269531 457.214844 C 454.214844 453.269531 453.214844 450.445312 444.914062 439.375 C 440.027344 446.972656 433.609375 452.269531 424.25 452.503906 C 410.945312 452.917969 402.292969 445.675781 396.992188 434.429688 C 394.050781 428.132812 392.8125 421.066406 390.695312 414.179688 C 382.101562 415.417969 374.566406 411.472656 368.207031 404.820312 C 355.433594 391.632812 353.902344 368.378906 365.027344 354.191406 C 370.5625 347.1875 377.980469 344.480469 386.339844 345.1875 C 387.574219 341.066406 388.8125 337.003906 390.046875 332.941406 C 391.164062 329.410156 389.457031 326.996094 386.398438 326.289062 C 376.273438 323.933594 366.085938 321.636719 355.84375 319.929688 C 351.78125 319.222656 347.308594 319.460938 343.363281 320.460938 C 330.589844 323.875 317.816406 326.523438 306.511719 334.882812 C 293.558594 344.421875 280.078125 353.898438 264.066406 358.253906 C 261.003906 359.136719 257.296875 359.136719 254.175781 358.429688 C 242.109375 355.664062 229.921875 355.957031 217.738281 355.015625 C 200.3125 353.664062 182.886719 349.484375 169.464844 338.003906 C 157.984375 328.289062 145.976562 319.636719 133.789062 310.925781 C 121.308594 302.09375 114.128906 288.964844 107.296875 275.777344 C 102 265.417969 94.875 257.117188 83.101562 251.230469 C 85.574219 250.582031 87.402344 249.464844 88.460938 249.933594 C 109.359375 259 127.960938 250.996094 145.796875 241.457031 C 160.75 233.453125 175.941406 229.09375 192.953125 229.917969 C 229.394531 231.746094 264.890625 236.867188 296.679688 256.292969 C 306.277344 262.121094 315.519531 268.773438 323.996094 276.132812 C 339.480469 289.4375 356.136719 300.855469 373.917969 310.6875 C 376.273438 311.984375 378.449219 313.515625 380.6875 314.925781 C 381.039062 314.632812 381.394531 314.339844 381.6875 313.984375 C 375.976562 307.15625 370.5625 300.03125 364.558594 293.5 C 348.015625 275.71875 331 258.414062 314.695312 240.515625 C 306.335938 231.273438 298.503906 221.621094 288.320312 214.261719 C 285.199219 212.023438 282.140625 209.375 278.667969 207.902344 C 265.246094 202.308594 256.121094 192.066406 248.113281 180.527344 C 241.285156 170.636719 234.398438 160.75 228.097656 150.445312 C 218.324219 134.433594 216.148438 117.007812 217.558594 98.40625 C 218.796875 82.15625 226.214844 67.910156 230.039062 52.546875 C 233.277344 39.359375 237.753906 26.292969 236.574219 12.339844 C 236.222656 8.511719 235.164062 4.804688 234.574219 0.976562 C 234.457031 0.09375 234.808594 -0.90625 234.925781 -1.847656 C 235.867188 -1.378906 236.871094 -1.023438 237.632812 -0.375 C 238.398438 0.386719 239.046875 1.390625 239.519531 2.390625 C 244.816406 13.457031 253.46875 21.582031 262.652344 29.351562 C 276.960938 41.421875 288.144531 56.136719 297.800781 72.148438 C 304.039062 82.453125 310.457031 92.695312 317.402344 102.527344 C 324.703125 112.886719 328.46875 124.308594 329.648438 136.671875 C 330.648438 147.265625 332.003906 157.980469 331.589844 168.519531 C 331.117188 180.882812 328.585938 193.125 327.527344 205.429688 C 326.820312 214.203125 325.644531 223.328125 327.46875 231.6875 C 328.941406 238.515625 333.769531 245.109375 338.535156 250.582031 C 350.605469 264.476562 363.496094 277.722656 376.035156 291.203125 C 376.566406 291.792969 377.214844 292.320312 377.980469 293.027344 C 376.09375 286.199219 373.976562 279.722656 372.621094 273.070312 C 368.5 253.171875 371.328125 233.863281 377.332031 214.613281 C 383.21875 195.835938 391.164062 178.171875 403.765625 163.042969 C 412.828125 152.152344 423.191406 142.261719 433.199219 132.136719 C 440.96875 124.308594 448.976562 116.832031 456.980469 109.238281 C 458.335938 107.941406 460.160156 107.117188 462.398438 105.589844 C 462.398438 110.472656 461.691406 114.300781 462.574219 117.65625 C 464.339844 124.132812 466.695312 130.488281 469.402344 136.613281 C 477.46875 154.800781 479.527344 173.640625 477.820312 193.363281 C 476.820312 204.839844 473.996094 215.792969 470.699219 226.742188 C 467.695312 236.867188 462.28125 245.34375 453.566406 251.230469 C 432.199219 265.710938 418.011719 286.023438 406.648438 308.6875 C 405.351562 311.394531 403.882812 314.101562 402.644531 316.339844 C 408.121094 315.867188 413.710938 314.28125 418.894531 315.105469 C 433.375 317.339844 442.027344 326.9375 446.855469 340.242188 C 447.855469 343.125 448.917969 344.363281 452.273438 344.949219 C 472.050781 348.246094 489.242188 365.847656 493.007812 385.921875 C 494.953125 396.226562 495.011719 406.292969 488.242188 415.003906 C 481.707031 423.480469 472.816406 425.484375 462.691406 423.011719 C 461.632812 422.714844 460.574219 422.480469 458.628906 422.070312 C 461.632812 428.191406 464.222656 433.667969 466.929688 439.023438 C 467.34375 439.789062 468.695312 440.671875 469.519531 440.554688 C 484.121094 438.964844 492.65625 447.382812 499.015625 458.804688 C 504.664062 468.988281 506.371094 479.9375 503.078125 491.359375 C 502.78125 492.417969 502.488281 493.773438 502.898438 494.65625 C 505.546875 501.128906 508.433594 507.546875 511.375 514.140625 C 514.144531 512.433594 516.320312 511.078125 518.675781 509.667969 C 511.082031 495.597656 511.140625 481.644531 519.617188 468.164062 C 525.683594 458.449219 534.6875 453.269531 546.226562 455.566406 C 556.707031 457.625 562.945312 465.339844 565.300781 475.226562 C 566.832031 481.644531 565.832031 488.589844 566.183594 495.242188 C 566.300781 496.832031 566.832031 499.1875 568.007812 499.835938 C 578.132812 505.957031 581.960938 515.789062 584.257812 526.5625 C 586.316406 536.15625 585.730469 545.460938 579.015625 552.996094 C 575.898438 556.527344 574.25 560.351562 572.601562 564.53125 C 569.363281 572.597656 563.121094 577.777344 554.644531 581.308594 C 566.007812 602.148438 577.25 622.695312 588.671875 643.710938 " fill-opacity="1" fill-rule="evenodd"/><path fill="#1e0601" d="M 556.46875 570.773438 C 554.351562 568.59375 552.703125 567.652344 552.410156 566.476562 C 551.878906 563.886719 556.351562 558.824219 558.53125 559.648438 C 559.945312 560.234375 561.828125 562.941406 561.472656 564.121094 C 560.828125 566.296875 558.707031 568.007812 556.46875 570.773438 " fill-opacity="1" fill-rule="evenodd"/><path fill="#1e0601" d="M 411.238281 331.882812 C 408.0625 333.648438 406.117188 334.941406 404 335.648438 C 403.644531 335.765625 401.703125 332.941406 401.703125 331.527344 C 401.703125 328.46875 403.882812 326.699219 406.824219 327.347656 C 408.121094 327.644531 409.0625 329.527344 411.238281 331.882812 " fill-opacity="1" fill-rule="evenodd"/><path fill="#1e0601" d="M 475.347656 414.417969 C 474.347656 411.765625 473.289062 410.296875 473.640625 409.648438 C 474.761719 407.765625 476.410156 406.234375 477.878906 404.585938 C 478.703125 405.703125 480.410156 407.292969 480.117188 407.941406 C 479.292969 409.882812 477.644531 411.472656 475.347656 414.417969 " fill-opacity="1" fill-rule="evenodd"/><path fill="#1e0601" d="M 425.78125 444.675781 C 423.71875 442.671875 422.425781 441.378906 421.070312 440.082031 C 422.71875 439.023438 424.25 437.550781 426.015625 437.140625 C 426.839844 436.964844 429.136719 439.082031 429.019531 439.730469 C 428.664062 441.320312 427.195312 442.613281 425.78125 444.675781 " fill-opacity="1" fill-rule="evenodd"/><path fill="#1e0601" d="M 427.253906 476.992188 C 425.546875 473.460938 424.898438 470.460938 428.136719 468.457031 C 429.078125 467.808594 432.140625 468.457031 432.257812 468.929688 C 433.257812 472.875 430.609375 474.933594 427.253906 476.992188 " fill-opacity="1" fill-rule="evenodd"/><path fill="#1e0601" d="M 499.367188 563.828125 C 497.425781 566.535156 496.011719 568.359375 494.65625 570.242188 C 493.773438 569.359375 492.125 568.535156 492.183594 567.710938 C 492.304688 564.652344 493.714844 562.53125 499.367188 563.828125 " fill-opacity="1" fill-rule="evenodd"/><path fill="#1e0601" d="M 380.921875 361.847656 C 378.804688 364.082031 377.449219 365.496094 376.09375 366.910156 C 374.859375 365.730469 372.445312 364.023438 372.679688 363.433594 C 373.503906 361.492188 375.269531 359.960938 376.625 358.3125 C 377.800781 359.253906 378.921875 360.136719 380.921875 361.847656 " fill-opacity="1" fill-rule="evenodd"/><path fill="#1e0601" d="M 472.050781 450.796875 C 470.34375 451.679688 468.753906 452.859375 466.929688 453.269531 C 466.105469 453.445312 464.929688 451.914062 463.929688 451.210938 C 465.457031 450.089844 466.8125 448.679688 468.519531 448.03125 C 469.34375 447.675781 470.699219 448.796875 471.875 449.265625 C 471.933594 449.738281 471.992188 450.265625 472.050781 450.796875 " fill-opacity="1" fill-rule="evenodd"/><path fill="#1e0601" d="M 489.832031 628.816406 C 486.476562 632.171875 484.414062 631.46875 482.941406 628.996094 C 482.589844 628.40625 483.414062 627.050781 483.707031 625.992188 C 485.59375 626.875 487.417969 627.757812 489.832031 628.816406 " fill-opacity="1" fill-rule="evenodd"/></svg>