<svg xmlns="http://www.w3.org/2000/svg" xmlns:xlink="http://www.w3.org/1999/xlink" width="1080" zoomAndPan="magnify" viewBox="0 0 810 809.999993" height="1080" preserveAspectRatio="xMidYMid meet" version="1.0"><path fill="#1e0601" d="M 427.851562 382.539062 C 412.160156 345.136719 379.109375 320.632812 366.863281 308.933594 C 348.929688 291.882812 335.359375 269.914062 327.753906 255.921875 C 323.320312 247.765625 320.394531 238.878906 319.101562 229.683594 C 319.101562 229.683594 272.167969 282.59375 251.503906 324.953125 C 212.476562 404.933594 224.761719 468.566406 261.722656 510.960938 C 293.21875 547.09375 336.863281 558.613281 358.09375 557.371094 C 315.285156 509.515625 296.941406 453.507812 310.285156 389.390625 C 314.132812 372.519531 316.960938 357.054688 318.140625 334.914062 C 318.742188 367.035156 314.398438 388.148438 313.320312 395.082031 C 303.261719 455.527344 324.0625 509.117188 365.773438 552.6875 C 381.082031 536.46875 394.117188 524.882812 408.320312 504.160156 C 437.359375 461.800781 443.933594 420.882812 427.851562 382.539062 Z M 427.851562 382.539062 " fill-opacity="1" fill-rule="nonzero"/><path fill="#1e0601" d="M 597.433594 447.292969 C 590.019531 457.171875 583.136719 468.960938 579.371094 479.597656 C 563.40625 524.34375 533.152344 550.929688 484.484375 556.480469 C 452.152344 560.167969 428.976562 552.261719 418.097656 550.113281 C 430.378906 518.386719 450.050781 489.757812 479.597656 473.699219 C 509.535156 457.378906 518.835938 466.714844 566.824219 443.292969 C 515.632812 464.054688 509.871094 452.777344 477.175781 469.039062 C 446.300781 484.328125 424.703125 512.695312 410.773438 544.050781 C 410.5 542.898438 410.675781 543.90625 408.96875 518.488281 C 411.183594 515.589844 413.414062 512.511719 415.679688 509.207031 C 430.878906 487.03125 440.347656 464.839844 443.816406 443.261719 C 444.726562 437.601562 445.226562 431.964844 445.316406 426.363281 C 493.875 386.1875 570.394531 399.882812 627.679688 425.007812 L 628.203125 425.238281 C 626.816406 425.945312 610.382812 430.042969 597.433594 447.292969 Z M 597.433594 447.292969 " fill-opacity="1" fill-rule="nonzero"/><path fill="#1e0601" d="M 405 810.011719 C 350.324219 810.011719 297.285156 799.304688 247.347656 778.183594 C 199.121094 757.785156 155.804688 728.582031 118.613281 691.386719 C 81.417969 654.191406 52.214844 610.878906 31.816406 562.652344 C 10.695312 512.714844 -0.0117188 459.675781 -0.0117188 405 C -0.0117188 350.324219 10.695312 297.285156 31.816406 247.347656 C 52.214844 199.121094 81.417969 155.804688 118.613281 118.613281 C 155.808594 81.417969 199.121094 52.214844 247.347656 31.816406 C 297.285156 10.695312 350.324219 -0.0117188 405 -0.0117188 C 459.675781 -0.0117188 512.714844 10.695312 562.652344 31.816406 C 610.878906 52.214844 654.195312 81.417969 691.386719 118.613281 C 728.582031 155.808594 757.785156 199.121094 778.183594 247.347656 C 799.304688 297.285156 810.011719 350.324219 810.011719 405 C 810.011719 459.675781 799.304688 512.714844 778.183594 562.652344 C 757.785156 610.878906 728.582031 654.191406 691.386719 691.386719 C 654.191406 728.582031 610.878906 757.785156 562.652344 778.183594 C 512.714844 799.300781 459.675781 810.011719 405 810.011719 Z M 405 9.699219 C 351.632812 9.699219 299.863281 20.148438 251.132812 40.761719 C 204.0625 60.671875 161.785156 89.175781 125.480469 125.480469 C 89.171875 161.785156 60.667969 204.0625 40.757812 251.132812 C 20.148438 299.863281 9.699219 351.632812 9.699219 405 C 9.699219 458.367188 20.148438 510.136719 40.761719 558.867188 C 60.671875 605.9375 89.175781 648.214844 125.480469 684.519531 C 161.785156 720.824219 204.0625 749.328125 251.132812 769.238281 C 299.863281 789.851562 351.632812 800.300781 405 800.300781 C 458.367188 800.300781 510.136719 789.851562 558.867188 769.238281 C 605.941406 749.328125 648.214844 720.824219 684.523438 684.519531 C 720.828125 648.214844 749.332031 605.9375 769.242188 558.867188 C 789.851562 510.136719 800.300781 458.367188 800.300781 405 C 800.300781 351.632812 789.851562 299.863281 769.238281 251.132812 C 749.328125 204.0625 720.824219 161.785156 684.519531 125.480469 C 648.214844 89.171875 605.9375 60.667969 558.867188 40.757812 C 510.136719 20.148438 458.367188 9.699219 405 9.699219 Z M 405 9.699219 " fill-opacity="1" fill-rule="nonzero"/><path fill="#1e0601" d="M 405 680.734375 C 367.777344 680.734375 331.667969 673.441406 297.671875 659.0625 C 264.835938 645.175781 235.347656 625.292969 210.027344 599.972656 C 184.707031 574.652344 164.824219 545.164062 150.9375 512.328125 C 136.558594 478.332031 129.265625 442.21875 129.265625 405 C 129.265625 367.777344 136.558594 331.667969 150.9375 297.667969 C 164.824219 264.835938 184.707031 235.347656 210.027344 210.027344 C 235.347656 184.707031 264.835938 164.824219 297.671875 150.9375 C 331.667969 136.558594 367.777344 129.265625 405 129.265625 C 442.222656 129.265625 478.332031 136.558594 512.328125 150.9375 C 545.164062 164.824219 574.652344 184.707031 599.972656 210.027344 C 625.292969 235.347656 645.175781 264.835938 659.0625 297.667969 C 673.441406 331.667969 680.734375 367.777344 680.734375 405 C 680.734375 442.21875 673.441406 478.332031 659.0625 512.328125 C 645.175781 545.164062 625.292969 574.652344 599.972656 599.972656 C 574.652344 625.292969 545.164062 645.175781 512.328125 659.0625 C 478.332031 673.441406 442.222656 680.734375 405 680.734375 Z M 405 139.335938 C 369.132812 139.335938 334.339844 146.359375 301.59375 160.210938 C 269.957031 173.589844 241.546875 192.746094 217.144531 217.148438 C 192.746094 241.546875 173.589844 269.957031 160.210938 301.59375 C 146.355469 334.34375 139.332031 369.132812 139.332031 405 C 139.332031 440.867188 146.355469 475.660156 160.210938 508.410156 C 173.589844 540.042969 192.746094 568.453125 217.144531 592.855469 C 241.546875 617.253906 269.957031 636.410156 301.59375 649.789062 C 334.339844 663.640625 369.132812 670.667969 405 670.667969 C 440.867188 670.667969 475.660156 663.644531 508.40625 649.789062 C 540.042969 636.410156 568.453125 617.253906 592.855469 592.855469 C 617.253906 568.453125 636.410156 540.042969 649.789062 508.410156 C 663.644531 475.660156 670.667969 440.867188 670.667969 405 C 670.667969 369.132812 663.644531 334.34375 649.789062 301.59375 C 636.410156 269.957031 617.253906 241.546875 592.855469 217.148438 C 568.453125 192.746094 540.042969 173.589844 508.40625 160.210938 C 475.660156 146.359375 440.867188 139.335938 405 139.335938 Z M 405 139.335938 " fill-opacity="1" fill-rule="nonzero"/><path fill="#1e0601" d="M 692.566406 255.824219 C 692.089844 255.824219 691.605469 255.777344 691.136719 255.683594 C 690.671875 255.585938 690.214844 255.449219 689.773438 255.265625 C 689.332031 255.085938 688.90625 254.859375 688.515625 254.597656 C 688.113281 254.332031 687.738281 254.027344 687.402344 253.691406 C 687.066406 253.351562 686.761719 252.980469 686.496094 252.578125 C 686.226562 252.183594 686.007812 251.757812 685.820312 251.316406 C 685.636719 250.875 685.5 250.417969 685.402344 249.949219 C 685.316406 249.480469 685.261719 248.996094 685.261719 248.519531 C 685.261719 246.601562 686.042969 244.71875 687.402344 243.359375 C 687.738281 243.019531 688.113281 242.714844 688.515625 242.449219 C 688.910156 242.1875 689.335938 241.960938 689.773438 241.78125 C 690.21875 241.597656 690.675781 241.460938 691.136719 241.363281 C 692.082031 241.171875 693.046875 241.171875 693.996094 241.363281 C 694.457031 241.460938 694.914062 241.597656 695.359375 241.78125 C 695.796875 241.960938 696.222656 242.191406 696.617188 242.449219 C 697.019531 242.714844 697.390625 243.019531 697.730469 243.359375 C 699.089844 244.71875 699.871094 246.601562 699.871094 248.519531 C 699.871094 248.996094 699.816406 249.480469 699.730469 249.949219 C 699.632812 250.417969 699.496094 250.875 699.308594 251.316406 C 699.125 251.757812 698.902344 252.183594 698.636719 252.578125 C 698.371094 252.980469 698.066406 253.351562 697.730469 253.691406 C 697.394531 254.027344 697.019531 254.332031 696.617188 254.597656 C 696.222656 254.859375 695.800781 255.085938 695.359375 255.265625 C 694.917969 255.449219 694.460938 255.585938 693.996094 255.683594 C 693.523438 255.777344 693.042969 255.824219 692.566406 255.824219 Z M 692.566406 255.824219 " fill-opacity="1" fill-rule="nonzero"/><path fill="#1e0601" d="M 729.457031 465.835938 C 725.464844 465.226562 722.722656 461.511719 723.324219 457.527344 C 723.929688 453.539062 727.648438 450.789062 731.636719 451.390625 C 735.625 451.996094 738.367188 455.714844 737.769531 459.703125 C 737.226562 463.324219 734.105469 465.921875 730.558594 465.921875 C 730.195312 465.921875 729.828125 465.890625 729.457031 465.835938 Z M 721.871094 351.691406 C 721.152344 347.722656 723.796875 343.921875 727.765625 343.210938 C 731.734375 342.496094 735.53125 345.136719 736.242188 349.105469 C 736.957031 353.074219 734.316406 356.871094 730.347656 357.582031 C 729.910156 357.664062 729.476562 357.703125 729.050781 357.703125 C 725.578125 357.703125 722.503906 355.21875 721.871094 351.691406 Z M 721.871094 351.691406 " fill-opacity="1" fill-rule="nonzero"/><path fill="#1e0601" d="M 696.910156 568.777344 C 696.433594 568.777344 695.957031 568.726562 695.480469 568.632812 C 695.015625 568.535156 694.558594 568.398438 694.113281 568.214844 C 693.675781 568.035156 693.25 567.804688 692.859375 567.546875 C 692.457031 567.277344 692.082031 566.972656 691.746094 566.636719 C 690.386719 565.28125 689.605469 563.390625 689.605469 561.476562 C 689.605469 561 689.65625 560.515625 689.753906 560.046875 C 689.839844 559.578125 689.980469 559.121094 690.164062 558.679688 C 690.347656 558.234375 690.570312 557.808594 690.839844 557.417969 C 691.105469 557.015625 691.410156 556.640625 691.746094 556.304688 C 692.082031 555.96875 692.457031 555.664062 692.859375 555.398438 C 693.253906 555.136719 693.675781 554.910156 694.113281 554.722656 C 694.558594 554.546875 695.015625 554.40625 695.480469 554.3125 C 696.425781 554.121094 697.390625 554.121094 698.335938 554.3125 C 698.800781 554.40625 699.257812 554.546875 699.703125 554.722656 C 700.140625 554.90625 700.566406 555.136719 700.960938 555.398438 C 701.359375 555.664062 701.734375 555.96875 702.070312 556.304688 C 702.40625 556.640625 702.710938 557.015625 702.980469 557.417969 C 703.246094 557.808594 703.46875 558.234375 703.652344 558.679688 C 703.835938 559.117188 703.976562 559.574219 704.066406 560.046875 C 704.160156 560.515625 704.210938 561 704.210938 561.476562 C 704.210938 563.390625 703.429688 565.28125 702.070312 566.636719 C 701.734375 566.972656 701.359375 567.277344 700.960938 567.546875 C 700.566406 567.804688 700.140625 568.035156 699.703125 568.214844 C 699.257812 568.398438 698.800781 568.535156 698.335938 568.632812 C 697.867188 568.726562 697.386719 568.777344 696.910156 568.777344 Z M 696.910156 568.777344 " fill-opacity="1" fill-rule="nonzero"/><path fill="#1e0601" d="M 113.085938 568.777344 C 112.609375 568.777344 112.128906 568.726562 111.65625 568.632812 C 111.195312 568.535156 110.738281 568.398438 110.292969 568.214844 C 109.855469 568.035156 109.429688 567.804688 109.035156 567.546875 C 108.636719 567.277344 108.261719 566.972656 107.925781 566.636719 C 106.566406 565.28125 105.785156 563.390625 105.785156 561.476562 C 105.785156 561 105.835938 560.515625 105.929688 560.046875 C 106.019531 559.578125 106.160156 559.121094 106.34375 558.679688 C 106.527344 558.234375 106.75 557.808594 107.015625 557.417969 C 107.28125 557.015625 107.585938 556.640625 107.921875 556.304688 C 108.261719 555.96875 108.636719 555.664062 109.035156 555.398438 C 109.429688 555.136719 109.855469 554.910156 110.292969 554.722656 C 110.734375 554.546875 111.191406 554.40625 111.65625 554.3125 C 112.601562 554.121094 113.566406 554.121094 114.515625 554.3125 C 114.976562 554.40625 115.433594 554.546875 115.878906 554.722656 C 116.316406 554.90625 116.742188 555.136719 117.136719 555.398438 C 117.535156 555.664062 117.910156 555.96875 118.246094 556.304688 C 118.582031 556.640625 118.890625 557.015625 119.15625 557.417969 C 119.421875 557.808594 119.644531 558.234375 119.828125 558.679688 C 120.011719 559.117188 120.152344 559.574219 120.238281 560.046875 C 120.335938 560.515625 120.386719 561 120.386719 561.476562 C 120.386719 563.390625 119.605469 565.28125 118.246094 566.636719 C 117.910156 566.972656 117.535156 567.277344 117.136719 567.546875 C 116.742188 567.804688 116.316406 568.035156 115.878906 568.214844 C 115.433594 568.398438 114.976562 568.535156 114.511719 568.632812 C 114.046875 568.726562 113.5625 568.777344 113.085938 568.777344 Z M 113.085938 568.777344 " fill-opacity="1" fill-rule="nonzero"/><path fill="#1e0601" d="M 72.230469 459.710938 C 71.628906 455.722656 74.371094 452 78.359375 451.398438 C 82.347656 450.796875 86.066406 453.542969 86.671875 457.53125 C 87.273438 461.519531 84.53125 465.242188 80.535156 465.84375 C 80.167969 465.894531 79.800781 465.925781 79.4375 465.925781 C 75.886719 465.925781 72.777344 463.328125 72.230469 459.710938 Z M 79.648438 357.589844 C 75.679688 356.878906 73.039062 353.082031 73.75 349.113281 C 74.464844 345.144531 78.257812 342.5 82.226562 343.21875 C 86.199219 343.929688 88.835938 347.726562 88.125 351.695312 C 87.488281 355.226562 84.417969 357.710938 80.949219 357.710938 C 80.515625 357.710938 80.085938 357.671875 79.648438 357.589844 Z M 79.648438 357.589844 " fill-opacity="1" fill-rule="nonzero"/><path fill="#1e0601" d="M 117.429688 255.824219 C 115.507812 255.824219 113.625 255.046875 112.265625 253.6875 C 111.929688 253.351562 111.625 252.976562 111.359375 252.578125 C 111.09375 252.183594 110.871094 251.757812 110.6875 251.3125 C 110.503906 250.875 110.363281 250.417969 110.265625 249.949219 C 110.179688 249.476562 110.128906 248.996094 110.128906 248.519531 C 110.128906 248.050781 110.179688 247.566406 110.265625 247.097656 C 110.363281 246.625 110.5 246.167969 110.6875 245.730469 C 110.871094 245.289062 111.09375 244.863281 111.359375 244.46875 C 111.625 244.066406 111.929688 243.695312 112.265625 243.359375 C 112.605469 243.019531 112.980469 242.714844 113.378906 242.449219 C 113.773438 242.1875 114.195312 241.960938 114.636719 241.78125 C 115.078125 241.597656 115.535156 241.460938 116 241.363281 C 116.945312 241.171875 117.910156 241.171875 118.859375 241.363281 C 119.320312 241.460938 119.777344 241.597656 120.222656 241.78125 C 120.660156 241.960938 121.085938 242.191406 121.480469 242.449219 C 121.882812 242.714844 122.253906 243.019531 122.589844 243.359375 C 123.949219 244.71875 124.730469 246.601562 124.730469 248.519531 C 124.730469 248.996094 124.679688 249.480469 124.589844 249.949219 C 124.496094 250.417969 124.355469 250.875 124.171875 251.316406 C 123.988281 251.757812 123.765625 252.183594 123.5 252.578125 C 123.234375 252.980469 122.929688 253.355469 122.589844 253.691406 C 122.253906 254.027344 121.878906 254.332031 121.480469 254.597656 C 121.085938 254.859375 120.660156 255.085938 120.222656 255.265625 C 119.78125 255.449219 119.320312 255.589844 118.859375 255.683594 C 118.382812 255.777344 117.90625 255.824219 117.429688 255.824219 Z M 117.429688 255.824219 " fill-opacity="1" fill-rule="nonzero"/><path fill="#1e0601" d="M 213.378906 644.804688 L 231.628906 657.5625 C 240.992188 664.109375 243.722656 673.808594 237.648438 682.496094 C 231.070312 691.90625 220.832031 691.96875 211.578125 685.496094 L 200.730469 677.914062 L 187.386719 697 L 180.335938 692.070312 Z M 204.796875 672.101562 L 215.148438 679.335938 C 221.289062 683.628906 226.585938 683.003906 230.339844 677.632812 C 234.25 672.039062 232.273438 666.671875 226.960938 662.953125 L 216.367188 655.550781 Z M 204.796875 672.101562 " fill-opacity="1" fill-rule="nonzero"/><path fill="#1e0601" d="M 255.386719 710.265625 L 245.140625 733.03125 L 237.433594 729.5625 L 261.101562 676.972656 L 282.136719 686.4375 C 293.070312 691.359375 296.230469 699.933594 292.542969 708.125 C 289.449219 715.003906 283.699219 717.324219 278.253906 716.585938 C 281.722656 719.488281 284.097656 724.296875 279.964844 733.480469 L 278.917969 735.800781 C 277.296875 739.410156 275.148438 743.832031 274.980469 746.464844 L 267.445312 743.070312 C 267.519531 740.371094 269.371094 736.3125 271.644531 731.253906 L 272.121094 730.199219 C 275.34375 723.042969 274.773438 718.992188 265.519531 714.828125 Z M 258.300781 703.796875 L 269.375 708.78125 C 277.070312 712.246094 281.695312 710.839844 284.226562 705.21875 C 286.628906 699.875 284.503906 695.285156 277.664062 692.207031 L 265.898438 686.910156 Z M 258.300781 703.796875 " fill-opacity="1" fill-rule="nonzero"/><path fill="#1e0601" d="M 359.15625 738.339844 C 355.757812 753.871094 343.921875 765.683594 326.070312 761.777344 C 309.277344 758.101562 302.832031 743.25 306.367188 727.09375 C 309.90625 710.921875 322.304688 700.214844 339.433594 703.964844 C 355.414062 707.460938 362.84375 721.496094 359.15625 738.339844 Z M 315.144531 728.761719 C 312.527344 740.714844 316.253906 752.25 327.964844 754.8125 C 340.621094 757.582031 347.855469 748.207031 350.410156 736.546875 C 353.003906 724.691406 349.5625 713.558594 337.546875 710.929688 C 325.269531 708.242188 317.730469 716.941406 315.144531 728.761719 Z M 315.144531 728.761719 " fill-opacity="1" fill-rule="nonzero"/><path fill="#1e0601" d="M 382.882812 711.425781 L 403.917969 711.765625 C 420.234375 712.03125 431.023438 723.257812 430.746094 740.429688 C 430.472656 757.441406 419.589844 769.699219 402.675781 769.425781 L 381.949219 769.089844 Z M 390.621094 762.058594 L 402.203125 762.246094 C 415.296875 762.457031 421.609375 753.125 421.816406 740.421875 C 421.992188 729.40625 416.519531 719.140625 402.941406 718.921875 L 391.324219 718.734375 Z M 390.621094 762.058594 " fill-opacity="1" fill-rule="nonzero"/><path fill="#1e0601" d="M 455.46875 707.8125 L 462.707031 741.6875 C 465.453125 754.542969 473.183594 756.582031 480.1875 755.085938 C 488.359375 753.339844 493.195312 748.261719 490.523438 735.746094 L 483.289062 701.871094 L 491.703125 700.074219 L 498.847656 733.523438 C 502.796875 752.007812 493.5625 759.40625 481.492188 761.984375 C 469.546875 764.535156 458.023438 761.167969 454.257812 743.539062 L 447.011719 709.617188 Z M 455.46875 707.8125 " fill-opacity="1" fill-rule="nonzero"/><path fill="#1e0601" d="M 569.589844 712.65625 C 571.34375 722.789062 567.539062 732.566406 555.347656 737.992188 C 539.40625 745.078125 526.164062 736.679688 519.53125 721.765625 C 513.152344 707.429688 515.390625 690.925781 531.59375 683.722656 C 544.324219 678.058594 554.324219 682.359375 559.746094 690.5 L 551.921875 693.976562 C 547.773438 689.328125 542.257812 686.660156 534.148438 690.269531 C 522.945312 695.25 522.929688 707.433594 527.578125 717.890625 C 532.054688 727.960938 541.03125 736.675781 552.816406 731.433594 C 560.8125 727.878906 562.042969 721.679688 561.734375 716.152344 Z M 569.589844 712.65625 " fill-opacity="1" fill-rule="nonzero"/><path fill="#1e0601" d="M 579.832031 664.984375 L 564.695312 675.480469 L 560.566406 669.527344 L 597.910156 643.621094 L 602.042969 649.578125 L 586.902344 660.078125 L 615.640625 701.515625 L 608.570312 706.417969 Z M 579.832031 664.984375 " fill-opacity="1" fill-rule="nonzero"/><path fill="#1e0601" d="M 245.828125 105.648438 C 254.429688 119.03125 254.429688 135.765625 239.046875 145.648438 C 224.574219 154.945312 209.5 149.019531 200.554688 135.09375 C 191.597656 121.160156 192.773438 104.808594 207.539062 95.320312 C 221.308594 86.472656 236.503906 91.132812 245.828125 105.648438 Z M 207.9375 130.054688 C 214.554688 140.355469 225.359375 145.867188 235.453125 139.382812 C 246.359375 132.378906 244.832031 120.625 238.375 110.578125 C 231.8125 100.359375 221.492188 94.929688 211.136719 101.582031 C 200.554688 108.382812 201.390625 119.867188 207.9375 130.054688 Z M 207.9375 130.054688 " fill-opacity="1" fill-rule="nonzero"/><path fill="#1e0601" d="M 276.199219 97.078125 L 285.113281 120.410156 L 277.210938 123.429688 L 256.617188 69.519531 L 278.179688 61.28125 C 289.386719 57 297.699219 60.8125 300.90625 69.210938 C 303.597656 76.257812 301.1875 81.972656 296.820312 85.316406 C 301.332031 84.90625 306.414062 86.617188 310.011719 96.03125 L 310.921875 98.40625 C 312.332031 102.105469 313.953125 106.75 315.703125 108.726562 L 307.976562 111.675781 C 306.113281 109.722656 304.542969 105.542969 302.5625 100.355469 L 302.148438 99.277344 C 299.34375 91.9375 296.070312 89.484375 286.585938 93.109375 Z M 273.664062 90.445312 L 285.019531 86.105469 C 292.90625 83.089844 295.175781 78.824219 292.972656 73.054688 C 290.878906 67.582031 286.125 65.847656 279.113281 68.527344 L 267.050781 73.132812 Z M 273.664062 90.445312 " fill-opacity="1" fill-rule="nonzero"/><path fill="#1e0601" d="M 379.683594 96.199219 L 373.273438 97.238281 C 372.671875 96.089844 372.039062 93.695312 371.328125 90.039062 C 369.378906 94.546875 365 99.402344 355.148438 100.996094 C 338.695312 103.65625 327.855469 92.609375 325.234375 76.398438 C 322.472656 59.328125 329.863281 44.957031 347.203125 42.152344 C 360.707031 39.964844 370.289062 45.984375 373.503906 55.824219 L 365.046875 57.191406 C 362.304688 51.597656 357.273438 47.636719 348.160156 49.113281 C 335.222656 51.207031 332.019531 62.40625 333.992188 74.574219 C 335.832031 85.949219 342.574219 95.835938 355.148438 93.804688 C 367.488281 91.808594 369.089844 83.0625 367.671875 74.296875 L 367.578125 73.71875 L 352.207031 76.203125 L 351.050781 69.046875 L 374.671875 65.222656 Z M 379.683594 96.199219 " fill-opacity="1" fill-rule="nonzero"/><path fill="#1e0601" d="M 408.558594 79.449219 L 401.90625 95.714844 L 393.417969 95.316406 L 416.464844 38.625 L 427.058594 39.121094 L 445.585938 97.757812 L 436.503906 97.332031 L 431.195312 80.507812 Z M 429.4375 73.167969 C 424.890625 58.339844 422.320312 50.203125 421.257812 45.601562 L 421.175781 45.597656 C 419.527344 50.570312 415.796875 60.03125 411.003906 72.304688 Z M 429.4375 73.167969 " fill-opacity="1" fill-rule="nonzero"/><path fill="#1e0601" d="M 459.484375 100.023438 L 473.921875 44.152344 L 484.707031 46.9375 C 489.175781 61.925781 498.820312 93.019531 500.277344 99.878906 L 500.394531 99.910156 C 501.628906 92.847656 503.992188 83.878906 506.351562 74.742188 L 511.734375 53.921875 L 519.484375 55.925781 L 505.046875 111.796875 L 494.890625 109.175781 C 490.839844 95.433594 480.933594 61.769531 479.195312 54.59375 L 479.078125 54.566406 C 477.910156 60.753906 475.394531 70.613281 472.792969 80.683594 L 467.273438 102.039062 Z M 459.484375 100.023438 " fill-opacity="1" fill-rule="nonzero"/><path fill="#1e0601" d="M 554.476562 70.273438 L 531.476562 123.203125 L 523.621094 119.789062 L 546.621094 66.859375 Z M 554.476562 70.273438 " fill-opacity="1" fill-rule="nonzero"/><path fill="#1e0601" d="M 597.804688 141.777344 C 590.394531 148.914062 580.15625 151.246094 568.820312 144.183594 C 554.007812 134.953125 553.539062 119.265625 562.175781 105.402344 C 570.480469 92.074219 585.410156 84.671875 600.46875 94.058594 C 612.304688 101.433594 614.347656 112.132812 610.644531 121.1875 L 603.375 116.660156 C 604.902344 110.613281 604.019531 104.542969 596.480469 99.847656 C 586.066406 93.359375 575.960938 100.179688 569.90625 109.898438 C 564.070312 119.257812 561.882812 131.582031 572.839844 138.410156 C 580.269531 143.039062 586.097656 140.585938 590.507812 137.226562 Z M 597.804688 141.777344 " fill-opacity="1" fill-rule="nonzero"/></svg>